<svg width="16" height="16" viewBox="0 0 16 16" fill="none" xmlns="http://www.w3.org/2000/svg">
<path d="M3.84165 12.1167C3.64711 12.1167 3.48317 12.05 3.34984 11.9167C3.2165 11.7833 3.14984 11.6167 3.14984 11.4167V7.13334C3.14984 6.95272 3.21928 6.79645 3.35817 6.66454C3.49706 6.53263 3.65822 6.46667 3.84165 6.46667C4.0362 6.46667 4.20009 6.5325 4.33332 6.66417C4.46655 6.79584 4.53317 6.95778 4.53317 7.15001V11.4333C4.53317 11.6222 4.46378 11.7833 4.32499 11.9167C4.1862 12.05 4.02509 12.1167 3.84165 12.1167ZM8.07469 12.1167C7.88014 12.1167 7.71625 12.05 7.58302 11.9167C7.44979 11.7833 7.38317 11.6167 7.38317 11.4167V7.13334C7.38317 6.95272 7.44984 6.79645 7.58317 6.66454C7.7165 6.53263 7.87489 6.46667 8.05832 6.46667C8.25286 6.46667 8.41675 6.5325 8.54999 6.66417C8.68322 6.79584 8.74984 6.95778 8.74984 7.15001V11.4333C8.74984 11.6222 8.68317 11.7833 8.54984 11.9167C8.4165 12.05 8.25812 12.1167 8.07469 12.1167ZM1.68317 14.3C1.47206 14.3 1.2915 14.2222 1.1415 14.0667C0.991504 13.9111 0.916504 13.7278 0.916504 13.5167C0.916504 13.2945 0.991504 13.1083 1.1415 12.9583C1.2915 12.8083 1.47761 12.7333 1.69984 12.7333H14.3165C14.5256 12.7333 14.7084 12.8111 14.865 12.9667C15.0216 13.1222 15.0998 13.3056 15.0998 13.5167C15.0998 13.7389 15.0217 13.925 14.8655 14.075C14.7092 14.225 14.5207 14.3 14.2998 14.3H1.68317ZM12.158 12.1167C11.9635 12.1167 11.7996 12.05 11.6664 11.9167C11.5331 11.7833 11.4665 11.6167 11.4665 11.4167V7.13334C11.4665 6.95272 11.5359 6.79645 11.6747 6.66454C11.8135 6.53263 11.9746 6.46667 12.158 6.46667C12.3526 6.46667 12.5165 6.5325 12.6498 6.66417C12.7832 6.79584 12.8498 6.95778 12.8498 7.15001V11.4333C12.8498 11.6222 12.7804 11.7833 12.6415 11.9167C12.5026 12.05 12.3415 12.1167 12.158 12.1167ZM8.7665 0.666671L14.3332 3.86667C14.5554 3.98889 14.7387 4.14653 14.8832 4.33959C15.0276 4.53264 15.0998 4.74723 15.0998 4.98334C15.0998 5.23889 15.003 5.44723 14.8094 5.60834C14.6157 5.76945 14.3903 5.85 14.1332 5.85H1.84984C1.59206 5.85 1.37206 5.77069 1.18984 5.61206C1.00762 5.45343 0.916504 5.24386 0.916504 4.98334C0.916504 4.73334 0.991504 4.5125 1.1415 4.32084C1.2915 4.12917 1.47761 3.97223 1.69984 3.85L7.23317 0.666671C7.47761 0.544449 7.73317 0.483337 7.99984 0.483337C8.2665 0.483337 8.52206 0.544449 8.7665 0.666671Z" fill="#66828C"/>
</svg>
