<svg width="16" height="16" viewBox="0 0 16 16" fill="none" xmlns="http://www.w3.org/2000/svg">
<path d="M7.39984 7.26669V8.83336C7.39984 9.00336 7.45525 9.14586 7.56609 9.26086C7.67693 9.37586 7.82249 9.43336 8.00275 9.43336C8.18303 9.43336 8.32761 9.37822 8.4365 9.26794C8.54539 9.15767 8.59984 9.01085 8.59984 8.82751V7.26669H10.1665C10.3365 7.26669 10.479 7.21128 10.594 7.10044C10.709 6.9896 10.7665 6.84404 10.7665 6.66378C10.7665 6.4835 10.7114 6.33891 10.6011 6.23003C10.4908 6.12114 10.344 6.06669 10.1607 6.06669H8.59984V4.50003C8.59984 4.33002 8.54442 4.18752 8.43359 4.07252C8.32274 3.95752 8.17719 3.90002 7.99692 3.90002C7.81664 3.90002 7.67206 3.95516 7.56317 4.06544C7.45428 4.17572 7.39984 4.32253 7.39984 4.50588V6.06669H5.83317C5.66317 6.06669 5.52067 6.12211 5.40567 6.23294C5.29067 6.34379 5.23317 6.48934 5.23317 6.66961C5.23317 6.84989 5.28831 6.99447 5.39859 7.10336C5.50886 7.21225 5.65568 7.26669 5.83902 7.26669H7.39984ZM3.58317 12.4167L2.2665 13.7334C2.01095 13.9889 1.72206 14.0499 1.39984 13.9162C1.07761 13.7825 0.916504 13.5438 0.916504 13.2V2.48336C0.916504 2.04488 1.06914 1.67137 1.37442 1.36284C1.6797 1.0543 2.04928 0.900024 2.48317 0.900024H13.5165C13.955 0.900024 14.3285 1.0543 14.637 1.36284C14.9456 1.67137 15.0998 2.04488 15.0998 2.48336V10.85C15.0998 11.2839 14.9456 11.6535 14.637 11.9588C14.3285 12.2641 13.955 12.4167 13.5165 12.4167H3.58317Z" fill="#002E40"/>
</svg>
