<svg width="14" height="14" viewBox="0 0 14 14" fill="none" xmlns="http://www.w3.org/2000/svg">
<g clip-path="url(#clip0_1067_7152)">
<path d="M7.04391 10.0042C7.1985 10.0042 7.32683 9.95459 7.42308 9.85834C7.51933 9.76209 7.56891 9.63376 7.56891 9.47917V7.58334H9.49391C9.63975 7.58334 9.76225 7.53376 9.8585 7.43751C9.95475 7.34126 10.0043 7.21292 10.0043 7.05834C10.0043 6.90376 9.95475 6.77542 9.8585 6.67917C9.76225 6.58292 9.63391 6.53334 9.47933 6.53334H7.56891V4.50626C7.56891 4.36042 7.51933 4.23792 7.42308 4.14167C7.32683 4.04542 7.1985 3.99584 7.04391 3.99584C6.88933 3.99584 6.761 4.04542 6.66475 4.14167C6.5685 4.23792 6.51891 4.36626 6.51891 4.52084V6.53334H4.50641C4.36058 6.53334 4.23808 6.58292 4.14183 6.67917C4.04558 6.77542 3.996 6.90376 3.996 7.05834C3.996 7.21292 4.04558 7.34126 4.14183 7.43751C4.23808 7.53376 4.36641 7.58334 4.521 7.58334H6.51891V9.49376C6.51891 9.63959 6.5685 9.76209 6.66475 9.85834C6.761 9.95459 6.88933 10.0042 7.04391 10.0042ZM7.01475 13.1979C6.131 13.1979 5.3085 13.0404 4.55016 12.7254C3.79183 12.4104 3.13558 11.9729 2.58141 11.4217C2.02725 10.8675 1.59266 10.2113 1.27475 9.45292C0.956829 8.69459 0.802246 7.87209 0.802246 6.98834C0.802246 6.12209 0.959746 5.31417 1.27475 4.56167C1.58975 3.80917 2.02725 3.15292 2.58141 2.59292C3.13558 2.03292 3.79183 1.58959 4.55016 1.26876C5.3085 0.947923 6.131 0.787506 7.01475 0.787506C7.881 0.787506 8.68891 0.947923 9.44433 1.26876C10.1997 1.58959 10.8531 2.03001 11.4131 2.59001C11.9731 3.15001 12.4106 3.80626 12.7343 4.55876C13.0522 5.31126 13.2127 6.12501 13.2127 7.00001C13.2127 7.87501 13.0522 8.69167 12.7314 9.45001C12.4106 10.2083 11.9702 10.8646 11.4102 11.4188C10.8502 11.9729 10.1939 12.4075 9.44141 12.7225C8.68891 13.0375 7.881 13.1979 7.01475 13.1979Z" fill="#66828C"/>
</g>
<defs>
<clipPath id="clip0_1067_7152">
<rect width="14" height="14" fill="white"/>
</clipPath>
</defs>
</svg>
