<svg width="16" height="16" viewBox="0 0 16 16" fill="none" xmlns="http://www.w3.org/2000/svg">
<path d="M7.9998 12.95C7.77647 12.95 7.5898 12.8767 7.44314 12.7267C7.29314 12.5767 7.2198 12.39 7.21647 12.17V8.78333H3.83314C3.6098 8.78333 3.42647 8.70666 3.27314 8.55999C3.12647 8.40999 3.0498 8.22333 3.0498 7.99999C3.0498 7.77666 3.12647 7.58999 3.27647 7.44333C3.42647 7.29333 3.61314 7.21999 3.83647 7.21999H7.2198V3.83333C7.2198 3.60999 7.29647 3.42666 7.44314 3.27333C7.59314 3.12333 7.7798 3.04666 8.00314 3.04666C8.22647 3.04666 8.41314 3.12333 8.5598 3.27333C8.7098 3.42333 8.78314 3.60999 8.78314 3.83333V7.21666H12.1665C12.3898 7.21666 12.5765 7.29333 12.7231 7.43999C12.8731 7.58999 12.9465 7.77666 12.9465 7.99999C12.9465 8.22333 12.8731 8.40999 12.7231 8.55666C12.5731 8.70666 12.3865 8.77999 12.1665 8.77999H8.78314V12.1667C8.78314 12.39 8.70647 12.5767 8.5598 12.7233C8.4098 12.8733 8.22314 12.95 7.9998 12.95Z" fill="#002E40"/>
</svg>
