<svg width="16" height="16" viewBox="0 0 16 16" fill="none" xmlns="http://www.w3.org/2000/svg">
<path d="M8.0001 15.0667C7.13343 15.0667 6.3001 14.9 5.5001 14.5667C4.73343 14.2333 4.03343 13.7667 3.46676 13.2C2.9001 12.6333 2.43343 11.9333 2.1001 11.1667C1.76676 10.4 1.6001 9.56666 1.6001 8.66666C1.6001 7.8 1.76676 6.96666 2.1001 6.16666C2.43343 5.36666 2.9001 4.7 3.46676 4.13333C4.03343 3.56666 4.73343 3.1 5.5001 2.76666C6.26676 2.43333 7.1001 2.26666 8.0001 2.26666C8.86677 2.26666 9.7001 2.43333 10.5001 2.76666C11.2668 3.1 11.9668 3.56666 12.5334 4.16666C13.1001 4.76666 13.5668 5.43333 13.9001 6.2C14.2334 6.96666 14.4001 7.8 14.4001 8.7C14.4001 9.6 14.2334 10.4333 13.9001 11.2C13.5668 11.9667 13.1001 12.6667 12.5001 13.2333C11.9001 13.8 11.2334 14.2667 10.4668 14.6C9.7001 14.9333 8.86677 15.0333 8.0001 15.0667ZM7.46676 5.93333V8.66666C7.46676 8.76666 7.5001 8.86666 7.53343 8.96666C7.56676 9.06666 7.63343 9.13333 7.7001 9.23333L9.53343 11.0333C9.63343 11.1333 9.76676 11.2 9.93343 11.2C10.1001 11.2 10.2334 11.1333 10.3668 11.0333C10.5001 10.9 10.5334 10.7667 10.5334 10.6C10.5334 10.4333 10.4668 10.3 10.3668 10.1667L8.66677 8.46666V5.93333C8.66677 5.76666 8.6001 5.63333 8.5001 5.53333C8.36677 5.43333 8.23343 5.36666 8.06676 5.36666C7.9001 5.36666 7.73343 5.43333 7.63343 5.53333C7.5001 5.6 7.46676 5.76666 7.46676 5.93333ZM1.6001 4.43333C1.46676 4.53333 1.33343 4.6 1.16676 4.6C1.0001 4.6 0.866764 4.53333 0.766764 4.4C0.633431 4.26666 0.600098 4.13333 0.600098 3.96666C0.600098 3.8 0.666764 3.66666 0.766764 3.53333L2.96676 1.4C3.1001 1.33333 3.23343 1.26666 3.4001 1.26666C3.56676 1.26666 3.7001 1.33333 3.83343 1.43333C3.96676 1.56666 4.0001 1.7 4.0001 1.86666C4.0001 2.03333 3.93343 2.16666 3.8001 2.26666L1.6001 4.43333ZM14.4001 4.4L12.1668 2.26666C12.0668 2.16666 12.0001 2.03333 12.0001 1.86666C12.0001 1.7 12.0668 1.56666 12.1668 1.43333C12.2668 1.33333 12.4001 1.26666 12.5668 1.26666C12.7334 1.26666 12.8668 1.33333 13.0001 1.43333L15.2334 3.6C15.3668 3.7 15.4001 3.86666 15.4001 4C15.4001 4.13333 15.3334 4.3 15.2334 4.4C15.1001 4.53333 14.9668 4.6 14.8001 4.6C14.6668 4.6 14.5334 4.53333 14.4001 4.4Z" fill="#002E40"/>
</svg>
