<svg width="16" height="16" viewBox="0 0 16 16" fill="none" xmlns="http://www.w3.org/2000/svg">
<path d="M7.99987 11.2667C8.16654 11.2667 8.29987 11.2 8.39987 11.1C8.5332 11 8.56654 10.8333 8.56654 10.7V9.26666H9.99987C10.1665 9.26666 10.2999 9.2 10.4332 9.1C10.5665 8.96666 10.5999 8.83333 10.5999 8.66666C10.5999 8.5 10.5332 8.36666 10.4332 8.26666C10.3332 8.13333 10.1665 8.1 10.0332 8.1H8.6332V6.7C8.6332 6.53333 8.56654 6.36666 8.46654 6.26666C8.36654 6.16666 8.19987 6.1 8.0332 6.1C7.86654 6.1 7.7332 6.16666 7.6332 6.26666C7.49987 6.36666 7.46654 6.53333 7.46654 6.66666V8.06666H6.09987C5.9332 8.06666 5.76654 8.13333 5.66654 8.23333C5.5332 8.33333 5.49987 8.5 5.49987 8.66666C5.49987 8.83333 5.56654 8.96666 5.66654 9.1C5.76654 9.23333 5.9332 9.26666 6.09987 9.26666H7.49987V10.6667C7.49987 10.8333 7.56654 11 7.66654 11.1C7.66654 11.2 7.8332 11.2667 7.99987 11.2667ZM7.99987 15.0667C7.1332 15.0667 6.29987 14.9 5.49987 14.5667C4.7332 14.2333 4.0332 13.7667 3.46654 13.2C2.89987 12.6333 2.4332 11.9333 2.09987 11.1667C1.76654 10.4 1.59987 9.56666 1.59987 8.66666C1.59987 7.8 1.76654 6.96666 2.09987 6.16666C2.4332 5.36666 2.89987 4.7 3.46654 4.13333C4.0332 3.56666 4.7332 3.1 5.49987 2.76666C6.26654 2.43333 7.09987 2.26666 7.99987 2.26666C8.86654 2.26666 9.69987 2.43333 10.4999 2.76666C11.2665 3.1 11.9665 3.56666 12.5332 4.16666C13.0999 4.76666 13.5665 5.43333 13.8999 6.2C14.2332 6.96666 14.3999 7.8 14.3999 8.7C14.3999 9.6 14.2332 10.4333 13.8999 11.2C13.5665 11.9667 13.0999 12.6667 12.4999 13.2333C11.8999 13.8 11.2332 14.2667 10.4665 14.6C9.69987 14.9333 8.86654 15.0333 7.99987 15.0667ZM1.59987 4.43333C1.46654 4.53333 1.3332 4.6 1.16654 4.6C0.99987 4.6 0.866536 4.53333 0.733203 4.4C0.59987 4.26666 0.533203 4.16666 0.533203 4C0.533203 3.83333 0.59987 3.7 0.69987 3.56666L2.9332 1.43333C3.09987 1.33333 3.2332 1.26666 3.39987 1.26666C3.56654 1.26666 3.69987 1.33333 3.8332 1.43333C3.9332 1.56666 3.99987 1.7 3.99987 1.86666C3.99987 2.03333 3.9332 2.16666 3.8332 2.26666L1.59987 4.43333ZM14.3999 4.4L12.1665 2.26666C12.0665 2.16666 11.9999 2.03333 11.9999 1.86666C11.9999 1.7 12.0665 1.56666 12.1665 1.43333C12.2665 1.33333 12.3999 1.26666 12.5665 1.26666C12.7332 1.26666 12.8665 1.33333 12.9999 1.43333L15.2332 3.56666C15.3332 3.66666 15.3999 3.8 15.3999 3.96666C15.3999 4.13333 15.3332 4.26666 15.2332 4.4C15.1332 4.53333 14.9665 4.6 14.8332 4.6C14.6999 4.6 14.5332 4.53333 14.3999 4.4Z" fill="#66828C"/>
</svg>
