<svg width="16" height="16" viewBox="0 0 16 16" fill="none" xmlns="http://www.w3.org/2000/svg">
<path d="M6.94987 6.13333L4.3332 8.74999C4.12209 8.9611 3.87209 9.06666 3.5832 9.06666C3.29431 9.06666 3.04431 8.9611 2.8332 8.74999C2.6332 8.53888 2.5332 8.28888 2.5332 7.99999C2.5332 7.7111 2.63876 7.4611 2.84987 7.24999L7.24987 2.84999C7.34987 2.74999 7.46654 2.67221 7.59987 2.61666C7.7332 2.5611 7.86654 2.53333 7.99987 2.53333C8.1332 2.53333 8.26654 2.5611 8.39987 2.61666C8.5332 2.67221 8.64987 2.74999 8.74987 2.84999L13.1665 7.26666C13.3776 7.47777 13.4832 7.72499 13.4832 8.00833C13.4832 8.29166 13.3776 8.53888 13.1665 8.74999C12.9554 8.9611 12.7054 9.06666 12.4165 9.06666C12.1276 9.06666 11.8776 8.9611 11.6665 8.74999L9.04987 6.13333V12.85C9.04987 13.1389 8.94709 13.3861 8.74154 13.5917C8.53598 13.7972 8.28876 13.9 7.99987 13.9C7.71098 13.9 7.46376 13.7972 7.2582 13.5917C7.05265 13.3861 6.94987 13.1389 6.94987 12.85V6.13333Z" fill="white"/>
</svg>
