<svg width="16" height="16" viewBox="0 0 16 16" fill="none" xmlns="http://www.w3.org/2000/svg">
<path d="M3.1667 9.04998C2.87781 9.04998 2.63059 8.9472 2.42503 8.74164C2.21948 8.53609 2.1167 8.28886 2.1167 7.99998C2.1167 7.71109 2.21948 7.46386 2.42503 7.25831C2.63059 7.05275 2.87781 6.94998 3.1667 6.94998H7.58337L10.3334 4.19998H10.1834C9.89448 4.19998 9.64726 4.0972 9.4417 3.89164C9.23614 3.68609 9.13337 3.43886 9.13337 3.14998C9.13337 2.86109 9.23614 2.61386 9.4417 2.40831C9.64726 2.20275 9.89448 2.09998 10.1834 2.09998H12.85C13.1389 2.09998 13.3861 2.20275 13.5917 2.40831C13.7973 2.61386 13.9 2.86109 13.9 3.14998V5.81664C13.9 6.10553 13.7973 6.35275 13.5917 6.55831C13.3861 6.76386 13.1389 6.86664 12.85 6.86664C12.5611 6.86664 12.3139 6.76386 12.1084 6.55831C11.9028 6.35275 11.8 6.10553 11.8 5.81664V5.66664L9.03337 8.43331C8.83337 8.63331 8.60559 8.78609 8.35003 8.89164C8.09448 8.9972 7.82781 9.04998 7.55003 9.04998H3.1667ZM10.1834 13.9C9.89448 13.9 9.64726 13.7972 9.4417 13.5916C9.23614 13.3861 9.13337 13.1389 9.13337 12.85C9.13337 12.5611 9.23614 12.3139 9.4417 12.1083C9.64726 11.9028 9.89448 11.8 10.1834 11.8H10.3L9.6667 11.1833C9.45559 10.9722 9.35003 10.7222 9.35003 10.4333C9.35003 10.1444 9.45559 9.89442 9.6667 9.68331C9.87781 9.4722 10.1278 9.36386 10.4167 9.35831C10.7056 9.35275 10.9556 9.45553 11.1667 9.66664L11.8 10.3V10.1833C11.8 9.89442 11.9028 9.6472 12.1084 9.44164C12.3139 9.23609 12.5611 9.13331 12.85 9.13331C13.1389 9.13331 13.3861 9.23609 13.5917 9.44164C13.7973 9.6472 13.9 9.89442 13.9 10.1833V12.85C13.9 13.1389 13.7973 13.3861 13.5917 13.5916C13.3861 13.7972 13.1389 13.9 12.85 13.9H10.1834Z" fill="#66828C"/>
</svg>
