<svg width="16" height="16" viewBox="0 0 16 16" fill="none" xmlns="http://www.w3.org/2000/svg">
<path d="M5.19992 11.2667H8.78325C8.91381 11.2667 9.02978 11.2185 9.13117 11.1221C9.23256 11.0257 9.28325 10.9062 9.28325 10.7637C9.28325 10.6323 9.23256 10.5167 9.13117 10.4167C9.02978 10.3167 8.91381 10.2667 8.78325 10.2667H5.19992C5.05825 10.2667 4.9395 10.3176 4.84367 10.4196C4.74784 10.5215 4.69992 10.641 4.69992 10.7779C4.69992 10.9148 4.74784 11.0305 4.84367 11.125C4.9395 11.2194 5.05825 11.2667 5.19992 11.2667ZM5.19992 8.49998H10.8166C10.9471 8.49998 11.0631 8.45179 11.1645 8.3554C11.2659 8.259 11.3166 8.13956 11.3166 7.99707C11.3166 7.85457 11.2659 7.7361 11.1645 7.64165C11.0631 7.54721 10.9471 7.49998 10.8166 7.49998H5.19992C5.05825 7.49998 4.9395 7.54818 4.84367 7.64457C4.74784 7.74097 4.69992 7.86041 4.69992 8.0029C4.69992 8.1454 4.74784 8.26387 4.84367 8.35832C4.9395 8.45276 5.05825 8.49998 5.19992 8.49998ZM5.20547 5.71665H10.8166C10.9471 5.71665 11.0631 5.66846 11.1645 5.57207C11.2659 5.47567 11.3166 5.35622 11.3166 5.21373C11.3166 5.08235 11.2659 4.96665 11.1645 4.86665C11.0631 4.76665 10.9471 4.71665 10.8166 4.71665H5.20547C5.06224 4.71665 4.94217 4.76762 4.84527 4.86957C4.74837 4.97152 4.69992 5.09097 4.69992 5.2279C4.69992 5.36484 4.74837 5.48054 4.84527 5.57498C4.94217 5.66943 5.06224 5.71665 5.20547 5.71665ZM3.14992 14.4167C2.71603 14.4167 2.34645 14.264 2.04117 13.9587C1.73589 13.6535 1.58325 13.2839 1.58325 12.85V3.14998C1.58325 2.71151 1.73589 2.338 2.04117 2.02947C2.34645 1.72092 2.71603 1.56665 3.14992 1.56665H12.8499C13.2884 1.56665 13.6619 1.72092 13.9704 2.02947C14.279 2.338 14.4333 2.71151 14.4333 3.14998V12.85C14.4333 13.2839 14.279 13.6535 13.9704 13.9587C13.6619 14.264 13.2884 14.4167 12.8499 14.4167H3.14992Z" fill="#66828C"/>
</svg>
