<svg width="16" height="16" viewBox="0 0 16 16" fill="none" xmlns="http://www.w3.org/2000/svg">
<path d="M7.66804 15.1333C6.52259 15.1333 5.54709 14.7386 4.74154 13.9491C3.93598 13.1596 3.5332 12.1988 3.5332 11.0667V3.71667C3.5332 2.89556 3.82049 2.19583 4.39507 1.6175C4.96966 1.03917 5.66605 0.75 6.48424 0.75C7.31354 0.75 8.01514 1.03917 8.58904 1.6175C9.16293 2.19583 9.44987 2.90111 9.44987 3.73333V10.3833C9.44987 10.8833 9.27765 11.3083 8.9332 11.6583C8.58876 12.0083 8.16376 12.1833 7.6582 12.1833C7.15265 12.1833 6.73043 12 6.39154 11.6333C6.05265 11.2667 5.8832 10.8222 5.8832 10.3V3.68333H6.9332V10.35C6.9332 10.5708 7.00434 10.7594 7.14662 10.9156C7.28891 11.0719 7.4628 11.15 7.66829 11.15C7.87379 11.15 8.04709 11.0747 8.1882 10.924C8.32931 10.7733 8.39987 10.5931 8.39987 10.3833V3.71667C8.39987 3.18333 8.21376 2.73333 7.84154 2.36667C7.46931 2 7.01654 1.81667 6.4832 1.81667C5.94987 1.81667 5.49709 2 5.12487 2.36667C4.75265 2.73333 4.56654 3.18333 4.56654 3.71667V11.0942C4.56654 11.9422 4.86863 12.6552 5.4728 13.2331C6.07698 13.811 6.80754 14.1 7.66447 14.1C8.53251 14.1 9.26654 13.8083 9.86654 13.2248C10.4665 12.6413 10.7665 11.92 10.7665 11.0609V3.68333H11.8165V11.05C11.8165 12.1821 11.4115 13.1457 10.6014 13.9407C9.79125 14.7358 8.81347 15.1333 7.66804 15.1333Z" fill="#66828C"/>
</svg>
