<svg width="16" height="16" viewBox="0 0 16 16" fill="none" xmlns="http://www.w3.org/2000/svg">
<path d="M9.83333 5.66663V6.66663C9.83333 7.12691 10.2064 7.49996 10.6667 7.49996C11.127 7.49996 11.5 7.12691 11.5 6.66663V2.99996C11.5 2.53967 11.127 2.16663 10.6667 2.16663C10.2064 2.16663 9.83333 2.53967 9.83333 2.99996V3.99996H3.16667V2.99996C3.16667 2.53967 2.79362 2.16663 2.33333 2.16663C1.87305 2.16663 1.5 2.53967 1.5 2.99996V6.66663C1.5 7.12691 1.87305 7.49996 2.33333 7.49996C2.79362 7.49996 3.16667 7.12691 3.16667 6.66663V5.66663H9.83333Z" fill="#66828C"/>
<path d="M13.6667 8.5C13.2064 8.5 12.8333 8.87305 12.8333 9.33333V10.3333H6.16667V9.33333C6.16667 8.87305 5.79362 8.5 5.33333 8.5C4.87305 8.5 4.5 8.87305 4.5 9.33333V13C4.5 13.4603 4.87305 13.8333 5.33333 13.8333C5.79362 13.8333 6.16667 13.4603 6.16667 13V12H12.8333V13C12.8333 13.4603 13.2064 13.8333 13.6667 13.8333C14.127 13.8333 14.5 13.4603 14.5 13V9.33333C14.5 8.87305 14.127 8.5 13.6667 8.5Z" fill="#66828C"/>
</svg>
