<svg width="16" height="16" viewBox="0 0 16 16" fill="none" xmlns="http://www.w3.org/2000/svg">
<path d="M5.53322 13.0833C5.08877 13.0833 4.71655 12.9305 4.41655 12.625C4.11655 12.3194 3.96655 11.9444 3.96655 11.5V4.48333C3.96655 4.03888 4.11655 3.66388 4.41655 3.35833C4.71655 3.05277 5.08877 2.89999 5.53322 2.89999H8.78322C9.61655 2.89999 10.3166 3.16944 10.8832 3.70833C11.4499 4.24722 11.7332 4.88888 11.7332 5.63333C11.7332 5.96666 11.636 6.34166 11.4416 6.75833C11.2471 7.17499 10.8943 7.49444 10.3832 7.71666V7.84999C11.0166 8.06111 11.4527 8.41111 11.6916 8.89999C11.9304 9.38888 12.0499 9.83333 12.0499 10.2333C12.0499 10.9 11.7693 11.5417 11.2082 12.1583C10.6471 12.775 9.87211 13.0833 8.88322 13.0833H5.53322ZM5.81655 11.5833H8.53322C8.78877 11.5833 9.11377 11.4722 9.50822 11.25C9.90266 11.0278 10.0999 10.6389 10.0999 10.0833C10.0999 9.53888 9.90544 9.15277 9.51655 8.92499C9.12766 8.69722 8.811 8.58333 8.56655 8.58333H5.81655V11.5833ZM5.81655 7.14999H8.41655C8.73877 7.14999 9.05822 7.02222 9.37489 6.76666C9.69155 6.51111 9.84989 6.17777 9.84989 5.76666C9.84989 5.38888 9.70266 5.06111 9.40822 4.78333C9.11377 4.50555 8.77766 4.36666 8.39989 4.36666H5.81655V7.14999Z" fill="#002E40"/>
</svg>
