<svg width="16" height="16" viewBox="0 0 16 16" fill="none" xmlns="http://www.w3.org/2000/svg">
<path d="M7.99984 12.4667L5.09984 13.7C4.57762 13.9222 4.08317 13.8781 3.6165 13.5677C3.14984 13.2573 2.9165 12.818 2.9165 12.25V3.06667C2.9165 2.62819 3.06914 2.25469 3.37442 1.94615C3.6797 1.63761 4.04928 1.48334 4.48317 1.48334H11.5165C11.955 1.48334 12.3285 1.63761 12.637 1.94615C12.9456 2.25469 13.0998 2.62819 13.0998 3.06667V12.25C13.0998 12.818 12.8637 13.2573 12.3915 13.5677C11.9193 13.8781 11.4221 13.9222 10.8998 13.7L7.99984 12.4667ZM7.99984 10.7833L11.5165 12.25V3.06667H4.48317V12.25L7.99984 10.7833ZM7.99984 3.06667H4.48317H11.5165H7.99984Z" fill="#66828C"/>
</svg>
