<svg width="16" height="16" viewBox="0 0 16 16" fill="none" xmlns="http://www.w3.org/2000/svg">
<path d="M8.00023 9.43334C7.76689 9.43334 7.60023 9.36667 7.46689 9.2C7.33356 9.06667 7.23356 8.86667 7.23356 8.66667C7.23356 8.43334 7.30023 8.26667 7.46689 8.13334C7.60023 8 7.80023 7.9 8.00023 7.9C8.23356 7.9 8.40023 7.96667 8.53356 8.13334C8.66689 8.26667 8.76689 8.46667 8.76689 8.66667C8.76689 8.9 8.70023 9.06667 8.53356 9.2C8.40023 9.36667 8.23356 9.43334 8.00023 9.43334ZM5.33356 9.43334C5.10023 9.43334 4.93356 9.36667 4.80023 9.2C4.66689 9.06667 4.56689 8.86667 4.56689 8.66667C4.56689 8.43334 4.63356 8.26667 4.80023 8.13334C4.93356 8 5.13356 7.9 5.33356 7.9C5.56689 7.9 5.73356 7.96667 5.86689 8.13334C6.00023 8.26667 6.10023 8.46667 6.10023 8.66667C6.10023 8.9 6.03356 9.06667 5.86689 9.2C5.73356 9.36667 5.56689 9.43334 5.33356 9.43334ZM10.6669 9.43334C10.4669 9.43334 10.3002 9.36667 10.1336 9.2C9.96689 9.06667 9.90023 8.86667 9.90023 8.66667C9.90023 8.43334 9.96689 8.26667 10.1336 8.13334C10.3002 8 10.4669 7.9 10.6669 7.9C10.8669 7.9 11.0669 7.96667 11.2002 8.13334C11.3669 8.26667 11.4336 8.46667 11.4336 8.66667C11.4336 8.9 11.3669 9.06667 11.2002 9.2C11.0669 9.36667 10.9002 9.43334 10.6669 9.43334ZM8.00023 12.1C7.76689 12.1 7.60023 12.0333 7.46689 11.8667C7.33356 11.7 7.23356 11.5333 7.23356 11.3333C7.23356 11.1333 7.30023 10.9333 7.46689 10.8C7.60023 10.6667 7.80023 10.5667 8.00023 10.5667C8.23356 10.5667 8.40023 10.6333 8.53356 10.8C8.66689 10.9333 8.76689 11.1333 8.76689 11.3333C8.76689 11.5333 8.70023 11.7 8.53356 11.8667C8.40023 12.0333 8.23356 12.1 8.00023 12.1ZM5.33356 12.1C5.10023 12.1 4.93356 12.0333 4.80023 11.8667C4.66689 11.7 4.56689 11.5333 4.56689 11.3333C4.56689 11.1333 4.63356 10.9333 4.80023 10.8C4.93356 10.6667 5.13356 10.5667 5.33356 10.5667C5.56689 10.5667 5.73356 10.6333 5.86689 10.8C6.00023 10.9333 6.10023 11.1333 6.10023 11.3333C6.10023 11.5333 6.03356 11.7 5.86689 11.8667C5.73356 12.0333 5.56689 12.1 5.33356 12.1ZM10.6669 12.1C10.4669 12.1 10.3002 12.0333 10.1336 11.8667C9.96689 11.7 9.90023 11.5333 9.90023 11.3333C9.90023 11.1333 9.96689 10.9333 10.1336 10.8C10.3002 10.6667 10.4669 10.5667 10.6669 10.5667C10.8669 10.5667 11.0669 10.6333 11.2002 10.8C11.3669 10.9333 11.4336 11.1333 11.4336 11.3333C11.4336 11.5333 11.3669 11.7 11.2002 11.8667C11.0669 12.0333 10.9002 12.1 10.6669 12.1ZM3.13356 15.0667C2.70023 15.0667 2.33356 14.9 2.03356 14.6C1.73356 14.3 1.56689 13.9333 1.56689 13.5V3.46667C1.56689 3.03334 1.73356 2.66667 2.03356 2.33334C2.33356 2.03334 2.70023 1.86667 3.13356 1.86667H4.06689V0.866669H5.43356V1.86667H10.5336V0.866669H11.9002V1.86667H12.8336C13.2669 1.86667 13.6336 2.03334 13.9669 2.33334C14.2669 2.63334 14.4336 3 14.4336 3.46667V13.5C14.4336 13.9333 14.2669 14.3 13.9669 14.6C13.6669 14.9 13.3002 15.0667 12.8336 15.0667H3.13356ZM3.13356 13.5H12.8336V6.5H3.13356V13.5Z" fill="#66828C"/>
</svg>
