<svg width="16" height="16" viewBox="0 0 16 16" fill="none" xmlns="http://www.w3.org/2000/svg">
<path d="M14.5683 8.85003H13.1045C12.8683 8.85003 12.6668 8.76787 12.5002 8.60353C12.3335 8.4392 12.2502 8.2392 12.2502 8.00353C12.2502 7.76787 12.3325 7.5667 12.4972 7.40003C12.6619 7.23337 12.8624 7.15003 13.0987 7.15003H14.5625C14.7987 7.15003 15.0002 7.2322 15.1668 7.39653C15.3335 7.56087 15.4168 7.76087 15.4168 7.99653C15.4168 8.2322 15.3345 8.43337 15.1698 8.60003C15.0051 8.7667 14.8046 8.85003 14.5683 8.85003ZM11.3835 11.1834C11.5279 11.0056 11.7168 10.8945 11.9502 10.85C12.1835 10.8056 12.3891 10.85 12.5668 10.9834L13.7515 11.8092C13.9395 11.9475 14.0557 12.1389 14.1002 12.3834C14.1446 12.6278 14.0946 12.8389 13.9502 13.0167C13.8057 13.2056 13.6168 13.3223 13.3835 13.3667C13.1502 13.4111 12.9391 13.3667 12.7502 13.2334L11.5655 12.3909C11.3775 12.2525 11.2641 12.0611 11.2252 11.8167C11.1863 11.5723 11.2391 11.3611 11.3835 11.1834ZM13.7502 4.1667L12.5502 5.0167C12.3724 5.15003 12.1641 5.1917 11.9252 5.1417C11.6863 5.0917 11.5002 4.97781 11.3668 4.80003C11.2335 4.62226 11.1835 4.41392 11.2168 4.17503C11.2502 3.93614 11.3613 3.75003 11.5502 3.6167L12.7668 2.7667C12.9557 2.63337 13.1668 2.58892 13.4002 2.63337C13.6335 2.67781 13.8168 2.79448 13.9502 2.98337C14.0835 3.16114 14.1279 3.36948 14.0835 3.60837C14.0391 3.84725 13.9279 4.03337 13.7502 4.1667ZM2.1835 10.1667H2.2835C1.78683 10.1 1.37933 9.87976 1.061 9.50587C0.742663 9.13198 0.583496 8.6967 0.583496 8.20003V7.80003C0.583496 7.25892 0.775996 6.79587 1.161 6.41087C1.546 6.02587 2.00905 5.83337 2.55016 5.83337H4.50016L7.4335 4.10003C7.76683 3.90003 8.09461 3.88892 8.41683 4.0667C8.73905 4.24448 8.90016 4.52781 8.90016 4.9167V11.0667C8.90016 11.4556 8.73627 11.7389 8.4085 11.9167C8.08072 12.0945 7.75016 12.0834 7.41683 11.8834L4.60016 10.1667H4.65016V12.1275C4.65016 12.4648 4.52905 12.7556 4.28683 13C4.04461 13.2445 3.75461 13.3667 3.41683 13.3667C3.07905 13.3667 2.78905 13.2456 2.54683 13.0034C2.30461 12.7611 2.1835 12.4711 2.1835 12.1334V10.1667ZM9.70016 10.5167V5.48337C10.1224 5.77226 10.4474 6.14448 10.6752 6.60003C10.9029 7.05559 11.0168 7.52226 11.0168 8.00003C11.0168 8.47781 10.9029 8.94448 10.6752 9.40003C10.4474 9.85559 10.1224 10.2278 9.70016 10.5167Z" fill="#002E40"/>
</svg>
