<svg width="16" height="16" viewBox="0 0 16 16" fill="none" xmlns="http://www.w3.org/2000/svg">
<path d="M5.7 11.8333C5.55666 11.6666 5.48 11.4766 5.47666 11.2666C5.47 11.0566 5.54666 10.8733 5.7 10.7166L8.43333 7.98331L5.68333 5.23331C5.53999 5.08997 5.47 4.90331 5.47666 4.67331C5.48333 4.44664 5.55666 4.25997 5.7 4.11331C5.86666 3.94664 6.05333 3.86664 6.25666 3.86997C6.46 3.87331 6.64333 3.95664 6.79666 4.11331L10.1133 7.42997C10.19 7.50664 10.25 7.59331 10.2867 7.68664C10.3267 7.77997 10.3433 7.87664 10.3433 7.97997C10.3433 8.07997 10.3233 8.17664 10.2867 8.27331C10.2467 8.36664 10.19 8.45331 10.1133 8.52997L6.81333 11.83C6.65666 11.9866 6.47333 12.06 6.26333 12.0533C6.05666 12.0533 5.86666 11.9766 5.7 11.8333Z" fill="white"/>
</svg>
