<svg width="16" height="16" viewBox="0 0 16 16" fill="none" xmlns="http://www.w3.org/2000/svg">
<path d="M8.78333 11.8333L5.48333 8.53333C5.40667 8.45666 5.34667 8.37 5.31 8.27666C5.27 8.18333 5.25 8.08333 5.25 7.98333C5.25 7.88333 5.27 7.78666 5.31 7.69C5.35 7.59666 5.40667 7.51 5.48333 7.43333L8.8 4.11666C8.95667 3.96 9.14333 3.88333 9.35667 3.88333C9.57333 3.88333 9.76 3.96 9.91333 4.11666C10.07 4.27333 10.1433 4.46 10.1367 4.68333C10.13 4.90666 10.05 5.09333 9.89333 5.25L7.16 7.98333L9.91 10.7333C10.0667 10.89 10.1433 11.0733 10.1433 11.2833C10.1433 11.4933 10.0667 11.6767 9.91 11.8333C9.75333 11.99 9.56667 12.0667 9.34333 12.0667C9.12667 12.0667 8.94 11.99 8.78333 11.8333Z" fill="#002E40"/>
</svg>
