<svg width="16" height="16" viewBox="0 0 16 16" fill="none" xmlns="http://www.w3.org/2000/svg">
<path d="M8.78333 11.8334L5.48333 8.53336C5.40667 8.4567 5.34667 8.37003 5.31 8.27669C5.27 8.18336 5.25 8.08336 5.25 7.98336C5.25 7.88336 5.27 7.7867 5.31 7.69003C5.35 7.59669 5.40667 7.51003 5.48333 7.43336L8.8 4.1167C8.95667 3.96003 9.14333 3.88336 9.35667 3.88336C9.57333 3.88336 9.76 3.96003 9.91333 4.1167C10.07 4.27336 10.1433 4.46003 10.1367 4.68336C10.13 4.9067 10.05 5.09336 9.89333 5.25003L7.16 7.98336L9.91 10.7334C10.0667 10.89 10.1433 11.0734 10.1433 11.2834C10.1433 11.4934 10.0667 11.6767 9.91 11.8334C9.75333 11.99 9.56667 12.0667 9.34333 12.0667C9.12667 12.0667 8.94 11.99 8.78333 11.8334Z" fill="white"/>
</svg>
