<svg width="16" height="16" viewBox="0 0 16 16" fill="none" xmlns="http://www.w3.org/2000/svg">
<path d="M5.70009 11.8333C5.55675 11.6667 5.48009 11.4767 5.47675 11.2667C5.47009 11.0567 5.54675 10.8733 5.70009 10.7167L8.43342 7.98334L5.68342 5.23334C5.54009 5.09 5.47009 4.90334 5.47675 4.67334C5.48342 4.44667 5.55675 4.26 5.70009 4.11334C5.86675 3.94667 6.05342 3.86667 6.25675 3.87C6.46009 3.87334 6.64342 3.95667 6.79675 4.11334L10.1134 7.43C10.1901 7.50667 10.2501 7.59334 10.2868 7.68667C10.3268 7.78 10.3434 7.87667 10.3434 7.98C10.3434 8.08 10.3234 8.17667 10.2868 8.27334C10.2468 8.36667 10.1901 8.45334 10.1134 8.53L6.81342 11.83C6.65675 11.9867 6.47342 12.06 6.26342 12.0533C6.05675 12.0533 5.86675 11.9767 5.70009 11.8333Z" fill="#66828C"/>
</svg>
