<svg width="16" height="16" viewBox="0 0 16 16" fill="none" xmlns="http://www.w3.org/2000/svg">
<path d="M5.9002 11.5667L2.96686 14.5C2.76686 14.7 2.52242 14.8 2.23353 14.8C1.94464 14.8 1.7002 14.7 1.5002 14.5C1.3002 14.3 1.2002 14.0556 1.2002 13.7667C1.2002 13.4778 1.3002 13.2333 1.5002 13.0333L4.43353 10.1H3.1502C2.86131 10.1 2.61408 9.99723 2.40853 9.79168C2.20297 9.58612 2.1002 9.3389 2.1002 9.05001C2.1002 8.76112 2.20297 8.5139 2.40853 8.30835C2.61408 8.10279 2.86131 8.00001 3.1502 8.00001H6.95019C7.23908 8.00001 7.48631 8.10279 7.69186 8.30835C7.89742 8.5139 8.00019 8.76112 8.00019 9.05001V12.85C8.00019 13.1389 7.89742 13.3861 7.69186 13.5917C7.48631 13.7972 7.23908 13.9 6.95019 13.9C6.66131 13.9 6.41408 13.7972 6.20853 13.5917C6.00297 13.3861 5.9002 13.1389 5.9002 12.85V11.5667ZM11.5669 5.90001H12.8502C13.1391 5.90001 13.3863 6.00279 13.5919 6.20835C13.7974 6.4139 13.9002 6.66112 13.9002 6.95001C13.9002 7.2389 13.7974 7.48612 13.5919 7.69168C13.3863 7.89723 13.1391 8.00001 12.8502 8.00001H9.05019C8.76131 8.00001 8.51408 7.89723 8.30853 7.69168C8.10297 7.48612 8.00019 7.2389 8.00019 6.95001V3.15001C8.00019 2.86112 8.10297 2.6139 8.30853 2.40835C8.51408 2.20279 8.76131 2.10001 9.05019 2.10001C9.33908 2.10001 9.58631 2.20279 9.79186 2.40835C9.99742 2.6139 10.1002 2.86112 10.1002 3.15001V4.43335L13.0335 1.50001C13.2335 1.30001 13.478 1.20001 13.7669 1.20001C14.0558 1.20001 14.3002 1.30001 14.5002 1.50001C14.7002 1.70001 14.8002 1.94446 14.8002 2.23335C14.8002 2.52223 14.7002 2.76668 14.5002 2.96668L11.5669 5.90001Z" fill="#66828C"/>
</svg>
