<svg width="16" height="16" viewBox="0 0 16 16" fill="none" xmlns="http://www.w3.org/2000/svg">
<path d="M8.00003 9.1L4.70003 12.4C4.54448 12.5556 4.36114 12.6333 4.15003 12.6333C3.93892 12.6333 3.75559 12.5556 3.60003 12.4C3.44448 12.2444 3.3667 12.0611 3.3667 11.85C3.3667 11.6389 3.44448 11.4556 3.60003 11.3L6.90003 8L3.60003 4.7C3.44448 4.54445 3.3667 4.36111 3.3667 4.15C3.3667 3.93889 3.44448 3.75556 3.60003 3.6C3.75559 3.44445 3.93892 3.36667 4.15003 3.36667C4.36114 3.36667 4.54448 3.44445 4.70003 3.6L8.00003 6.9L11.3 3.6C11.4556 3.44445 11.6389 3.36667 11.85 3.36667C12.0611 3.36667 12.2445 3.44445 12.4 3.6C12.5556 3.75556 12.6334 3.93889 12.6334 4.15C12.6334 4.36111 12.5556 4.54445 12.4 4.7L9.10003 8L12.4 11.3C12.5556 11.4556 12.6334 11.6389 12.6334 11.85C12.6334 12.0611 12.5556 12.2444 12.4 12.4C12.2445 12.5556 12.0611 12.6333 11.85 12.6333C11.6389 12.6333 11.4556 12.5556 11.3 12.4L8.00003 9.1Z" fill="#CB0000"/>
</svg>
