<svg width="16" height="16" viewBox="0 0 16 16" fill="none" xmlns="http://www.w3.org/2000/svg">
<path d="M11.3669 11.8667C11.2002 12.0333 11.0336 12.1 10.8002 12.1C10.6002 12.1 10.4002 12 10.2669 11.8667C10.1002 11.7 10.0336 11.5333 10.0336 11.3C10.0336 11.0667 10.1002 10.9 10.2669 10.7333L13.0002 8.00001L10.2669 5.26668C10.1002 5.10001 10.0336 4.93334 10.0336 4.70001C10.0336 4.46668 10.1336 4.30001 10.2669 4.13334C10.4336 3.96668 10.6002 3.90001 10.8336 3.90001C11.0669 3.90001 11.2336 3.96668 11.4002 4.13334L14.6669 7.40001C14.8336 7.56668 14.9002 7.73334 14.9002 7.93334C14.9002 8.13334 14.8336 8.33334 14.6669 8.46668L11.3669 11.8667ZM4.60023 11.7667L1.30023 8.50001C1.13356 8.33334 1.06689 8.16668 1.06689 7.96668C1.06689 7.76668 1.13356 7.56668 1.30023 7.43334L4.63356 4.06668C4.80023 3.90001 4.96689 3.83334 5.20023 3.83334C5.43356 3.83334 5.60023 3.90001 5.76689 4.06668C5.90023 4.23334 5.96689 4.40001 5.96689 4.63334C5.96689 4.86668 5.90023 5.03334 5.76689 5.16668L3.00023 7.96668L5.70023 10.6667C5.86689 10.8333 5.93356 11.0333 5.93356 11.2333C5.93356 11.4333 5.86689 11.6333 5.70023 11.8C5.53356 11.9667 5.33356 12.0333 5.13356 12.0333C4.93356 12.0333 4.76689 11.9333 4.60023 11.7667Z" fill="#002E40"/>
</svg>
