<svg width="16" height="16" viewBox="0 0 16 16" fill="none" xmlns="http://www.w3.org/2000/svg">
<path d="M11.8291 9.58203C11.8291 9.85547 11.7617 10.1514 11.6269 10.4697C11.4922 10.7881 11.2803 11.1006 10.9912 11.4072C10.7021 11.7139 10.333 11.9629 9.88379 12.1543C9.43457 12.3457 8.91113 12.4836 8.31348 12.4836C7.86036 12.4836 7.44825 12.4406 7.07715 12.3547C6.70605 12.2687 6.35862 12.1105 6.05589 11.9288C5.75316 11.7472 5.48536 11.4902 5.23145 11.1934C5.00489 10.9238 4.81153 10.6221 4.65137 10.2881C4.49121 9.95411 4.37109 9.59766 4.29102 9.21875C4.21095 8.83984 4.1709 8.4375 4.1709 8.01172C4.1709 7.32031 4.27149 6.70117 4.47266 6.1543C4.67383 5.60743 4.96192 5.13965 5.33692 4.75098C5.71192 4.36231 6.15137 4.06641 6.65528 3.86328C7.15919 3.66015 7.69629 3.55859 8.2666 3.55859C8.96191 3.55859 9.58105 3.69726 10.124 3.97461C10.667 4.25196 11.083 4.59473 11.3721 5.00293C11.6611 5.41113 11.8057 5.79688 11.8057 6.16016C11.8057 6.35938 11.7353 6.53516 11.5947 6.6875C11.4541 6.83984 11.2842 6.91602 11.0849 6.91602C10.8623 6.91602 10.6953 6.86329 10.584 6.75782C10.4726 6.65235 10.3486 6.47071 10.2119 6.2129C9.98534 5.78712 9.71874 5.46876 9.4121 5.25782C9.10546 5.04688 8.72754 4.94141 8.27832 4.94141C7.56348 4.94141 6.99414 5.21289 6.57031 5.75586C6.14648 6.29883 5.93457 7.07031 5.93457 8.07031C5.93457 8.73828 6.02832 9.29394 6.21582 9.7373C6.40332 10.1807 6.66894 10.5117 7.0127 10.7305C7.35646 10.9492 7.75879 11.0586 8.21973 11.0586C8.71973 11.0586 9.14258 10.9346 9.48828 10.6865C9.83398 10.4385 10.0947 10.0742 10.2705 9.59374C10.3447 9.36718 10.4365 9.18261 10.5459 9.04003C10.6553 8.89745 10.8311 8.82616 11.0732 8.82616C11.2803 8.82616 11.458 8.89843 11.6064 9.04296C11.7549 9.18749 11.8291 9.36719 11.8291 9.58203Z" fill="#002E40"/>
</svg>
