<svg width="16" height="16" viewBox="0 0 16 16" fill="none" xmlns="http://www.w3.org/2000/svg">
<path d="M11.9335 13.6834L8.95015 10.7L10.7002 8.93335L13.7002 11.9334C13.9446 12.1778 14.0668 12.4695 14.0668 12.8084C14.0668 13.1472 13.9446 13.4389 13.7002 13.6834C13.4557 13.9278 13.1613 14.05 12.8168 14.05C12.4724 14.05 12.1779 13.9278 11.9335 13.6834ZM2.30015 13.6834C2.05571 13.4389 1.93349 13.1445 1.93349 12.8C1.93349 12.4556 2.05571 12.1611 2.30015 11.9167L6.23349 7.98335L5.05015 6.80002C4.92793 6.92224 4.77515 6.98335 4.59182 6.98335C4.40849 6.98335 4.25015 6.92224 4.11682 6.80002L3.96682 6.66668V7.70002C3.96682 7.93335 3.85849 8.09446 3.64182 8.18335C3.42515 8.27224 3.23349 8.23335 3.06682 8.06668L1.20015 6.20002C1.03349 6.03335 0.994597 5.84168 1.08349 5.62502C1.17238 5.40835 1.33349 5.30002 1.56682 5.30002H2.60015C2.43349 5.13335 2.35293 4.93057 2.35849 4.69168C2.36404 4.45279 2.45015 4.25002 2.61682 4.08335L4.55015 2.15002C4.7946 1.90557 5.0696 1.72502 5.37515 1.60835C5.68071 1.49168 5.98904 1.43335 6.30015 1.43335C6.50015 1.43335 6.7196 1.46113 6.95849 1.51668C7.19737 1.57224 7.40015 1.66113 7.56682 1.78335C7.70015 1.87224 7.77237 1.99724 7.78349 2.15835C7.7946 2.31946 7.73904 2.46113 7.61682 2.58335L6.43349 3.76668L6.78349 4.11668C6.90571 4.23891 6.96682 4.39446 6.96682 4.58335C6.96682 4.77224 6.90571 4.92779 6.78349 5.05002L7.98349 6.25002L9.46682 4.76668C9.43349 4.65557 9.40571 4.53613 9.38349 4.40835C9.36126 4.28057 9.35015 4.15557 9.35015 4.03335C9.35015 3.31113 9.60015 2.69724 10.1002 2.19168C10.6002 1.68613 11.2113 1.43335 11.9335 1.43335C12.0446 1.43335 12.1529 1.44168 12.2585 1.45835C12.364 1.47502 12.4668 1.49446 12.5668 1.51668C12.7113 1.57224 12.7974 1.67779 12.8252 1.83335C12.8529 1.98891 12.8113 2.12224 12.7002 2.23335L11.8835 3.06668C11.7835 3.16668 11.7335 3.28891 11.7335 3.43335C11.7335 3.57779 11.7835 3.70002 11.8835 3.80002L12.1668 4.08335C12.2668 4.18335 12.389 4.23335 12.5335 4.23335C12.6779 4.23335 12.8002 4.18335 12.9002 4.08335L13.7335 3.25002C13.8557 3.12779 13.9946 3.08057 14.1502 3.10835C14.3057 3.13613 14.4168 3.22779 14.4835 3.38335C14.5168 3.49446 14.539 3.60279 14.5502 3.70835C14.5613 3.81391 14.5668 3.92224 14.5668 4.03335C14.5668 4.75557 14.3085 5.36668 13.7918 5.86668C13.2752 6.36668 12.6557 6.61668 11.9335 6.61668C11.8113 6.61668 11.6918 6.60557 11.5752 6.58335C11.4585 6.56113 11.3446 6.53335 11.2335 6.50002L4.06682 13.6834C3.82237 13.9278 3.52793 14.05 3.18349 14.05C2.83904 14.05 2.5446 13.9278 2.30015 13.6834Z" fill="#002E40"/>
</svg>
