<svg width="16" height="16" viewBox="0 0 16 16" fill="none" xmlns="http://www.w3.org/2000/svg">
<path d="M2.05 7.46667C1.76111 7.46667 1.51389 7.36389 1.30833 7.15833C1.10278 6.95278 1 6.70556 1 6.41667V2.05C1 1.76111 1.10278 1.51389 1.30833 1.30833C1.51389 1.10278 1.76111 1 2.05 1H6.41667C6.70556 1 6.95278 1.10278 7.15833 1.30833C7.36389 1.51389 7.46667 1.76111 7.46667 2.05V6.41667C7.46667 6.70556 7.36389 6.95278 7.15833 7.15833C6.95278 7.36389 6.70556 7.46667 6.41667 7.46667H2.05ZM9.58333 7.46667C9.29444 7.46667 9.04722 7.36389 8.84167 7.15833C8.63611 6.95278 8.53333 6.70556 8.53333 6.41667V2.05C8.53333 1.76111 8.63611 1.51389 8.84167 1.30833C9.04722 1.10278 9.29444 1 9.58333 1H13.95C14.2389 1 14.4861 1.10278 14.6917 1.30833C14.8972 1.51389 15 1.76111 15 2.05V6.41667C15 6.70556 14.8972 6.95278 14.6917 7.15833C14.4861 7.36389 14.2389 7.46667 13.95 7.46667H9.58333ZM2.05 15C1.76111 15 1.51389 14.8972 1.30833 14.6917C1.10278 14.4861 1 14.2389 1 13.95V9.58333C1 9.29444 1.10278 9.04722 1.30833 8.84167C1.51389 8.63611 1.76111 8.53333 2.05 8.53333H6.41667C6.70556 8.53333 6.95278 8.63611 7.15833 8.84167C7.36389 9.04722 7.46667 9.29444 7.46667 9.58333V13.95C7.46667 14.2389 7.36389 14.4861 7.15833 14.6917C6.95278 14.8972 6.70556 15 6.41667 15H2.05ZM11.7667 15C11.4778 15 11.2306 14.8972 11.025 14.6917C10.8194 14.4861 10.7167 14.2389 10.7167 13.95V12.8167H9.56667C9.27778 12.8167 9.03333 12.7139 8.83333 12.5083C8.63333 12.3028 8.53333 12.0556 8.53333 11.7667C8.53333 11.4778 8.63611 11.2306 8.84167 11.025C9.04722 10.8194 9.29444 10.7167 9.58333 10.7167H10.7167V9.56667C10.7167 9.27778 10.8194 9.03333 11.025 8.83333C11.2306 8.63333 11.4778 8.53333 11.7667 8.53333C12.0556 8.53333 12.3028 8.63611 12.5083 8.84167C12.7139 9.04722 12.8167 9.29444 12.8167 9.58333V10.7167H13.9667C14.2556 10.7167 14.5 10.8194 14.7 11.025C14.9 11.2306 15 11.4778 15 11.7667C15 12.0556 14.8972 12.3028 14.6917 12.5083C14.4861 12.7139 14.2389 12.8167 13.95 12.8167H12.8167V13.9667C12.8167 14.2556 12.7139 14.5 12.5083 14.7C12.3028 14.9 12.0556 15 11.7667 15Z" fill="#66828C"/>
</svg>
