<svg width="16" height="16" viewBox="0 0 16 16" fill="none" xmlns="http://www.w3.org/2000/svg">
<path d="M7.21659 14.9L2.36659 12.1167C2.10825 11.9675 1.91311 11.7707 1.78117 11.5264C1.64922 11.282 1.58325 11.0232 1.58325 10.75V5.25003C1.58325 4.97685 1.64922 4.71807 1.78117 4.4737C1.91311 4.22932 2.10825 4.03254 2.36659 3.88336L7.21659 1.08336C7.46467 0.950028 7.7267 0.883362 8.00265 0.883362C8.27861 0.883362 8.53881 0.950028 8.78325 1.08336L13.6333 3.88336C13.8916 4.03254 14.0895 4.22932 14.227 4.4737C14.3645 4.71807 14.4333 4.97685 14.4333 5.25003V10.75C14.4333 11.0232 14.3645 11.282 14.227 11.5264C14.0895 11.7707 13.8916 11.9675 13.6333 12.1167L8.78325 14.9C8.53516 15.0445 8.27314 15.1167 7.99719 15.1167C7.72123 15.1167 7.46103 15.0445 7.21659 14.9ZM7.28325 8.40628V13.1167L7.99992 13.5334L8.73325 13.1167V8.40358L12.8499 6.00003V5.25028L12.0499 4.80003L7.99992 7.1667L3.93325 4.80003L3.14992 5.24456V6.0167L7.28325 8.40628Z" fill="#66828C"/>
</svg>
