<svg width="16" height="16" viewBox="0 0 16 16" fill="none" xmlns="http://www.w3.org/2000/svg">
<path d="M3.63337 11.8333C3.4667 11.6778 3.38337 11.4944 3.38337 11.2833C3.38337 11.0722 3.4667 10.8889 3.63337 10.7333L6.38337 7.98332L3.6167 5.23332C3.45003 5.07777 3.37225 4.89721 3.38337 4.69166C3.39448 4.4861 3.47781 4.30555 3.63337 4.14999C3.78892 3.99443 3.96948 3.91666 4.17503 3.91666C4.38059 3.91666 4.5667 3.99443 4.73337 4.14999L8.0167 7.43332C8.09448 7.5111 8.15281 7.59721 8.1917 7.69166C8.23059 7.7861 8.25003 7.88332 8.25003 7.98332C8.25003 8.08332 8.23059 8.18332 8.1917 8.28332C8.15281 8.38332 8.09448 8.47221 8.0167 8.54999L4.7167 11.85C4.55003 12.0055 4.36392 12.0805 4.15837 12.075C3.95281 12.0694 3.77781 11.9889 3.63337 11.8333ZM8.00003 11.8333C7.83337 11.6778 7.75003 11.4944 7.75003 11.2833C7.75003 11.0722 7.83337 10.8889 8.00003 10.7333L10.75 7.98332L7.98337 5.23332C7.8167 5.07777 7.73892 4.89721 7.75003 4.69166C7.76114 4.4861 7.84448 4.30555 8.00003 4.14999C8.15559 3.99443 8.33614 3.91666 8.5417 3.91666C8.74725 3.91666 8.93337 3.99443 9.10003 4.14999L12.3834 7.43332C12.4611 7.5111 12.5195 7.59721 12.5584 7.69166C12.5973 7.7861 12.6167 7.88332 12.6167 7.98332C12.6167 8.08332 12.5973 8.18332 12.5584 8.28332C12.5195 8.38332 12.4611 8.47221 12.3834 8.54999L9.08337 11.85C8.9167 12.0055 8.73059 12.0805 8.52503 12.075C8.31948 12.0694 8.14448 11.9889 8.00003 11.8333Z" fill="#002E40"/>
</svg>
