<svg width="16" height="16" viewBox="0 0 16 16" fill="none" xmlns="http://www.w3.org/2000/svg">
<path d="M7.99992 10.1333C7.89992 10.1333 7.79992 10.1 7.69992 10.0667C7.59992 10.0333 7.53325 9.96667 7.43325 9.90001L4.73325 7.20001C4.56659 7.03334 4.49992 6.86667 4.49992 6.63334C4.49992 6.43334 4.59992 6.23334 4.73325 6.06667C4.86659 5.90001 5.06659 5.83334 5.26659 5.83334C5.46659 5.83334 5.66659 5.90001 5.83325 6.06667L7.16659 7.43334V2.26667C7.16659 2.03334 7.23325 1.86667 7.39992 1.70001C7.56659 1.53334 7.73325 1.46667 7.96659 1.46667C8.19992 1.46667 8.36659 1.53334 8.53325 1.70001C8.66659 1.86667 8.76659 2.03334 8.76659 2.26667V7.43334L10.1333 6.06667C10.2999 5.90001 10.4666 5.83334 10.6999 5.83334C10.8999 5.83334 11.0999 5.90001 11.2333 6.06667C11.3999 6.23334 11.4666 6.40001 11.4666 6.63334C11.4666 6.86667 11.3999 7.03334 11.2333 7.20001L8.53325 9.90001C8.46659 9.96667 8.36659 10.0333 8.26659 10.0667C8.19992 10.1 8.09992 10.1333 7.99992 10.1333ZM3.39992 14.1333C2.96659 14.1333 2.59992 13.9667 2.29992 13.6667C1.99992 13.3667 1.83325 12.9667 1.83325 12.5333V10.2C1.83325 9.96667 1.89992 9.80001 2.06659 9.63334C2.23325 9.46667 2.39992 9.40001 2.63325 9.40001C2.86659 9.40001 3.03325 9.46667 3.19992 9.63334C3.36659 9.80001 3.43325 9.96667 3.43325 10.2V12.5667H12.5999V10.2C12.5999 9.96667 12.6666 9.80001 12.8333 9.63334C12.9999 9.46667 13.1666 9.40001 13.3999 9.40001C13.6333 9.40001 13.7999 9.46667 13.9666 9.63334C14.0999 9.80001 14.1999 9.96667 14.1999 10.2V12.5667C14.1999 13 14.0333 13.3667 13.7333 13.7C13.4333 14 13.0666 14.1667 12.6333 14.1667H3.39992V14.1333Z" fill="#002E40"/>
</svg>
