<svg width="16" height="16" viewBox="0 0 16 16" fill="none" xmlns="http://www.w3.org/2000/svg">
<g clip-path="url(#clip0_3230_1177)">
<path d="M7.21657 8.78336H3.63324L4.16657 9.33336C4.32212 9.48844 4.3999 9.6772 4.3999 9.89966C4.3999 10.1221 4.32212 10.3111 4.16657 10.4667C4.01101 10.6222 3.822 10.7 3.59954 10.7C3.37708 10.7 3.18831 10.6222 3.03324 10.4667L1.13324 8.56669C0.97768 8.40306 0.899902 8.21215 0.899902 7.99396C0.899902 7.77578 0.97768 7.58891 1.13324 7.43336L3.0499 5.51669C3.2062 5.36114 3.39527 5.28336 3.61712 5.28336C3.83897 5.28336 4.02768 5.36114 4.18324 5.51669C4.33879 5.67225 4.41657 5.86095 4.41657 6.08281C4.41657 6.30465 4.33879 6.49372 4.18324 6.65002L3.63324 7.21669H7.21657V3.61669L6.66657 4.16669C6.50899 4.32225 6.3196 4.40002 6.09839 4.40002C5.87717 4.40002 5.68879 4.32225 5.53324 4.16669C5.37768 4.01114 5.2999 3.82243 5.2999 3.60057C5.2999 3.37873 5.37768 3.18966 5.53324 3.03336L7.43324 1.13336C7.59687 0.977802 7.78778 0.900024 8.00597 0.900024C8.22415 0.900024 8.41101 0.977802 8.56657 1.13336L10.4666 3.03336C10.6221 3.19094 10.6999 3.38033 10.6999 3.60154C10.6999 3.82275 10.6221 4.01114 10.4666 4.16669C10.311 4.32225 10.1223 4.40002 9.90045 4.40002C9.67861 4.40002 9.48954 4.32225 9.33324 4.16669L8.78324 3.61669V7.21669H12.3832L11.8332 6.66669C11.6777 6.51162 11.5999 6.32286 11.5999 6.10039C11.5999 5.87792 11.6777 5.68891 11.8332 5.53336C11.9888 5.3778 12.1778 5.30002 12.4003 5.30002C12.6227 5.30002 12.8115 5.3778 12.9666 5.53336L14.8666 7.43336C15.0221 7.59699 15.0999 7.7879 15.0999 8.00609C15.0999 8.22427 15.0221 8.41114 14.8666 8.56669L12.9666 10.4667C12.8103 10.6222 12.6212 10.7 12.3994 10.7C12.1775 10.7 11.9888 10.6222 11.8332 10.4667C11.6777 10.3067 11.5999 10.1198 11.5999 9.90614C11.5999 9.69243 11.6777 9.50706 11.8332 9.35002L12.3832 8.78336H8.78324V12.3667L9.43324 11.75C9.58541 11.5945 9.77068 11.5167 9.98904 11.5167C10.2074 11.5167 10.3943 11.5945 10.5499 11.75C10.7055 11.9056 10.7832 12.0946 10.7832 12.3171C10.7832 12.5395 10.7055 12.7283 10.5499 12.8834L8.56657 14.8667C8.40294 15.0222 8.21202 15.1 7.99384 15.1C7.77566 15.1 7.58879 15.0222 7.43324 14.8667L5.4499 12.8834C5.29435 12.7271 5.21657 12.538 5.21657 12.3161C5.21657 12.0943 5.29435 11.9056 5.4499 11.75C5.60546 11.5945 5.79416 11.5167 6.01602 11.5167C6.23786 11.5167 6.42694 11.5945 6.58324 11.75L7.21657 12.3667V8.78336Z" fill="#66828C"/>
</g>
<defs>
<clipPath id="clip0_3230_1177">
<rect width="16" height="16" fill="white"/>
</clipPath>
</defs>
</svg>
