<svg width="16" height="16" viewBox="0 0 16 16" fill="none" xmlns="http://www.w3.org/2000/svg">
<path d="M13.6407 7.52973H2.35938C1.97 7.52973 1.6543 7.21403 1.6543 6.82465C1.6543 6.43527 1.97 6.11957 2.35938 6.11957H13.6407C14.0304 6.11957 14.3457 6.43527 14.3457 6.82465C14.3457 7.21403 14.0304 7.52973 13.6407 7.52973Z" fill="#002E40"/>
<path d="M10.1152 4.59235C9.93485 4.59235 9.75445 4.5235 9.61673 4.38579L8.00001 2.76906L6.38328 4.38579C6.10786 4.66121 5.66167 4.66121 5.38625 4.38579C5.11083 4.11037 5.11083 3.66418 5.38625 3.38876L7.50149 1.27352C7.77691 0.998101 8.2231 0.998101 8.49852 1.27352L10.6138 3.38876C10.8892 3.66418 10.8892 4.11037 10.6138 4.38579C10.476 4.5235 10.2956 4.59235 10.1152 4.59235Z" fill="#002E40"/>
<path d="M8.00001 14.9331C7.81961 14.9331 7.63921 14.8642 7.50149 14.7265L5.38625 12.6112C5.11083 12.3358 5.11083 11.8896 5.38625 11.6142C5.66167 11.3388 6.10786 11.3388 6.38328 11.6142L8.00001 13.2309L9.61673 11.6142C9.89215 11.3388 10.3383 11.3388 10.6138 11.6142C10.8892 11.8896 10.8892 12.3358 10.6138 12.6112L8.49852 14.7265C8.36081 14.8642 8.18041 14.9331 8.00001 14.9331Z" fill="#002E40"/>
<path d="M13.6407 10.35H2.35938C1.97 10.35 1.6543 10.0347 1.6543 9.64496C1.6543 9.25524 1.97 8.93988 2.35938 8.93988H13.6407C14.0304 8.93988 14.3457 9.25524 14.3457 9.64496C14.3457 10.0347 14.0304 10.35 13.6407 10.35Z" fill="#002E40"/>
</svg>
