<svg width="16" height="16" viewBox="0 0 16 16" fill="none" xmlns="http://www.w3.org/2000/svg">
<path d="M7.51667 10.1H8.48333C8.61389 10.1 8.71875 10.0521 8.79792 9.95626C8.87708 9.86043 8.90556 9.75279 8.88333 9.63334L8.53333 7.63334C8.74961 7.5094 8.9259 7.35079 9.06222 7.15753C9.19852 6.96425 9.26667 6.74508 9.26667 6.50001C9.26667 6.14584 9.14395 5.84619 8.89852 5.60104C8.65309 5.35591 8.35309 5.23334 7.99852 5.23334C7.64395 5.23334 7.34444 5.35591 7.1 5.60104C6.85556 5.84619 6.73333 6.14584 6.73333 6.50001C6.73333 6.74508 6.80148 6.96425 6.93778 7.15753C7.07409 7.35079 7.25039 7.5094 7.46667 7.63334L7.13333 9.63334C7.1 9.75279 7.12292 9.86043 7.20208 9.95626C7.28125 10.0521 7.38611 10.1 7.51667 10.1ZM8 15C7.90756 15 7.81933 14.9917 7.73533 14.975C7.65133 14.9583 7.57289 14.9333 7.5 14.9C5.9 14.3778 4.625 13.3917 3.675 11.9417C2.725 10.4917 2.25 8.93831 2.25 7.28158V4.13334C2.25 3.79715 2.34097 3.4907 2.52292 3.21398C2.70486 2.93724 2.95278 2.7437 3.26667 2.63334L7.45 1.06667C7.62778 1.00001 7.81111 0.966675 8 0.966675C8.18889 0.966675 8.37222 1.00001 8.55 1.06667L12.7333 2.63334C13.0472 2.7437 13.2979 2.93724 13.4854 3.21398C13.6729 3.4907 13.7667 3.79715 13.7667 4.13334V7.28158C13.7667 8.93831 13.2889 10.4917 12.3333 11.9417C11.3778 13.3917 10.1 14.3778 8.5 14.9C8.42711 14.9333 8.34867 14.9583 8.26467 14.975C8.18067 14.9917 8.09244 15 8 15Z" fill="#66828C"/>
</svg>
