<svg width="16" height="16" viewBox="0 0 16 16" fill="none" xmlns="http://www.w3.org/2000/svg">
<path d="M6.14992 14.4167H2.99992C2.62186 14.4167 2.29124 14.2751 2.00805 13.9919C1.72485 13.7087 1.58325 13.3725 1.58325 12.9833V9.83334C1.97214 9.77778 2.3027 9.60278 2.57492 9.30834C2.84714 9.01389 2.98325 8.66667 2.98325 8.26667C2.98325 7.86667 2.84714 7.51945 2.57492 7.225C2.3027 6.93056 1.97214 6.76111 1.58325 6.71667V3.55C1.58325 3.17195 1.72485 2.84132 2.00805 2.55812C2.29124 2.27493 2.62186 2.13334 2.99992 2.13334H5.58325C5.79436 1.63334 6.08603 1.23334 6.45825 0.933337C6.83047 0.633337 7.25547 0.483337 7.73325 0.483337C8.21103 0.483337 8.64158 0.633337 9.02492 0.933337C9.40825 1.23334 9.70547 1.63334 9.91658 2.13334H12.4499C12.828 2.13334 13.1586 2.27493 13.4418 2.55812C13.725 2.84132 13.8666 3.17195 13.8666 3.55V6.08334C14.3666 6.29445 14.761 6.6 15.0499 7C15.3388 7.4 15.4833 7.83889 15.4833 8.31667C15.4833 8.79445 15.3388 9.21389 15.0499 9.575C14.761 9.93611 14.3666 10.2222 13.8666 10.4333V13C13.8666 13.3781 13.725 13.7087 13.4418 13.9919C13.1586 14.2751 12.828 14.4167 12.4499 14.4167H9.29992C9.23325 13.9389 9.05131 13.5556 8.75408 13.2667C8.45686 12.9778 8.11103 12.8333 7.71658 12.8333C7.33325 12.8333 6.9902 12.9785 6.68742 13.2688C6.38464 13.559 6.20547 13.9417 6.14992 14.4167Z" fill="#66828C"/>
</svg>
