<svg width="16" height="16" viewBox="0 0 16 16" fill="none" xmlns="http://www.w3.org/2000/svg">
<path d="M3.4332 12.5667L2.71854 13.2813C2.40609 13.5938 2.04709 13.6662 1.64154 13.4985C1.23598 13.3307 1.0332 13.0312 1.0332 12.6V2.99999C1.0332 2.44777 1.22293 1.98194 1.60237 1.60249C1.98181 1.22305 2.44765 1.03333 2.99987 1.03333H12.9999C13.5521 1.03333 14.0179 1.22305 14.3974 1.60249C14.7768 1.98194 14.9665 2.44777 14.9665 2.99999V10.6C14.9665 11.1522 14.7768 11.618 14.3974 11.9975C14.0179 12.3769 13.5521 12.5667 12.9999 12.5667H3.4332ZM7.39637 9.43333C7.46959 9.59999 7.58848 9.71505 7.75304 9.77849C7.91759 9.84194 8.0832 9.83916 8.24987 9.77016C8.41654 9.70116 8.53543 9.58333 8.60654 9.41666C8.67765 9.24999 8.67659 9.08333 8.60337 8.91666C8.53026 8.74999 8.41137 8.6311 8.2467 8.55999C8.08215 8.48888 7.91654 8.48994 7.74987 8.56316C7.5832 8.63216 7.46431 8.75277 7.3932 8.92499C7.32209 9.09721 7.32315 9.26666 7.39637 9.43333ZM7.99637 8.13333C8.20315 8.13333 8.37765 8.06305 8.51987 7.92249C8.66209 7.78194 8.7332 7.60777 8.7332 7.39999V4.33333C8.7332 4.12555 8.66326 3.95138 8.52337 3.81083C8.38348 3.67027 8.21015 3.59999 8.00337 3.59999C7.79659 3.59999 7.62209 3.67027 7.47987 3.81083C7.33765 3.95138 7.26654 4.12555 7.26654 4.33333V7.39999C7.26654 7.60777 7.33648 7.78194 7.47637 7.92249C7.61626 8.06305 7.78959 8.13333 7.99637 8.13333Z" fill="#002E40"/>
</svg>
