<svg width="16" height="16" viewBox="0 0 16 16" fill="none" xmlns="http://www.w3.org/2000/svg">
<path d="M12.9 12.4167H6.23335C5.64446 12.4167 5.14723 12.2139 4.74168 11.8083C4.33612 11.4028 4.13335 10.9055 4.13335 10.3167V2.24999C4.13335 1.66111 4.33612 1.16388 4.74168 0.758327C5.14723 0.352772 5.64446 0.149994 6.23335 0.149994H9.80001C10.0778 0.149994 10.3445 0.202772 10.6 0.308327C10.8556 0.413883 11.0833 0.566661 11.2833 0.766661L14.3833 3.86666C14.5833 4.06666 14.7361 4.29444 14.8417 4.54999C14.9472 4.80555 15 5.07222 15 5.34999V10.3167C15 10.9055 14.7972 11.4028 14.3917 11.8083C13.9861 12.2139 13.4889 12.4167 12.9 12.4167ZM12.9 4.91666L10.2333 2.24999V3.33333C10.2333 3.76666 10.3889 4.13888 10.7 4.44999C11.0111 4.76111 11.3833 4.91666 11.8167 4.91666H12.9ZM2.80001 15.85C2.21112 15.85 1.7139 15.6472 1.30835 15.2417C0.90279 14.8361 0.700012 14.3389 0.700012 13.75V5.66666C0.700012 5.37777 0.80279 5.13055 1.00835 4.92499C1.2139 4.71944 1.46112 4.61666 1.75001 4.61666C2.0389 4.61666 2.28612 4.71944 2.49168 4.92499C2.69723 5.13055 2.80001 5.37777 2.80001 5.66666V13.75H9.23335C9.52223 13.75 9.76946 13.8528 9.97501 14.0583C10.1806 14.2639 10.2833 14.5111 10.2833 14.8C10.2833 15.0889 10.1806 15.3361 9.97501 15.5417C9.76946 15.7472 9.52223 15.85 9.23335 15.85H2.80001Z" fill="#66828C"/>
</svg>
