<svg width="16" height="16" viewBox="0 0 16 16" fill="none" xmlns="http://www.w3.org/2000/svg">
<path d="M7.33329 13.9C6.99995 13.9 6.71107 13.7778 6.46662 13.5333C6.22218 13.2889 6.09995 13 6.09995 12.6666V8.86664L2.36662 4.06664C2.0444 3.65553 1.9944 3.22498 2.21662 2.77498C2.43884 2.32498 2.81107 2.09998 3.33329 2.09998H12.6666C13.1888 2.09998 13.5611 2.32498 13.7833 2.77498C14.0055 3.22498 13.9555 3.65553 13.6333 4.06664L9.89995 8.86664V12.85C9.89995 13.15 9.79995 13.4 9.59995 13.6C9.39995 13.8 9.14995 13.9 8.84995 13.9H7.33329Z" fill="#66828C"/>
</svg>
