<svg width="16" height="16" viewBox="0 0 16 16" fill="none" xmlns="http://www.w3.org/2000/svg">
<path d="M4.7332 7.01667H7.16654C7.35237 7.01667 7.50994 6.95556 7.63924 6.83334C7.76855 6.71112 7.8332 6.55663 7.8332 6.36989C7.8332 6.18314 7.76855 6.02481 7.63924 5.89489C7.50994 5.76497 7.35237 5.7 7.16654 5.7H4.7332C4.54431 5.7 4.38876 5.76497 4.26654 5.89489C4.14431 6.02481 4.0832 6.18314 4.0832 6.36989C4.0832 6.55663 4.14431 6.71112 4.26654 6.83334C4.38876 6.95556 4.54431 7.01667 4.7332 7.01667ZM2.34987 13.75C1.91598 13.75 1.5464 13.5974 1.24112 13.2921C0.935842 12.9868 0.783203 12.6172 0.783203 12.1833V3.81667C0.783203 3.37819 0.935842 3.00469 1.24112 2.69615C1.5464 2.38761 1.91598 2.23334 2.34987 2.23334H13.6499C14.0832 2.23334 14.461 2.39445 14.7832 2.71667C15.1054 3.03889 15.261 3.41667 15.2499 3.85V4.16667C15.0388 4.06667 14.8138 3.98334 14.5749 3.91667C14.336 3.85 14.0864 3.81667 13.8263 3.81667C12.9976 3.81667 12.2943 4.10624 11.7165 4.68537C11.1388 5.26452 10.8499 5.97495 10.8499 6.81667C10.8499 7.169 10.9138 7.50431 11.0415 7.82259C11.1693 8.14087 11.3554 8.42223 11.5999 8.66667H9.94987C9.44431 8.66667 9.0207 8.8375 8.67904 9.17917C8.33737 9.52084 8.16654 9.94445 8.16654 10.45V11.3667C7.76654 11.6333 7.44987 11.9771 7.21654 12.3979C6.9832 12.8188 6.85543 13.2695 6.8332 13.75H2.34987ZM9.82487 14.5C10.0193 14.5 10.1804 14.4361 10.3082 14.3083C10.436 14.1806 10.4999 14.025 10.4999 13.8417C10.4999 13.6472 10.436 13.4861 10.3082 13.3583C10.1804 13.2306 10.0193 13.1667 9.82487 13.1667C9.64154 13.1667 9.48598 13.2306 9.3582 13.3583C9.23043 13.4861 9.16654 13.6472 9.16654 13.8417C9.16654 14.025 9.23043 14.1806 9.3582 14.3083C9.48598 14.4361 9.64154 14.5 9.82487 14.5ZM13.8297 7.48334C14.0162 7.48334 14.1774 7.41667 14.313 7.28334C14.4487 7.15 14.5165 6.99562 14.5165 6.82019C14.5165 6.63363 14.4487 6.47252 14.313 6.33685C14.1774 6.20118 14.0162 6.13334 13.8297 6.13334C13.6543 6.13334 13.4999 6.20118 13.3665 6.33685C13.2332 6.47252 13.1665 6.63363 13.1665 6.82019C13.1665 6.99562 13.2332 7.15 13.3665 7.28334C13.4999 7.41667 13.6543 7.48334 13.8297 7.48334ZM9.83027 15.8333C9.27667 15.8333 8.80543 15.6377 8.41654 15.2465C8.02765 14.8553 7.8332 14.3827 7.8332 13.8286C7.8332 13.3828 7.9582 12.9944 8.2082 12.6633C8.4582 12.3322 8.77765 12.0918 9.16654 11.9419V10.45C9.16654 10.2278 9.24154 10.0417 9.39154 9.89167C9.54154 9.74167 9.72765 9.66667 9.94987 9.66667H13.1832V8.68334C12.7943 8.55 12.4749 8.31779 12.2249 7.98669C11.9749 7.6556 11.8499 7.26718 11.8499 6.82142C11.8499 6.26732 12.0415 5.79467 12.4249 5.40347C12.8082 5.01227 13.2767 4.81667 13.8303 4.81667C14.3839 4.81667 14.8561 5.01178 15.2469 5.402C15.6378 5.79222 15.8332 6.26367 15.8332 6.81635C15.8332 7.26101 15.7082 7.65 15.4582 7.98334C15.2082 8.31667 14.8888 8.55 14.4999 8.68334V10.2C14.4999 10.4222 14.4249 10.6083 14.2749 10.7583C14.1249 10.9083 13.9388 10.9833 13.7165 10.9833H10.4999V11.95C10.8776 12.0944 11.1943 12.3327 11.4499 12.6647C11.7054 12.9968 11.8332 13.3863 11.8332 13.8332C11.8332 14.3889 11.6378 14.8611 11.2469 15.25C10.8561 15.6389 10.3839 15.8333 9.83027 15.8333ZM7.16654 10.3C7.35237 10.3 7.50994 10.235 7.63924 10.1051C7.76855 9.9752 7.8332 9.81687 7.8332 9.63012C7.8332 9.44338 7.76855 9.28612 7.63924 9.15834C7.50994 9.03056 7.35237 8.96667 7.16654 8.96667H4.7332C4.54431 8.96667 4.38876 9.03163 4.26654 9.16155C4.14431 9.29148 4.0832 9.44981 4.0832 9.63655C4.0832 9.8233 4.14431 9.98056 4.26654 10.1083C4.38876 10.2361 4.54431 10.3 4.7332 10.3H7.16654Z" fill="#66828C"/>
</svg>
