<svg width="16" height="16" viewBox="0 0 16 16" fill="none" xmlns="http://www.w3.org/2000/svg">
<path d="M2.48317 13.75C2.04928 13.75 1.6797 13.5946 1.37442 13.2838C1.06914 12.9729 0.916504 12.6061 0.916504 12.1833V3.81667C0.916504 3.3893 1.06914 3.01858 1.37442 2.70449C1.6797 2.39039 2.04928 2.23334 2.48317 2.23334H6.18317C6.39083 2.23334 6.59274 2.27778 6.7889 2.36667C6.98508 2.45556 7.15588 2.57272 7.3013 2.71814L8.02407 3.43334H13.5165C13.9439 3.43334 14.3146 3.58875 14.6287 3.89959C14.9428 4.21042 15.0998 4.57723 15.0998 5V12.1833C15.0998 12.6061 14.9428 12.9729 14.6287 13.2838C14.3146 13.5946 13.9439 13.75 13.5165 13.75H2.48317ZM8.3165 12.1833H10.4332V10.75H12.5332V9.31667H10.4332V7.88334H12.5332V6.45H10.4248V5H8.3165V6.44167H10.4332V7.88334H8.3165V9.31667H10.4332V10.75H8.3165V12.1833Z" fill="#66828C"/>
</svg>
