<svg width="16" height="16" viewBox="0 0 16 16" fill="none" xmlns="http://www.w3.org/2000/svg">
<path d="M15.1001 5H5.40008C4.65564 5 3.98341 5.18611 3.38341 5.55834C2.78341 5.93056 2.48341 6.45556 2.48341 7.13334V12.25L3.80008 7.13334C3.90008 6.78889 4.08897 6.51389 4.36675 6.30834C4.64453 6.10278 4.96119 6 5.31675 6H13.9167C14.4279 6 14.8445 6.21111 15.1667 6.63334C15.489 7.05556 15.5723 7.52223 15.4167 8.03334L14.3501 12.2333C14.1834 12.7889 13.9362 13.1806 13.6084 13.4083C13.2806 13.6361 12.8279 13.75 12.2501 13.75H2.48341C2.06119 13.75 1.69453 13.5944 1.38341 13.2833C1.0723 12.9722 0.916748 12.6056 0.916748 12.1833V3.81667C0.916748 3.38334 1.0723 3.01112 1.38341 2.7C1.69453 2.38889 2.06119 2.23334 2.48341 2.23334H6.18341C6.38341 2.23334 6.58342 2.27778 6.78342 2.36667C6.98342 2.45556 7.15564 2.57223 7.30008 2.71667L8.01675 3.43334H13.5167C13.9501 3.43334 14.3223 3.58889 14.6334 3.9C14.9445 4.21112 15.1001 4.57778 15.1001 5Z" fill="#66828C"/>
</svg>
