<svg width="16" height="16" viewBox="0 0 16 16" fill="none" xmlns="http://www.w3.org/2000/svg">
<path d="M2.49997 15.0834C2.32182 15.0834 2.17451 15.0252 2.05802 14.9087C1.94154 14.7923 1.8833 14.6451 1.8833 14.4671C1.8833 14.289 1.94154 14.1389 2.05802 14.0167C2.17451 13.8945 2.32182 13.8334 2.49997 13.8334H3.54997V13.4667H3.04997C2.90552 13.4667 2.78608 13.4195 2.69163 13.325C2.59719 13.2306 2.54997 13.1111 2.54997 12.9667C2.54997 12.8222 2.59719 12.7028 2.69163 12.6084C2.78608 12.5139 2.90552 12.4667 3.04997 12.4667H3.54997V12.0834H2.49997C2.32182 12.0834 2.17451 12.0252 2.05802 11.9087C1.94154 11.7923 1.8833 11.6451 1.8833 11.4671C1.8833 11.289 1.94154 11.1389 2.05802 11.0167C2.17451 10.8945 2.32182 10.8334 2.49997 10.8334H3.99997C4.22663 10.8334 4.41663 10.91 4.56997 11.0634C4.7233 11.2167 4.79997 11.4067 4.79997 11.6334V12.1667C4.79997 12.3934 4.7233 12.5834 4.56997 12.7367C4.41663 12.89 4.22663 12.9667 3.99997 12.9667C4.22663 12.9667 4.41663 13.0438 4.56997 13.1979C4.7233 13.3521 4.79997 13.5361 4.79997 13.75V14.3C4.79997 14.522 4.7233 14.708 4.56997 14.8581C4.41663 15.0083 4.22663 15.0834 3.99997 15.0834H2.49997ZM2.46663 10.1167C2.30886 10.1167 2.17219 10.0589 2.05663 9.94336C1.94108 9.8278 1.8833 9.69114 1.8833 9.53336V8.28336C1.8833 8.06947 1.95837 7.88544 2.1085 7.73127C2.25865 7.57711 2.44469 7.50002 2.66663 7.50002H3.54997V7.11669H2.49997C2.32182 7.11669 2.17451 7.05849 2.05802 6.94207C1.94154 6.82568 1.8833 6.67845 1.8833 6.50041C1.8833 6.32237 1.94154 6.17225 2.05802 6.05002C2.17451 5.9278 2.32182 5.86669 2.49997 5.86669H3.99997C4.22663 5.86669 4.41663 5.94336 4.56997 6.09669C4.7233 6.25002 4.79997 6.44002 4.79997 6.66669V7.70002C4.79997 7.92669 4.7233 8.11669 4.56997 8.27002C4.41663 8.42336 4.22663 8.50002 3.99997 8.50002H3.1333V8.86669H4.16663C4.3496 8.86669 4.5009 8.92599 4.62052 9.04459C4.74015 9.1632 4.79997 9.3132 4.79997 9.49459C4.79997 9.67599 4.74015 9.82502 4.62052 9.94169C4.5009 10.0584 4.3496 10.1167 4.16663 10.1167H2.46663ZM3.5054 5.15002C3.324 5.15002 3.17497 5.09179 3.0583 4.97531C2.94163 4.85882 2.8833 4.7115 2.8833 4.53336V2.03336H2.4333C2.27775 2.03336 2.14719 1.9766 2.04163 1.86307C1.93608 1.74956 1.8833 1.61744 1.8833 1.46669C1.8833 1.31595 1.93608 1.18382 2.04163 1.07031C2.14719 0.956785 2.27873 0.900024 2.43627 0.900024H3.54997C3.71256 0.900024 3.85043 0.956597 3.96358 1.06974C4.07673 1.1829 4.1333 1.32077 4.1333 1.48336V4.53336C4.1333 4.7115 4.074 4.85882 3.9554 4.97531C3.83679 5.09179 3.68679 5.15002 3.5054 5.15002ZM7.06663 12.8C6.84719 12.8 6.66177 12.7241 6.51038 12.5721C6.359 12.4202 6.2833 12.234 6.2833 12.0138C6.2833 11.7935 6.359 11.6084 6.51038 11.4584C6.66177 11.3084 6.84719 11.2334 7.06663 11.2334H13.6333C13.8514 11.2334 14.0392 11.3093 14.1968 11.4613C14.3545 11.6132 14.4333 11.7993 14.4333 12.0196C14.4333 12.2399 14.3545 12.425 14.1968 12.575C14.0392 12.725 13.8514 12.8 13.6333 12.8H7.06663ZM7.06663 8.75002C6.84719 8.75002 6.66177 8.67405 6.51038 8.52211C6.359 8.37015 6.2833 8.18404 6.2833 7.96378C6.2833 7.7435 6.359 7.55836 6.51038 7.40836C6.66177 7.25836 6.84719 7.18336 7.06663 7.18336H13.6333C13.8514 7.18336 14.0392 7.25933 14.1968 7.41127C14.3545 7.56323 14.4333 7.74934 14.4333 7.96961C14.4333 8.18989 14.3545 8.37502 14.1968 8.52502C14.0392 8.67502 13.8514 8.75002 13.6333 8.75002H7.06663ZM7.06663 4.70002C6.84719 4.70002 6.66177 4.62405 6.51038 4.47211C6.359 4.32015 6.2833 4.13404 6.2833 3.91377C6.2833 3.6935 6.359 3.50836 6.51038 3.35836C6.66177 3.20836 6.84719 3.13336 7.06663 3.13336H13.6333C13.8514 3.13336 14.0392 3.20933 14.1968 3.36127C14.3545 3.51323 14.4333 3.69934 14.4333 3.91961C14.4333 4.13989 14.3545 4.32502 14.1968 4.47502C14.0392 4.62502 13.8514 4.70002 13.6333 4.70002H7.06663Z" fill="#002E40"/>
</svg>
