<svg width="16" height="16" viewBox="0 0 16 16" fill="none" xmlns="http://www.w3.org/2000/svg">
<path d="M2.39977 14.5667C2.13311 14.5667 1.90533 14.4722 1.71644 14.2834C1.52755 14.0945 1.43311 13.8667 1.43311 13.6C1.43311 13.3334 1.52755 13.1056 1.71644 12.9167C1.90533 12.7278 2.13311 12.6334 2.39977 12.6334H13.5998C13.8664 12.6334 14.0942 12.7278 14.2831 12.9167C14.472 13.1056 14.5664 13.3334 14.5664 13.6C14.5664 13.8667 14.472 14.0945 14.2831 14.2834C14.0942 14.4722 13.8664 14.5667 13.5998 14.5667H2.39977ZM7.73311 11.7667C7.46644 11.7667 7.23866 11.6722 7.04977 11.4834C6.86088 11.2945 6.76644 11.0667 6.76644 10.8C6.76644 10.5334 6.86088 10.3056 7.04977 10.1167C7.23866 9.92779 7.46644 9.83335 7.73311 9.83335H13.5998C13.8664 9.83335 14.0942 9.92779 14.2831 10.1167C14.472 10.3056 14.5664 10.5334 14.5664 10.8C14.5664 11.0667 14.472 11.2945 14.2831 11.4834C14.0942 11.6722 13.8664 11.7667 13.5998 11.7667H7.73311ZM7.73311 8.96668C7.46644 8.96668 7.23866 8.87224 7.04977 8.68335C6.86088 8.49446 6.76644 8.26668 6.76644 8.00002C6.76644 7.73335 6.86088 7.50557 7.04977 7.31668C7.23866 7.12779 7.46644 7.03335 7.73311 7.03335H13.5998C13.8664 7.03335 14.0942 7.12779 14.2831 7.31668C14.472 7.50557 14.5664 7.73335 14.5664 8.00002C14.5664 8.26668 14.472 8.49446 14.2831 8.68335C14.0942 8.87224 13.8664 8.96668 13.5998 8.96668H7.73311ZM7.73311 6.16668C7.46644 6.16668 7.23866 6.07224 7.04977 5.88335C6.86088 5.69446 6.76644 5.46668 6.76644 5.20002C6.76644 4.93335 6.86088 4.70557 7.04977 4.51668C7.23866 4.32779 7.46644 4.23335 7.73311 4.23335H13.5998C13.8664 4.23335 14.0942 4.32779 14.2831 4.51668C14.472 4.70557 14.5664 4.93335 14.5664 5.20002C14.5664 5.46668 14.472 5.69446 14.2831 5.88335C14.0942 6.07224 13.8664 6.16668 13.5998 6.16668H7.73311ZM2.39977 3.36668C2.13311 3.36668 1.90533 3.27224 1.71644 3.08335C1.52755 2.89446 1.43311 2.66668 1.43311 2.40002C1.43311 2.13335 1.52755 1.90557 1.71644 1.71668C1.90533 1.52779 2.13311 1.43335 2.39977 1.43335H13.5998C13.8664 1.43335 14.0942 1.52779 14.2831 1.71668C14.472 1.90557 14.5664 2.13335 14.5664 2.40002C14.5664 2.66668 14.472 2.89446 14.2831 3.08335C14.0942 3.27224 13.8664 3.36668 13.5998 3.36668H2.39977ZM2.33311 10.6834C2.16644 10.85 1.97477 10.8889 1.75811 10.8C1.54144 10.7111 1.43311 10.55 1.43311 10.3167V5.68335C1.43311 5.45002 1.54144 5.28891 1.75811 5.20002C1.97477 5.11113 2.16644 5.15002 2.33311 5.31668L4.64977 7.63335C4.74977 7.73335 4.79977 7.85557 4.79977 8.00002C4.79977 8.14446 4.74977 8.26668 4.64977 8.36668L2.33311 10.6834Z" fill="#002E40"/>
</svg>
