<svg width="16" height="16" viewBox="0 0 16 16" fill="none" xmlns="http://www.w3.org/2000/svg">
<path d="M3.75 11.1167L4.65 9.58333C3.88334 9.49444 3.25834 9.16944 2.775 8.60833C2.29167 8.04722 2.05 7.4 2.05 6.66666C2.05 5.83333 2.33889 5.13055 2.91667 4.55833C3.49445 3.98611 4.2 3.7 5.03334 3.7C5.86667 3.7 6.56945 3.98611 7.14167 4.55833C7.71389 5.13055 8 5.83333 8 6.66666C8 6.92222 7.97222 7.16111 7.91667 7.38333C7.86111 7.60555 7.78334 7.81111 7.68334 8L5.35 12.05C5.26111 12.1944 5.14723 12.3083 5.00834 12.3917C4.86945 12.475 4.71667 12.5167 4.55 12.5167C4.19445 12.5167 3.925 12.3611 3.74167 12.05C3.55834 11.7389 3.56111 11.4278 3.75 11.1167ZM10.35 11.1333L11.25 9.58333C10.4833 9.49444 9.86111 9.16944 9.38334 8.60833C8.90556 8.04722 8.66667 7.4 8.66667 6.66666C8.66667 5.83333 8.95278 5.13055 9.525 4.55833C10.0972 3.98611 10.8 3.7 11.6333 3.7C12.4667 3.7 13.1722 3.98611 13.75 4.55833C14.3278 5.13055 14.6167 5.83333 14.6167 6.66666C14.6167 6.92222 14.5889 7.16111 14.5333 7.38333C14.4778 7.60555 14.4 7.81111 14.3 8L11.95 12.05C11.8611 12.1944 11.7472 12.3083 11.6083 12.3917C11.4694 12.475 11.3167 12.5167 11.15 12.5167C10.7944 12.5167 10.5278 12.3639 10.35 12.0583C10.1722 11.7528 10.1722 11.4444 10.35 11.1333Z" fill="#002E40"/>
</svg>
