<svg width="16" height="16" viewBox="0 0 16 16" fill="none" xmlns="http://www.w3.org/2000/svg">
<path d="M4.0002 11.8166C3.71131 11.8166 3.46408 11.7138 3.25853 11.5083C3.05297 11.3027 2.9502 11.0555 2.9502 10.7666V5.24995C2.9502 4.96106 3.05297 4.71384 3.25853 4.50828C3.46408 4.30273 3.71131 4.19995 4.0002 4.19995C4.28908 4.19995 4.53631 4.30273 4.74186 4.50828C4.94742 4.71384 5.0502 4.96106 5.0502 5.24995V6.94995H6.9502V5.24995C6.9502 4.96106 7.05297 4.71384 7.25853 4.50828C7.46408 4.30273 7.71131 4.19995 8.0002 4.19995C8.28908 4.19995 8.53631 4.30273 8.74186 4.50828C8.94742 4.71384 9.0502 4.96106 9.0502 5.24995V10.7666C9.0502 11.0555 8.94742 11.3027 8.74186 11.5083C8.53631 11.7138 8.28908 11.8166 8.0002 11.8166C7.71131 11.8166 7.46408 11.7138 7.25853 11.5083C7.05297 11.3027 6.9502 11.0555 6.9502 10.7666V9.04995H5.0502V10.7666C5.0502 11.0555 4.94742 11.3027 4.74186 11.5083C4.53631 11.7138 4.28908 11.8166 4.0002 11.8166ZM12.7669 11.8166C12.478 11.8166 12.2308 11.7138 12.0252 11.5083C11.8196 11.3027 11.7169 11.0555 11.7169 10.7666V6.29995H11.4335C11.1446 6.29995 10.8974 6.19717 10.6919 5.99162C10.4863 5.78606 10.3835 5.53884 10.3835 5.24995C10.3835 4.96106 10.4863 4.71384 10.6919 4.50828C10.8974 4.30273 11.1446 4.19995 11.4335 4.19995H12.7669C13.0558 4.19995 13.303 4.30273 13.5085 4.50828C13.7141 4.71384 13.8169 4.96106 13.8169 5.24995V10.7666C13.8169 11.0555 13.7141 11.3027 13.5085 11.5083C13.303 11.7138 13.0558 11.8166 12.7669 11.8166Z" fill="#002E40"/>
</svg>
