<svg width="16" height="16" viewBox="0 0 16 16" fill="none" xmlns="http://www.w3.org/2000/svg">
<path d="M2.6667 11.8167C2.37781 11.8167 2.13059 11.7139 1.92503 11.5083C1.71948 11.3028 1.6167 11.0556 1.6167 10.7667V5.23335C1.6167 4.94446 1.71948 4.69724 1.92503 4.49168C2.13059 4.28613 2.37781 4.18335 2.6667 4.18335C2.95559 4.18335 3.20281 4.28613 3.40837 4.49168C3.61392 4.69724 3.7167 4.94446 3.7167 5.23335V6.95002H5.4167V5.23335C5.4167 4.94446 5.51948 4.69724 5.72503 4.49168C5.93059 4.28613 6.17781 4.18335 6.4667 4.18335C6.75559 4.18335 7.00281 4.28613 7.20837 4.49168C7.41392 4.69724 7.5167 4.94446 7.5167 5.23335V10.7667C7.5167 11.0556 7.41392 11.3028 7.20837 11.5083C7.00281 11.7139 6.75559 11.8167 6.4667 11.8167C6.17781 11.8167 5.93059 11.7139 5.72503 11.5083C5.51948 11.3028 5.4167 11.0556 5.4167 10.7667V9.05002H3.7167V10.7667C3.7167 11.0556 3.61392 11.3028 3.40837 11.5083C3.20281 11.7139 2.95559 11.8167 2.6667 11.8167ZM9.90003 11.8167C9.61114 11.8167 9.36392 11.7139 9.15837 11.5083C8.95281 11.3028 8.85003 11.0556 8.85003 10.7667C8.85003 10.4778 8.95281 10.2306 9.15837 10.025C9.36392 9.81946 9.61114 9.71668 9.90003 9.71668H12.65V9.05002H11.2334C10.9445 9.05002 10.6973 8.94724 10.4917 8.74168C10.2861 8.53613 10.1834 8.2889 10.1834 8.00002C10.1834 7.71113 10.2861 7.4639 10.4917 7.25835C10.6973 7.05279 10.9445 6.95002 11.2334 6.95002H12.65V6.28335H9.90003C9.61114 6.28335 9.36392 6.18057 9.15837 5.97502C8.95281 5.76946 8.85003 5.52224 8.85003 5.23335C8.85003 4.94446 8.95281 4.69724 9.15837 4.49168C9.36392 4.28613 9.61114 4.18335 9.90003 4.18335H12.65C13.2389 4.18335 13.7361 4.38613 14.1417 4.79168C14.5473 5.19724 14.75 5.69446 14.75 6.28335V9.71668C14.75 10.3056 14.5473 10.8028 14.1417 11.2083C13.7361 11.6139 13.2389 11.8167 12.65 11.8167H9.90003Z" fill="#002E40"/>
</svg>
