<svg width="16" height="16" viewBox="0 0 16 16" fill="none" xmlns="http://www.w3.org/2000/svg">
<path d="M4.75003 12.65C4.49448 12.65 4.26948 12.5466 4.07503 12.3398C3.88059 12.133 3.78337 11.9086 3.78337 11.6667V9.73332H12.4667V3.73332H14.4334C14.6753 3.73332 14.8941 3.83672 15.0898 4.04352C15.2855 4.25033 15.3834 4.48026 15.3834 4.73332V13.5167C15.3834 13.868 15.2223 14.1114 14.9 14.2469C14.5778 14.3823 14.2889 14.3222 14.0334 14.0667L12.6167 12.65H4.75003ZM3.48337 8.73332L1.9667 10.25C1.71114 10.5055 1.42225 10.5684 1.10003 10.4385C0.77781 10.3087 0.616699 10.068 0.616699 9.71665V1.54998C0.616699 1.30804 0.714544 1.08366 0.910233 0.87685C1.10593 0.67005 1.33031 0.56665 1.58337 0.56665H10.5C10.7531 0.56665 10.9775 0.667273 11.1732 0.868517C11.3689 1.06977 11.4667 1.29693 11.4667 1.54998V7.74998C11.4667 8.00304 11.3689 8.2302 11.1732 8.43145C10.9775 8.6327 10.7531 8.73332 10.5 8.73332H3.48337Z" fill="#66828C"/>
</svg>
