<svg width="16" height="16" viewBox="0 0 16 16" fill="none" xmlns="http://www.w3.org/2000/svg">
<path d="M4.8002 11.2H6.0002C6.28908 11.2 6.53631 11.3028 6.74186 11.5083C6.94742 11.7139 7.0502 11.9611 7.0502 12.25C7.0502 12.5389 6.94742 12.7861 6.74186 12.9917C6.53631 13.1972 6.28908 13.3 6.0002 13.3H3.7502C3.46131 13.3 3.21408 13.1972 3.00853 12.9917C2.80297 12.7861 2.7002 12.5389 2.7002 12.25V10C2.7002 9.71112 2.80297 9.4639 3.00853 9.25835C3.21408 9.05279 3.46131 8.95001 3.7502 8.95001C4.03908 8.95001 4.28631 9.05279 4.49186 9.25835C4.69742 9.4639 4.8002 9.71112 4.8002 10V11.2ZM4.8002 4.80001V6.00001C4.8002 6.2889 4.69742 6.53612 4.49186 6.74168C4.28631 6.94723 4.03908 7.05001 3.7502 7.05001C3.46131 7.05001 3.21408 6.94723 3.00853 6.74168C2.80297 6.53612 2.7002 6.2889 2.7002 6.00001V3.75001C2.7002 3.46112 2.80297 3.2139 3.00853 3.00835C3.21408 2.80279 3.46131 2.70001 3.7502 2.70001H6.0002C6.28908 2.70001 6.53631 2.80279 6.74186 3.00835C6.94742 3.2139 7.0502 3.46112 7.0502 3.75001C7.0502 4.0389 6.94742 4.28612 6.74186 4.49168C6.53631 4.69723 6.28908 4.80001 6.0002 4.80001H4.8002ZM11.2002 11.2V10C11.2002 9.71112 11.303 9.4639 11.5085 9.25835C11.7141 9.05279 11.9613 8.95001 12.2502 8.95001C12.5391 8.95001 12.7863 9.05279 12.9919 9.25835C13.1974 9.4639 13.3002 9.71112 13.3002 10V12.25C13.3002 12.5389 13.1974 12.7861 12.9919 12.9917C12.7863 13.1972 12.5391 13.3 12.2502 13.3H10.0002C9.71131 13.3 9.46408 13.1972 9.25853 12.9917C9.05297 12.7861 8.9502 12.5389 8.9502 12.25C8.9502 11.9611 9.05297 11.7139 9.25853 11.5083C9.46408 11.3028 9.71131 11.2 10.0002 11.2H11.2002ZM11.2002 4.80001H10.0002C9.71131 4.80001 9.46408 4.69723 9.25853 4.49168C9.05297 4.28612 8.9502 4.0389 8.9502 3.75001C8.9502 3.46112 9.05297 3.2139 9.25853 3.00835C9.46408 2.80279 9.71131 2.70001 10.0002 2.70001H12.2502C12.5391 2.70001 12.7863 2.80279 12.9919 3.00835C13.1974 3.2139 13.3002 3.46112 13.3002 3.75001V6.00001C13.3002 6.2889 13.1974 6.53612 12.9919 6.74168C12.7863 6.94723 12.5391 7.05001 12.2502 7.05001C11.9613 7.05001 11.7141 6.94723 11.5085 6.74168C11.303 6.53612 11.2002 6.2889 11.2002 6.00001V4.80001Z" fill="#0B8749"/>
</svg>
