<svg width="16" height="16" viewBox="0 0 16 16" fill="none" xmlns="http://www.w3.org/2000/svg">
<g clip-path="url(#clip0_2324_9662)">
<path d="M2.50005 9.18335L4.00005 7.71669L2.50005 6.23335L1.05005 7.71669L2.50005 9.18335ZM11.9 9.01669L13.5 6.43335L15.1334 9.01669H11.9ZM0.583382 12.2C0.36116 12.2 0.175049 12.125 0.0250488 11.975C-0.124951 11.825 -0.199951 11.6389 -0.199951 11.4167V11.1167C-0.199951 10.6278 0.0500488 10.2306 0.550049 9.92502C1.05005 9.61946 1.70005 9.46669 2.50005 9.46669H2.88338C2.78338 9.68891 2.70283 9.92224 2.64172 10.1667C2.5806 10.4111 2.55005 10.6667 2.55005 10.9334V12.2H0.583382ZM4.58338 12.2C4.36116 12.2 4.17505 12.125 4.02505 11.975C3.87505 11.825 3.80005 11.6389 3.80005 11.4167V10.9334C3.80005 10.1445 4.18616 9.50835 4.95838 9.02502C5.7306 8.54169 6.74449 8.30002 8.00005 8.30002C9.2556 8.30002 10.2695 8.54169 11.0417 9.02502C11.8139 9.50835 12.2 10.1445 12.2 10.9334V11.4167C12.2 11.6389 12.125 11.825 11.975 11.975C11.825 12.125 11.6389 12.2 11.4167 12.2H4.58338ZM13.45 12.2V10.9334C13.45 10.6667 13.4223 10.4084 13.3667 10.1584C13.3112 9.90835 13.2278 9.6778 13.1167 9.46669H13.5C14.3 9.46669 14.95 9.61946 15.45 9.92502C15.95 10.2306 16.2 10.6278 16.2 11.1167V11.4167C16.2 11.6389 16.125 11.825 15.975 11.975C15.825 12.125 15.6389 12.2 15.4167 12.2H13.45ZM8.00005 7.81669C7.38894 7.81669 6.86949 7.6028 6.44172 7.17502C6.01394 6.74724 5.80005 6.2278 5.80005 5.61669C5.80005 5.00558 6.01394 4.48613 6.44172 4.05835C6.86949 3.63058 7.38894 3.41669 8.00005 3.41669C8.61116 3.41669 9.1306 3.63058 9.55838 4.05835C9.98616 4.48613 10.2 5.00558 10.2 5.61669C10.2 6.2278 9.98616 6.74724 9.55838 7.17502C9.1306 7.6028 8.61116 7.81669 8.00005 7.81669Z" fill="#66828C"/>
</g>
<defs>
<clipPath id="clip0_2324_9662">
<rect width="16" height="16" fill="white"/>
</clipPath>
</defs>
</svg>
