<svg width="16" height="16" viewBox="0 0 16 16" fill="none" xmlns="http://www.w3.org/2000/svg">
<path d="M8.00001 7.13333C8.6889 7.13333 9.27223 6.89444 9.75001 6.41666C10.2278 5.93889 10.4667 5.35555 10.4667 4.66666V2.86666H5.53334V4.66666C5.53334 5.35555 5.77223 5.93889 6.25001 6.41666C6.72778 6.89444 7.31112 7.13333 8.00001 7.13333ZM3.15001 15.2333C2.86112 15.2333 2.6139 15.1306 2.40834 14.925C2.20278 14.7194 2.10001 14.4722 2.10001 14.1833C2.10001 13.8944 2.20278 13.6472 2.40834 13.4417C2.6139 13.2361 2.86112 13.1333 3.15001 13.1333H3.43334V11.3333C3.43334 10.7 3.56112 10.0917 3.81667 9.50833C4.07223 8.925 4.43334 8.42222 4.90001 8C4.43334 7.57777 4.07223 7.075 3.81667 6.49166C3.56112 5.90833 3.43334 5.3 3.43334 4.66666V2.86666H3.15001C2.86112 2.86666 2.6139 2.76388 2.40834 2.55833C2.20278 2.35277 2.10001 2.10555 2.10001 1.81666C2.10001 1.52777 2.20278 1.28055 2.40834 1.075C2.6139 0.86944 2.86112 0.766663 3.15001 0.766663H12.85C13.1389 0.766663 13.3861 0.86944 13.5917 1.075C13.7972 1.28055 13.9 1.52777 13.9 1.81666C13.9 2.10555 13.7972 2.35277 13.5917 2.55833C13.3861 2.76388 13.1389 2.86666 12.85 2.86666H12.5667V4.66666C12.5667 5.3 12.4417 5.90833 12.1917 6.49166C11.9417 7.075 11.5778 7.57777 11.1 8C11.5778 8.42222 11.9417 8.925 12.1917 9.50833C12.4417 10.0917 12.5667 10.7 12.5667 11.3333V13.1333H12.85C13.1389 13.1333 13.3861 13.2361 13.5917 13.4417C13.7972 13.6472 13.9 13.8944 13.9 14.1833C13.9 14.4722 13.7972 14.7194 13.5917 14.925C13.3861 15.1306 13.1389 15.2333 12.85 15.2333H3.15001Z" fill="#66828C"/>
</svg>
