<svg width="16" height="16" viewBox="0 0 16 16" fill="none" xmlns="http://www.w3.org/2000/svg">
<path d="M3.53311 14.5667C2.94422 14.5667 2.44699 14.3639 2.04144 13.9584C1.63588 13.5528 1.43311 13.0556 1.43311 12.4667V3.53335C1.43311 2.94446 1.63588 2.44724 2.04144 2.04168C2.44699 1.63613 2.94422 1.43335 3.53311 1.43335H12.4664C13.0553 1.43335 13.5526 1.63613 13.9581 2.04168C14.3637 2.44724 14.5664 2.94446 14.5664 3.53335V12.4667C14.5664 13.0556 14.3637 13.5528 13.9581 13.9584C13.5526 14.3639 13.0553 14.5667 12.4664 14.5667H3.53311ZM4.73311 11.5334H11.2664C11.4887 11.5334 11.6442 11.4389 11.7331 11.25C11.822 11.0611 11.8053 10.8778 11.6831 10.7L9.91644 8.25002C9.81644 8.10557 9.67755 8.03057 9.49977 8.02502C9.32199 8.01946 9.17755 8.08891 9.06644 8.23335L7.49977 10.3334L6.43311 8.90002C6.32199 8.75557 6.17755 8.68613 5.99977 8.69168C5.82199 8.69724 5.68311 8.77224 5.58311 8.91668L4.31644 10.7C4.19422 10.8778 4.17755 11.0611 4.26644 11.25C4.35533 11.4389 4.51088 11.5334 4.73311 11.5334Z" fill="#002E40"/>
</svg>
