<svg width="16" height="16" viewBox="0 0 16 16" fill="none" xmlns="http://www.w3.org/2000/svg">
<path d="M2.48317 14.25C2.04928 14.25 1.6797 14.0974 1.37442 13.7921C1.06914 13.4868 0.916504 13.1172 0.916504 12.6833V10.5833C0.916504 10.3639 0.992476 10.1785 1.14442 10.0271C1.29638 9.8757 1.48249 9.8 1.70275 9.8C1.92303 9.8 2.10817 9.8757 2.25817 10.0271C2.40817 10.1785 2.48317 10.3639 2.48317 10.5833V12.6833H13.5165V3.31667H2.48317V5.43334C2.48317 5.66389 2.4072 5.85486 2.25525 6.00625C2.1033 6.15764 1.91719 6.23334 1.69692 6.23334C1.47664 6.23334 1.2915 6.15764 1.1415 6.00625C0.991504 5.85486 0.916504 5.66389 0.916504 5.43334V3.31667C0.916504 2.87819 1.06914 2.50469 1.37442 2.19615C1.6797 1.88761 2.04928 1.73334 2.48317 1.73334H13.5165C13.955 1.73334 14.3285 1.88761 14.637 2.19615C14.9456 2.50469 15.0998 2.87819 15.0998 3.31667V12.6833C15.0998 13.1172 14.9456 13.4868 14.637 13.7921C14.3285 14.0974 13.955 14.25 13.5165 14.25H2.48317ZM8.09984 8.8H1.69984C1.48039 8.8 1.29498 8.72403 1.14359 8.57209C0.992198 8.42013 0.916504 8.23402 0.916504 8.01375C0.916504 7.79348 0.992198 7.60834 1.14359 7.45834C1.29498 7.30834 1.48039 7.23334 1.69984 7.23334H8.09984L7.1165 6.23334C6.97206 6.07223 6.89937 5.88695 6.89845 5.6775C6.89752 5.46806 6.97814 5.28623 7.14032 5.132C7.28793 4.97556 7.46809 4.90056 7.68079 4.907C7.89349 4.91345 8.08317 4.99445 8.24984 5.15L10.5665 7.45C10.7221 7.6096 10.7998 7.7995 10.7998 8.0197C10.7998 8.2399 10.7221 8.42778 10.5665 8.58334L8.23317 10.9167C8.07761 11.0611 7.89326 11.1306 7.6801 11.125C7.46695 11.1194 7.28421 11.0371 7.1319 10.8781C6.97564 10.7301 6.90067 10.5468 6.907 10.3281C6.91334 10.1094 6.98873 9.92778 7.13317 9.78334L8.09984 8.8Z" fill="#66828C"/>
</svg>
