<svg width="16" height="16" viewBox="0 0 16 16" fill="none" xmlns="http://www.w3.org/2000/svg">
<path d="M6.85338 10.1246C6.95124 10.0193 7.00016 9.89999 7.00016 9.76666C7.00016 9.63333 6.95016 9.51666 6.85016 9.41666L5.51683 8.06666L6.85016 6.73333C6.95016 6.64444 7.00016 6.52983 7.00016 6.38949C7.00016 6.24915 6.95016 6.12487 6.85016 6.01666C6.76127 5.92777 6.64461 5.88333 6.50016 5.88333C6.35572 5.88333 6.23905 5.92777 6.15016 6.01666L4.65016 7.51666C4.49461 7.67814 4.41683 7.86573 4.41683 8.07944C4.41683 8.29314 4.49461 8.47777 4.65016 8.63333L6.11683 10.1167C6.22794 10.2167 6.35406 10.2694 6.4952 10.275C6.63633 10.2805 6.75572 10.2304 6.85338 10.1246ZM9.16361 10.1167C9.26127 10.2278 9.37788 10.2805 9.51346 10.275C9.64904 10.2694 9.77239 10.2167 9.8835 10.1167L11.3668 8.63333C11.5224 8.47456 11.6002 8.29043 11.6002 8.08093C11.6002 7.87141 11.5224 7.68333 11.3668 7.51666L9.86683 6.01666C9.76683 5.92777 9.64739 5.88333 9.5085 5.88333C9.36961 5.88333 9.25572 5.92777 9.16683 6.01666C9.05572 6.12487 9.00016 6.24915 9.00016 6.38949C9.00016 6.52983 9.05572 6.64444 9.16683 6.73333L10.5002 8.06666L9.16683 9.41666C9.06683 9.51666 9.01683 9.634 9.01683 9.76869C9.01683 9.90338 9.06576 10.0194 9.16361 10.1167ZM3.15016 14.4667C2.71655 14.4667 2.34703 14.3123 2.04161 14.0036C1.7362 13.695 1.5835 13.3215 1.5835 12.8833V3.18333C1.5835 2.74971 1.7362 2.3802 2.04161 2.07479C2.34703 1.76937 2.71655 1.61666 3.15016 1.61666H6.15016C6.27239 1.21666 6.50016 0.894436 6.8335 0.649992C7.16683 0.405547 7.55572 0.283325 8.00016 0.283325C8.44461 0.283325 8.8335 0.405547 9.16683 0.649992C9.50016 0.894436 9.72794 1.21666 9.85016 1.61666H12.8502C13.2884 1.61666 13.6618 1.76937 13.9705 2.07479C14.2792 2.3802 14.4335 2.74971 14.4335 3.18333V12.8833C14.4335 13.3215 14.2792 13.695 13.9705 14.0036C13.6618 14.3123 13.2884 14.4667 12.8502 14.4667H3.15016ZM8.00016 2.84999C8.19424 2.84999 8.35665 2.78462 8.48738 2.65388C8.61812 2.52314 8.6835 2.36351 8.6835 2.17499C8.6835 1.98647 8.61812 1.82406 8.48738 1.68778C8.35665 1.55148 8.19424 1.48333 8.00016 1.48333C7.80609 1.48333 7.64368 1.5511 7.51295 1.68666C7.3822 1.82221 7.31683 1.98221 7.31683 2.16666C7.31683 2.36074 7.3822 2.52314 7.51295 2.65388C7.64368 2.78462 7.80609 2.84999 8.00016 2.84999Z" fill="#002E40"/>
</svg>
