<svg width="16" height="16" viewBox="0 0 16 16" fill="none" xmlns="http://www.w3.org/2000/svg">
<path d="M4.26663 13.7333C3.96663 13.7333 3.69997 13.6333 3.46663 13.4C3.26663 13.1667 3.1333 12.9333 3.1333 12.6C3.1333 12.2667 3.2333 12.0333 3.46663 11.8C3.69997 11.5667 3.9333 11.4667 4.26663 11.4667H5.4333L8.16663 4.5H6.69997C6.39997 4.5 6.1333 4.4 5.89997 4.16667C5.66663 3.93334 5.56663 3.7 5.56663 3.36667C5.56663 3.03334 5.66663 2.8 5.89997 2.56667C6.09997 2.33334 6.36663 2.23334 6.69997 2.23334H11.7333C12.0333 2.23334 12.3 2.33334 12.5333 2.56667C12.7666 2.76667 12.8666 3.03334 12.8666 3.36667C12.8666 3.66667 12.7666 3.93334 12.5333 4.16667C12.3333 4.36667 12.0666 4.5 11.7333 4.5H10.5666L7.86663 11.4667H9.3333C9.6333 11.4667 9.89997 11.5667 10.1333 11.8C10.3666 12 10.4666 12.2667 10.4666 12.6C10.4666 12.9333 10.3666 13.1667 10.1333 13.4C9.89997 13.6 9.6333 13.7333 9.3333 13.7333H4.26663Z" fill="#002E40"/>
</svg>
