<svg width="16" height="16" viewBox="0 0 16 16" fill="none" xmlns="http://www.w3.org/2000/svg">
<path d="M11.2331 3.11665V7.41665L12.2664 8.44998C12.3664 8.54998 12.4414 8.66109 12.4914 8.78331C12.5414 8.90554 12.5664 9.03887 12.5664 9.18331V9.81665C12.5664 10.1055 12.4637 10.3528 12.2581 10.5583C12.0525 10.7639 11.8053 10.8666 11.5164 10.8666H9.04977V14.6333C9.04977 14.9222 8.94699 15.1694 8.74144 15.375C8.53588 15.5805 8.28866 15.6833 7.99977 15.6833C7.71088 15.6833 7.46366 15.5805 7.2581 15.375C7.05255 15.1694 6.94977 14.9222 6.94977 14.6333V10.8666H4.48311C4.19422 10.8666 3.94699 10.7639 3.74144 10.5583C3.53588 10.3528 3.43311 10.1055 3.43311 9.81665V9.18331C3.43311 9.03887 3.45811 8.90554 3.50811 8.78331C3.55811 8.66109 3.63311 8.54998 3.73311 8.44998L4.76644 7.41665V3.11665C4.57755 3.03887 4.41922 2.91109 4.29144 2.73331C4.16366 2.55554 4.09977 2.35554 4.09977 2.13331C4.09977 1.84442 4.20255 1.5972 4.40811 1.39165C4.61366 1.18609 4.86088 1.08331 5.14977 1.08331H10.8498C11.1387 1.08331 11.3859 1.18609 11.5914 1.39165C11.797 1.5972 11.8998 1.84442 11.8998 2.13331C11.8998 2.35554 11.8359 2.55554 11.7081 2.73331C11.5803 2.91109 11.422 3.03887 11.2331 3.11665Z" fill="#002E40"/>
</svg>
