<svg width="16" height="16" viewBox="0 0 16 16" fill="none" xmlns="http://www.w3.org/2000/svg">
<path d="M3.00003 15.05C2.61392 15.05 2.28684 14.9159 2.01878 14.6479C1.75073 14.3798 1.6167 14.0527 1.6167 13.6666V11.45C1.6167 11.0638 1.75073 10.7368 2.01878 10.4687C2.28684 10.2006 2.61392 10.0666 3.00003 10.0666H3.7167V8.88328C3.7167 8.45273 3.87017 8.08398 4.17712 7.77703C4.48406 7.47009 4.85281 7.31662 5.28337 7.31662H7.3167V5.93328H6.60003C6.21392 5.93328 5.88684 5.79926 5.61878 5.5312C5.35073 5.26315 5.2167 4.93606 5.2167 4.54995V2.33328C5.2167 1.94717 5.35073 1.62009 5.61878 1.35203C5.88684 1.08398 6.21392 0.949951 6.60003 0.949951H9.40003C9.78614 0.949951 10.1132 1.08398 10.3813 1.35203C10.6493 1.62009 10.7834 1.94717 10.7834 2.33328V4.54995C10.7834 4.93606 10.6493 5.26315 10.3813 5.5312C10.1132 5.79926 9.78614 5.93328 9.40003 5.93328H8.68337V7.31662H10.7167C11.1473 7.31662 11.516 7.47009 11.8229 7.77703C12.1299 8.08398 12.2834 8.45273 12.2834 8.88328V10.0666H13C13.3861 10.0666 13.7132 10.2006 13.9813 10.4687C14.2493 10.7368 14.3834 11.0638 14.3834 11.45V13.6666C14.3834 14.0527 14.2493 14.3798 13.9813 14.6479C13.7132 14.9159 13.3861 15.05 13 15.05H10.2834C9.89725 15.05 9.57017 14.9159 9.30212 14.6479C9.03406 14.3798 8.90003 14.0527 8.90003 13.6666V11.45C8.90003 11.0638 9.03406 10.7368 9.30212 10.4687C9.57017 10.2006 9.89725 10.0666 10.2834 10.0666H10.9V8.68328H5.10003V10.0666H5.7167C6.10281 10.0666 6.42989 10.2006 6.69795 10.4687C6.966 10.7368 7.10003 11.0638 7.10003 11.45V13.6666C7.10003 14.0527 6.966 14.3798 6.69795 14.6479C6.42989 14.9159 6.10281 15.05 5.7167 15.05H3.00003Z" fill="#66828C"/>
</svg>
