<svg width="16" height="16" viewBox="0 0 16 16" fill="none" xmlns="http://www.w3.org/2000/svg">
<g clip-path="url(#clip0_1067_4455)">
<path d="M9.28337 9.41667C9.42781 9.41667 9.54725 9.36945 9.6417 9.275C9.73614 9.18056 9.78337 9.06111 9.78337 8.91667V7.21667H11.4834C11.6278 7.21667 11.7473 7.16945 11.8417 7.075C11.9361 6.98056 11.9834 6.86111 11.9834 6.71667C11.9834 6.57222 11.9361 6.45278 11.8417 6.35834C11.7473 6.26389 11.6278 6.21667 11.4834 6.21667H9.78337V4.51667C9.78337 4.37222 9.73614 4.25278 9.6417 4.15834C9.54725 4.06389 9.42781 4.01667 9.28337 4.01667C9.13892 4.01667 9.01948 4.06389 8.92503 4.15834C8.83059 4.25278 8.78337 4.37222 8.78337 4.51667V6.21667H7.08337C6.93892 6.21667 6.81948 6.26389 6.72503 6.35834C6.63059 6.45278 6.58337 6.57222 6.58337 6.71667C6.58337 6.86111 6.63059 6.98056 6.72503 7.075C6.81948 7.16945 6.93892 7.21667 7.08337 7.21667H8.78337V8.91667C8.78337 9.06111 8.83059 9.18056 8.92503 9.275C9.01948 9.36945 9.13892 9.41667 9.28337 9.41667ZM4.7667 12.8C4.33337 12.8 3.96392 12.6472 3.65837 12.3417C3.35281 12.0361 3.20003 11.6667 3.20003 11.2333V2.2C3.20003 1.76667 3.35281 1.39445 3.65837 1.08334C3.96392 0.772224 4.33337 0.616669 4.7667 0.616669H13.8C14.2334 0.616669 14.6056 0.772224 14.9167 1.08334C15.2278 1.39445 15.3834 1.76667 15.3834 2.2V11.2333C15.3834 11.6667 15.2278 12.0361 14.9167 12.3417C14.6056 12.6472 14.2334 12.8 13.8 12.8H4.7667ZM2.20003 15.3833C1.7667 15.3833 1.39448 15.2278 1.08337 14.9167C0.772255 14.6056 0.616699 14.2333 0.616699 13.8V3.98334C0.616699 3.76111 0.691699 3.575 0.841699 3.425C0.991699 3.275 1.18337 3.2 1.4167 3.2C1.63892 3.2 1.82503 3.275 1.97503 3.425C2.12503 3.575 2.20003 3.76111 2.20003 3.98334V13.8H12.0167C12.2389 13.8 12.425 13.875 12.575 14.025C12.725 14.175 12.8 14.3667 12.8 14.6C12.8 14.8222 12.725 15.0083 12.575 15.1583C12.425 15.3083 12.2389 15.3833 12.0167 15.3833H2.20003Z" fill="#66828C"/>
</g>
<defs>
<clipPath id="clip0_1067_4455">
<rect width="16" height="16" fill="white"/>
</clipPath>
</defs>
</svg>
