<svg width="17" height="16" viewBox="0 0 17 16" fill="none" xmlns="http://www.w3.org/2000/svg">
<path d="M10.4666 8.60001L9.33327 7.45001H10.4666C10.6222 7.45001 10.7583 7.50557 10.8749 7.61668C10.9916 7.72779 11.0499 7.86113 11.0499 8.01668C11.0499 8.17224 10.9916 8.30835 10.8749 8.42501C10.7583 8.54168 10.6222 8.60001 10.4666 8.60001ZM13.2666 11.3833L12.0333 10.1833C12.5888 10.0833 13.0388 9.83335 13.3833 9.43335C13.7277 9.03335 13.8999 8.57224 13.8999 8.05001C13.8999 7.41668 13.6944 6.89446 13.2833 6.48335C12.8722 6.07224 12.3555 5.86668 11.7333 5.86668H10.1166C9.89438 5.86668 9.70827 5.79168 9.55827 5.64168C9.40827 5.49168 9.33327 5.30557 9.33327 5.08335C9.33327 4.86113 9.40827 4.67224 9.55827 4.51668C9.70827 4.36113 9.89438 4.28335 10.1166 4.28335H11.7166C12.7833 4.28335 13.6777 4.64724 14.3999 5.37501C15.1222 6.10279 15.4833 6.99446 15.4833 8.05001C15.4833 8.80557 15.2666 9.48335 14.8333 10.0833C14.3999 10.6833 13.8777 11.1167 13.2666 11.3833ZM13.3833 14.6167L1.83327 3.10001C1.71105 2.97779 1.64716 2.8389 1.6416 2.68335C1.63605 2.52779 1.69993 2.38335 1.83327 2.25001C1.95549 2.12779 2.09438 2.06668 2.24993 2.06668C2.40549 2.06668 2.54993 2.12779 2.68327 2.25001L14.2333 13.8C14.3555 13.9222 14.4166 14.0583 14.4166 14.2083C14.4166 14.3583 14.3555 14.4945 14.2333 14.6167C14.111 14.75 13.9694 14.8167 13.8083 14.8167C13.6472 14.8167 13.5055 14.75 13.3833 14.6167ZM7.13327 11.75H5.28327C4.2166 11.75 3.32216 11.3889 2.59993 10.6667C1.87771 9.94446 1.5166 9.05557 1.5166 8.00001C1.5166 7.15557 1.75271 6.41668 2.22493 5.78335C2.69716 5.15001 3.31105 4.70557 4.0666 4.45001L5.43327 5.81668H5.28327C4.64993 5.81668 4.12771 6.02224 3.7166 6.43335C3.30549 6.84446 3.09993 7.36668 3.09993 8.00001C3.09993 8.63335 3.30549 9.15557 3.7166 9.56668C4.12771 9.97779 4.64993 10.1833 5.28327 10.1833H7.13327C7.35549 10.1833 7.54438 10.2583 7.69993 10.4083C7.85549 10.5583 7.93327 10.7445 7.93327 10.9667C7.93327 11.1889 7.85549 11.375 7.69993 11.525C7.54438 11.675 7.35549 11.75 7.13327 11.75ZM8.2166 8.60001H6.54993C6.38327 8.60001 6.2416 8.54446 6.12493 8.43335C6.00827 8.32224 5.94993 8.17779 5.94993 8.00001C5.94993 7.82224 6.00549 7.67779 6.1166 7.56668C6.22771 7.45557 6.37216 7.40001 6.54993 7.40001H7.0166L8.2166 8.60001Z" fill="#66828C"/>
</svg>
