<svg width="16" height="16" viewBox="0 0 16 16" fill="none" xmlns="http://www.w3.org/2000/svg">
<path d="M4.66644 11.7333C3.59977 11.7333 2.73311 11.3667 1.99977 10.6667C1.26644 9.96666 0.933105 9.06666 0.933105 8C0.933105 6.93333 1.29977 6.06666 1.99977 5.33333C2.69977 4.6 3.59977 4.23333 4.66644 4.23333H6.53311C6.76644 4.23333 6.93311 4.3 7.09977 4.46666C7.23311 4.63333 7.33311 4.8 7.33311 5.03333C7.33311 5.26666 7.26644 5.43333 7.09977 5.6C6.93311 5.76666 6.76644 5.83333 6.53311 5.83333H4.66644C4.03311 5.83333 3.49977 6.03333 3.09977 6.46666C2.69977 6.9 2.49977 7.36666 2.46644 8C2.46644 8.63333 2.66644 9.16666 3.09977 9.56666C3.53311 9.96666 4.03311 10.2 4.66644 10.2H6.53311C6.76644 10.2 6.93311 10.2667 7.09977 10.4333C7.23311 10.6 7.33311 10.7667 7.33311 11C7.33311 11.2333 7.26644 11.4 7.09977 11.5667C6.93311 11.7 6.76644 11.8 6.53311 11.8H4.66644V11.7333ZM5.73311 8.6C5.56644 8.6 5.39977 8.53333 5.29977 8.43333C5.19977 8.33333 5.13311 8.16666 5.13311 8C5.13311 7.83333 5.19977 7.66666 5.29977 7.56666C5.39977 7.46666 5.56644 7.4 5.73311 7.4H10.2664C10.4331 7.4 10.5998 7.46666 10.6998 7.56666C10.7998 7.66666 10.8664 7.83333 10.8664 8C10.8664 8.16666 10.7998 8.33333 10.6998 8.43333C10.5998 8.53333 10.4331 8.6 10.2664 8.6H5.73311ZM9.49977 11.7333C9.26644 11.7333 9.06644 11.6667 8.93311 11.5C8.76644 11.3333 8.69977 11.1667 8.69977 10.9333C8.69977 10.7 8.76644 10.5333 8.93311 10.3667C9.06644 10.2333 9.26644 10.1333 9.49977 10.1333H11.3331C11.9664 10.1333 12.4998 9.93333 12.8998 9.5C13.2998 9.1 13.5331 8.56666 13.4998 7.93333C13.4998 7.3 13.2998 6.76666 12.8998 6.36666C12.4998 5.96666 11.9664 5.73333 11.3331 5.73333H9.49977C9.26644 5.73333 9.06644 5.66666 8.93311 5.5C8.79977 5.33333 8.69977 5.16666 8.69977 4.93333C8.69977 4.7 8.76644 4.53333 8.93311 4.36666C9.06644 4.2 9.26644 4.13333 9.49977 4.13333H11.3331C12.3998 4.13333 13.2664 4.5 13.9998 5.23333C14.7331 5.96666 15.0998 6.86666 15.0998 7.9C15.0998 8.93333 14.7331 9.83333 13.9998 10.5667C13.2664 11.3 12.3664 11.6333 11.3331 11.6333H9.49977V11.7333Z" fill="#66828C"/>
</svg>
