<svg width="16" height="16" viewBox="0 0 16 16" fill="none" xmlns="http://www.w3.org/2000/svg">
<path d="M10.55 10.95C10.3944 10.7944 10.3167 10.6104 10.3167 10.3979C10.3167 10.1854 10.3944 10.0028 10.55 9.84998L11.6167 8.78332H6.81667C6.59722 8.78332 6.41181 8.70735 6.26042 8.5554C6.10903 8.40345 6.03333 8.21733 6.03333 7.99707C6.03333 7.77679 6.10903 7.59165 6.26042 7.44165C6.41181 7.29165 6.59722 7.21665 6.81667 7.21665H11.5833L10.4833 6.11665C10.3389 5.98184 10.2694 5.80954 10.275 5.59975C10.2806 5.38996 10.3623 5.207 10.5202 5.05087C10.6696 4.89472 10.8564 4.81943 11.0805 4.82498C11.3046 4.83054 11.4944 4.91109 11.65 5.06665L14.05 7.46665C14.1268 7.54628 14.1849 7.63422 14.2243 7.73045C14.2636 7.82668 14.2833 7.92344 14.2833 8.02072C14.2833 8.11801 14.2636 8.2136 14.2243 8.30748C14.1849 8.40137 14.1268 8.48776 14.05 8.56665L11.65 10.9667C11.5056 11.1111 11.3278 11.1833 11.1167 11.1833C10.9056 11.1833 10.7167 11.1055 10.55 10.95ZM2.98333 14.4167C2.54487 14.4167 2.17136 14.264 1.86282 13.9587C1.55427 13.6535 1.4 13.2839 1.4 12.85V3.14998C1.4 2.71151 1.55427 2.338 1.86282 2.02947C2.17136 1.72092 2.54487 1.56665 2.98333 1.56665H7.16667C7.38611 1.56665 7.57153 1.64589 7.72292 1.80437C7.87431 1.96284 7.95 2.15173 7.95 2.37103C7.95 2.59033 7.87431 2.77498 7.72292 2.92498C7.57153 3.07498 7.38611 3.14998 7.16667 3.14998H2.98333V12.85H7.16667C7.38611 12.85 7.57153 12.926 7.72292 13.0779C7.87431 13.2299 7.95 13.416 7.95 13.6362C7.95 13.8565 7.87431 14.0417 7.72292 14.1917C7.57153 14.3417 7.38611 14.4167 7.16667 14.4167H2.98333Z" fill="#66828C"/>
</svg>
