<svg width="16" height="16" viewBox="0 0 16 16" fill="none" xmlns="http://www.w3.org/2000/svg">
<path d="M10.5499 10.95C10.3943 10.7944 10.3166 10.6104 10.3166 10.3979C10.3166 10.1854 10.3943 10.0028 10.5499 9.84998L11.6166 8.78332H6.81657C6.59713 8.78332 6.41171 8.70735 6.26032 8.5554C6.10893 8.40345 6.03324 8.21733 6.03324 7.99707C6.03324 7.77679 6.10893 7.59165 6.26032 7.44165C6.41171 7.29165 6.59713 7.21665 6.81657 7.21665H11.5832L10.4832 6.11665C10.3388 5.98184 10.2693 5.80954 10.2749 5.59975C10.2805 5.38996 10.3622 5.207 10.5201 5.05087C10.6695 4.89472 10.8563 4.81943 11.0804 4.82498C11.3045 4.83054 11.4943 4.91109 11.6499 5.06665L14.0499 7.46665C14.1267 7.54628 14.1848 7.63422 14.2242 7.73045C14.2635 7.82668 14.2832 7.92344 14.2832 8.02072C14.2832 8.11801 14.2635 8.2136 14.2242 8.30748C14.1848 8.40137 14.1267 8.48776 14.0499 8.56665L11.6499 10.9667C11.5055 11.1111 11.3277 11.1833 11.1166 11.1833C10.9055 11.1833 10.7166 11.1055 10.5499 10.95ZM2.98324 14.4167C2.54477 14.4167 2.17126 14.264 1.86272 13.9587C1.55417 13.6535 1.3999 13.2839 1.3999 12.85V3.14998C1.3999 2.71151 1.55417 2.338 1.86272 2.02947C2.17126 1.72092 2.54477 1.56665 2.98324 1.56665H7.16657C7.38601 1.56665 7.57143 1.64589 7.72282 1.80437C7.87421 1.96284 7.9499 2.15173 7.9499 2.37103C7.9499 2.59033 7.87421 2.77498 7.72282 2.92498C7.57143 3.07498 7.38601 3.14998 7.16657 3.14998H2.98324V12.85H7.16657C7.38601 12.85 7.57143 12.926 7.72282 13.0779C7.87421 13.2299 7.9499 13.416 7.9499 13.6362C7.9499 13.8565 7.87421 14.0417 7.72282 14.1917C7.57143 14.3417 7.38601 14.4167 7.16657 14.4167H2.98324Z" fill="#002E40"/>
</svg>
