<svg width="16" height="16" viewBox="0 0 16 16" fill="none" xmlns="http://www.w3.org/2000/svg">
<g clip-path="url(#clip0_6998_25202)">
<path d="M5.32263 6.85273V2.22931C2.77979 2.22931 0.699219 4.30988 0.699219 6.85273C0.699219 9.39558 2.77979 11.4761 5.32263 11.4761C7.86547 11.4761 9.94604 9.39563 9.94604 6.85273H5.32263Z" fill="#002E40"/>
<path d="M7.86572 11.925C7.58935 11.925 7.36572 12.1486 7.36572 12.425V14.8889C7.36572 15.1652 7.58935 15.3889 7.86572 15.3889C8.14209 15.3889 8.36572 15.1652 8.36572 14.8889V12.425C8.36572 12.1486 8.14209 11.925 7.86572 11.925Z" fill="#002E40"/>
<path d="M10.1777 11.1037C9.90136 11.1037 9.67773 11.3273 9.67773 11.6037V14.8889C9.67773 15.1652 9.90136 15.3889 10.1777 15.3889C10.4541 15.3889 10.6777 15.1652 10.6777 14.8889V11.6037C10.6777 11.3273 10.4541 11.1037 10.1777 11.1037Z" fill="#002E40"/>
<path d="M12.4893 10.2824C12.2129 10.2824 11.9893 10.506 11.9893 10.7824V14.8889C11.9893 15.1652 12.2129 15.3889 12.4893 15.3889C12.7656 15.3889 12.9893 15.1652 12.9893 14.8889V10.7824C12.9893 10.506 12.7656 10.2824 12.4893 10.2824Z" fill="#002E40"/>
<path d="M14.8008 11.1037C14.5244 11.1037 14.3008 11.3273 14.3008 11.6037V14.8889C14.3008 15.1652 14.5244 15.3889 14.8008 15.3889C15.0772 15.3889 15.3008 15.1652 15.3008 14.8889V11.6037C15.3008 11.3273 15.0772 11.1037 14.8008 11.1037Z" fill="#002E40"/>
<path d="M14.8008 1.76697C14.8008 1.1286 14.2833 0.611145 13.645 0.611145C13.188 0.611145 12.8014 0.881955 12.6138 1.26679H10.2928C10.16 1.26679 10.033 1.31951 9.93927 1.41326L9.44635 1.90631C8.66266 1.3197 7.68286 0.957875 6.59424 0.957875V5.58128H11.2177C11.2696 4.43859 10.8613 3.40258 10.1732 2.59344L10.4998 2.26678H12.6136C12.8011 2.65185 13.1879 2.92285 13.645 2.92285C14.2833 2.92285 14.8008 2.40533 14.8008 1.76697Z" fill="#002E40"/>
</g>
<defs>
<clipPath id="clip0_6998_25202">
<rect width="16" height="16" fill="white"/>
</clipPath>
</defs>
</svg>
