<svg width="16" height="16" viewBox="0 0 16 16" fill="none" xmlns="http://www.w3.org/2000/svg">
<path d="M14.75 12.7004H14V5.69995C14 5.42383 13.7761 5.19995 13.5 5.19995H12.5C12.2239 5.19995 12 5.42383 12 5.69995V12.7004H10.6667V2.5C10.6667 2.22382 10.4428 2 10.1667 2H9.16669C8.89051 2 8.66669 2.22382 8.66669 2.5V12.7004H7.33332V7.29999C7.33332 7.02381 7.1095 6.79999 6.83332 6.79999H5.83332C5.5572 6.79999 5.33332 7.02381 5.33332 7.29999V12.7004H4.00001V5.69995C4.00001 5.42383 3.77613 5.19995 3.50001 5.19995H2.50001C2.22389 5.19995 2.00001 5.42383 2.00001 5.69995V12.7004H1.25C1.11194 12.7004 1 12.8123 1 12.9504V13.4504C1 13.5884 1.11194 13.7004 1.25 13.7004H14.75C14.8881 13.7004 15 13.5884 15 13.4504V12.9504C15 12.8123 14.8881 12.7004 14.75 12.7004Z" fill="#002E40"/>
</svg>
