<svg width="16" height="16" viewBox="0 0 16 16" fill="none" xmlns="http://www.w3.org/2000/svg">
<g clip-path="url(#clip0_91_31)">
<path d="M9.17254 1.2431V2.98397L9.24756 2.99357C10.075 3.1 10.8625 3.42593 11.5249 3.93622L11.5847 3.98228L12.8171 2.75037L12.7435 2.69021C11.7457 1.87452 10.5435 1.37731 9.26691 1.25229" fill="#D62172"/>
<path d="M11.5247 11.4985C10.8636 12.0104 10.0769 12.3373 9.24976 12.4436L9.17474 12.4532V14.194L9.26912 14.1847C10.5458 14.0595 11.7472 13.5615 12.7436 12.7447L12.817 12.6846L11.5846 11.4521L11.5247 11.4985Z" fill="#27B0CD"/>
<path d="M13.3502 8.34139C13.2435 9.1679 12.9173 9.95458 12.4069 10.6165L12.3608 10.6764L13.5932 11.9084L13.6533 11.8349C14.4693 10.8374 14.9663 9.63611 15.0908 8.3608L15.1 8.26642H13.3599L13.3502 8.34139Z" fill="#254E9E"/>
<path d="M12.4069 4.81869C12.9173 5.48066 13.2435 6.26734 13.3502 7.09364L13.3599 7.16861H15.1L15.0908 7.07423C14.9664 5.79932 14.4693 4.59796 13.6534 3.60006L13.5932 3.52652L12.3608 4.75883L12.4069 4.81869Z" fill="#9B378E"/>
<path d="M7.98277 1.25229C6.70444 1.37751 5.50298 1.87555 4.50845 2.69246C4.17971 2.96088 3.8737 3.26618 3.59905 3.59987C2.78311 4.59788 2.28554 5.80016 2.16063 7.0767C2.13969 7.29456 2.12907 7.51028 2.12907 7.71783C2.12907 7.92681 2.13969 8.14304 2.16063 8.3607C2.20787 8.84903 2.31123 9.32857 2.46797 9.78606L2.49095 9.85306L2.56112 9.84336C3.09853 9.769 3.66438 9.77258 4.21981 9.86083L4.38109 9.88636L4.31097 9.73887C4.10271 9.301 3.96513 8.83085 3.902 8.34048C3.87442 8.14335 3.86043 7.93386 3.86043 7.71784C3.86043 7.50314 3.87442 7.29427 3.9021 7.09591C4.00868 6.26807 4.33456 5.48057 4.8448 4.8183C5.09683 4.48757 5.3937 4.19086 5.72749 3.93622C6.38976 3.42562 7.17629 3.0997 8.00213 2.99357L8.07715 2.98397V1.2431" fill="#C8161D"/>
<path d="M5.14007 10.9458C3.69925 10.3678 2.14368 10.5289 0.900002 11.2543C1.29748 12.6375 2.31108 13.8289 3.75234 14.4066C5.19332 14.9845 6.7479 14.8239 7.9915 14.0983C7.59365 12.7147 6.58134 11.5237 5.14007 10.9458Z" fill="#C8161D"/>
</g>
<defs>
<clipPath id="clip0_91_31">
<rect width="16" height="16" fill="white"/>
</clipPath>
</defs>
</svg>
