<svg width="16" height="16" viewBox="0 0 16 16" fill="none" xmlns="http://www.w3.org/2000/svg">
<path d="M11.5023 4.02173L11.5619 4.06721L12.7938 2.84964L12.7206 2.78969C11.7229 1.98349 10.5214 1.49253 9.24451 1.3685L9.15039 1.36023V3.08013L9.22568 3.08943C10.0529 3.19485 10.8403 3.51734 11.5023 4.02173Z" fill="#D7000F"/>
<path d="M11.5021 11.4946C10.8412 12.0001 10.0548 12.3236 9.22764 12.429L9.15234 12.4383V14.1582L9.24646 14.1489C10.5233 14.0249 11.7238 13.5329 12.7204 12.7256L12.7937 12.6657L11.5618 11.4481L11.5021 11.4946Z" fill="#D7000F"/>
<path d="M13.3272 8.37422C13.2205 9.19076 12.8942 9.96802 12.3839 10.6223L12.3379 10.6812L13.5698 11.8988L13.6304 11.8264C14.4461 10.8404 14.9429 9.65381 15.0673 8.39283L15.0767 8.2998H13.3366L13.3272 8.37422Z" fill="#D7000F"/>
<path d="M12.3839 4.89306C12.8942 5.54733 13.2205 6.32459 13.3272 7.14112L13.3366 7.21554H15.0767L15.0673 7.12252C14.9429 5.86257 14.4461 4.67498 13.6304 3.68893L13.5698 3.61658L12.3379 4.83415L12.3839 4.89306Z" fill="#D7000F"/>
<path d="M4.48741 2.79175C4.15905 3.05739 3.85264 3.3592 3.57866 3.68891C2.76297 4.67496 2.26519 5.86359 2.14075 7.12457C2.11983 7.33956 2.10938 7.55351 2.10938 7.75816C2.10938 7.96488 2.11983 8.17883 2.14075 8.39382C2.18781 8.87651 2.29134 9.34989 2.4482 9.80261L2.47121 9.86876L2.54127 9.85946C3.07879 9.78607 3.64454 9.78917 4.19983 9.87703L4.36088 9.90183L4.29081 9.7561C4.08271 9.32302 3.94467 8.85894 3.88192 8.37418C3.85473 8.17987 3.84009 7.97212 3.84009 7.7592C3.84009 7.54731 3.85369 7.34059 3.88192 7.14421C3.98859 6.3256 4.31382 5.54834 4.82415 4.89305C5.07617 4.56643 5.37317 4.27289 5.70676 4.02173C6.36872 3.51734 7.15513 3.19485 7.98127 3.09046L8.05656 3.08116V1.36023L7.96245 1.36953C6.68245 1.49253 5.48192 1.98452 4.48741 2.79175Z" fill="#D7000F"/>
<path d="M5.11887 10.9478C3.67783 10.3773 2.12279 10.5365 0.879395 11.2528C1.27678 12.6192 2.29011 13.7975 3.73116 14.368C5.1722 14.9396 6.72619 14.7804 7.96959 14.0631C7.57116 12.6967 6.55992 11.5194 5.11887 10.9478Z" fill="#D7000F"/>
</svg>
