<svg width="16" height="16" viewBox="0 0 16 16" fill="none" xmlns="http://www.w3.org/2000/svg">
<path d="M10.1 7.56668L8.26667 8.36668C8.16667 8.40001 8.1 8.40001 8 8.40001C7.9 8.40001 7.83333 8.36668 7.73333 8.33334L1 5.46667V11.6667C1 12.6 1.73333 13.3333 2.66667 13.3333H13.3333C14.2667 13.3333 15 12.6 15 11.6667V7.73334C14.3333 8.20001 13.5333 8.50001 12.6667 8.50001C11.7 8.50001 10.8 8.16668 10.1 7.56668Z" fill="#002E40"/>
<path d="M9.09987 2.66669H2.66654C1.86654 2.66669 1.16654 3.26669 1.0332 4.03335L7.99987 7.00002L9.19987 6.50002C8.86654 5.90002 8.66654 5.23335 8.66654 4.50002C8.66654 3.83335 8.8332 3.20002 9.09987 2.66669Z" fill="#002E40"/>
<path d="M12.6667 7.16665C14.1394 7.16665 15.3333 5.97274 15.3333 4.49998C15.3333 3.02722 14.1394 1.83331 12.6667 1.83331C11.1939 1.83331 10 3.02722 10 4.49998C10 5.97274 11.1939 7.16665 12.6667 7.16665Z" fill="#CB0000"/>
</svg>
