<svg width="16" height="16" viewBox="0 0 16 16" fill="none" xmlns="http://www.w3.org/2000/svg">
<path d="M1.0332 11.6834V11.5167C1.0332 11.1278 1.1332 10.7723 1.3332 10.45C1.5332 10.1278 1.79987 9.86672 2.1332 9.66672C2.79987 9.27783 3.49431 8.98616 4.21654 8.79172C4.93876 8.59727 5.6832 8.50005 6.44987 8.50005C6.69431 8.50005 6.87209 8.60005 6.9832 8.80005C7.09431 9.00005 7.11654 9.22227 7.04987 9.46672C6.97209 9.6556 6.91931 9.85283 6.89154 10.0584C6.86376 10.2639 6.84987 10.4723 6.84987 10.6834C6.84987 10.9834 6.87487 11.2834 6.92487 11.5834C6.97487 11.8834 7.06098 12.1723 7.1832 12.45C7.29431 12.7389 7.2832 13.0112 7.14987 13.2667C7.01654 13.5223 6.80543 13.65 6.51654 13.65H2.99987C2.44431 13.65 1.97765 13.4612 1.59987 13.0834C1.22209 12.7056 1.0332 12.2389 1.0332 11.6834ZM11.6665 11.7834C11.9554 11.7834 12.2054 11.675 12.4165 11.4584C12.6276 11.2417 12.7332 10.9889 12.7332 10.7C12.7332 10.4112 12.6276 10.1612 12.4165 9.95005C12.2054 9.73894 11.9554 9.63338 11.6665 9.63338C11.3776 9.63338 11.1249 9.73894 10.9082 9.95005C10.6915 10.1612 10.5832 10.4112 10.5832 10.7C10.5832 10.9889 10.6915 11.2417 10.9082 11.4584C11.1249 11.675 11.3776 11.7834 11.6665 11.7834ZM6.39987 7.71672C5.56654 7.71672 4.86376 7.4306 4.29154 6.85838C3.71931 6.28616 3.4332 5.58338 3.4332 4.75005C3.4332 3.91672 3.71931 3.21672 4.29154 2.65005C4.86376 2.08338 5.56654 1.80005 6.39987 1.80005C7.2332 1.80005 7.93598 2.08338 8.5082 2.65005C9.08043 3.21672 9.36654 3.91672 9.36654 4.75005C9.36654 5.58338 9.08043 6.28616 8.5082 6.85838C7.93598 7.4306 7.2332 7.71672 6.39987 7.71672ZM10.7832 13.6L10.6832 13.15C10.5721 13.1167 10.4582 13.0639 10.3415 12.9917C10.2249 12.9195 10.1221 12.85 10.0332 12.7834L9.5832 12.9334C9.41654 12.9778 9.25543 12.9723 9.09987 12.9167C8.94431 12.8612 8.82765 12.7556 8.74987 12.6L8.5832 12.3167C8.50543 12.1723 8.47765 12.0167 8.49987 11.85C8.52209 11.6834 8.59431 11.5389 8.71654 11.4167L9.04987 11.1C8.99431 11 8.97209 10.875 8.9832 10.725C8.99431 10.575 9.01654 10.45 9.04987 10.35L8.71654 10.0167C8.59431 9.89449 8.52209 9.7556 8.49987 9.60005C8.47765 9.44449 8.50543 9.28894 8.5832 9.13338L8.74987 8.86672C8.82765 8.71116 8.94431 8.60283 9.09987 8.54172C9.25543 8.4806 9.41654 8.47227 9.5832 8.51672L10.0165 8.65005C10.1054 8.57227 10.211 8.49449 10.3332 8.41672C10.4554 8.33894 10.5721 8.28894 10.6832 8.26672L10.7832 7.81672C10.8165 7.65005 10.9026 7.51394 11.0415 7.40838C11.1804 7.30283 11.3332 7.25005 11.4999 7.25005H11.8165C11.9943 7.25005 12.1499 7.30005 12.2832 7.40005C12.4165 7.50005 12.4999 7.63338 12.5332 7.80005L12.6332 8.26672C12.7443 8.30005 12.8638 8.35005 12.9915 8.41672C13.1193 8.48338 13.2276 8.56116 13.3165 8.65005L13.7499 8.51672C13.9054 8.47227 14.061 8.48338 14.2165 8.55005C14.3721 8.61672 14.4943 8.72227 14.5832 8.86672L14.7332 9.13338C14.8221 9.28894 14.8499 9.44727 14.8165 9.60838C14.7832 9.76949 14.7054 9.91116 14.5832 10.0334L14.2832 10.3334C14.3165 10.4556 14.3304 10.5862 14.3249 10.725C14.3193 10.8639 14.2999 10.9889 14.2665 11.1L14.5832 11.4C14.7054 11.5223 14.7832 11.6695 14.8165 11.8417C14.8499 12.0139 14.8221 12.1723 14.7332 12.3167L14.5832 12.5834C14.5054 12.7389 14.386 12.8417 14.2249 12.8917C14.0638 12.9417 13.8999 12.9445 13.7332 12.9L13.2999 12.7834C13.211 12.85 13.1054 12.9223 12.9832 13C12.861 13.0778 12.7443 13.1278 12.6332 13.15L12.5165 13.6C12.4832 13.7667 12.3999 13.9028 12.2665 14.0084C12.1332 14.1139 11.9832 14.1667 11.8165 14.1667H11.4832C11.3054 14.1667 11.1526 14.1139 11.0249 14.0084C10.8971 13.9028 10.8165 13.7667 10.7832 13.6Z" fill="#66828C"/>
</svg>
