<svg width="16" height="16" viewBox="0 0 16 16" fill="none" xmlns="http://www.w3.org/2000/svg">
<path d="M13.5001 4.50004H2.50008C2.03341 4.50004 1.66675 4.13337 1.66675 3.66671C1.66675 3.20004 2.03341 2.83337 2.50008 2.83337H13.5001C13.9667 2.83337 14.3334 3.20004 14.3334 3.66671C14.3334 4.13337 13.9667 4.50004 13.5001 4.50004Z" fill="white"/>
<path d="M10.8334 8.83329H2.50008C2.03341 8.83329 1.66675 8.46663 1.66675 7.99996C1.66675 7.53329 2.03341 7.16663 2.50008 7.16663H10.8334C11.3001 7.16663 11.6667 7.53329 11.6667 7.99996C11.6667 8.46663 11.3001 8.83329 10.8334 8.83329Z" fill="white"/>
<path d="M10.8334 13.1667H2.50008C2.03341 13.1667 1.66675 12.8 1.66675 12.3333C1.66675 11.8667 2.03341 11.5 2.50008 11.5H10.8334C11.3001 11.5 11.6667 11.8667 11.6667 12.3333C11.6667 12.8 11.3001 13.1667 10.8334 13.1667Z" fill="white"/>
</svg>
