<svg width="16" height="16" viewBox="0 0 16 16" fill="none" xmlns="http://www.w3.org/2000/svg">
<path d="M4.88333 15.9C4.29444 15.9 3.79721 15.6972 3.39166 15.2917C2.9861 14.8861 2.78333 14.3889 2.78333 13.8V2.20001C2.78333 1.61112 2.9861 1.1139 3.39166 0.708339C3.79721 0.302784 4.29444 0.100006 4.88333 0.100006H11.1167C11.7055 0.100006 12.2028 0.302784 12.6083 0.708339C13.0139 1.1139 13.2167 1.61112 13.2167 2.20001V3.78334C13.4278 3.90556 13.5944 4.07223 13.7167 4.28334C13.8389 4.49445 13.9 4.72223 13.9 4.96667V6.21667C13.9 6.46112 13.8389 6.69167 13.7167 6.90834C13.5944 7.12501 13.4278 7.29445 13.2167 7.41667V13.8C13.2167 14.3889 13.0139 14.8861 12.6083 15.2917C12.2028 15.6972 11.7055 15.9 11.1167 15.9H4.88333ZM7.28333 10.2C7.30555 10.3333 7.36388 10.4445 7.45833 10.5333C7.55277 10.6222 7.66666 10.6667 7.79999 10.6667H8.19999C8.33333 10.6667 8.44721 10.6222 8.54166 10.5333C8.6361 10.4445 8.69444 10.3333 8.71666 10.2L8.76666 9.83334C8.85555 9.81112 8.93333 9.77778 8.99999 9.73334C9.06666 9.6889 9.13333 9.63334 9.19999 9.56667L9.53333 9.71667C9.65555 9.77223 9.78055 9.77778 9.90833 9.73334C10.0361 9.6889 10.1333 9.60556 10.2 9.48334L10.4 9.13334C10.4667 9.01112 10.4889 8.8889 10.4667 8.76667C10.4444 8.64445 10.3778 8.5389 10.2667 8.45001L9.96666 8.23334C9.98888 8.14445 9.99999 8.06112 9.99999 7.98334C9.99999 7.90556 9.98888 7.82223 9.96666 7.73334L10.25 7.51667C10.3611 7.42778 10.4305 7.32223 10.4583 7.20001C10.4861 7.07778 10.4611 6.95556 10.3833 6.83334L10.1667 6.48334C10.1 6.37223 10.0055 6.29445 9.88333 6.25001C9.7611 6.20556 9.63888 6.21112 9.51666 6.26667L9.19999 6.40001C9.13333 6.34445 9.06666 6.29723 8.99999 6.25834C8.93333 6.21945 8.85555 6.1889 8.76666 6.16667L8.71666 5.80001C8.69444 5.66667 8.6361 5.55556 8.54166 5.46667C8.44721 5.37778 8.33333 5.33334 8.19999 5.33334H7.79999C7.66666 5.33334 7.55277 5.37778 7.45833 5.46667C7.36388 5.55556 7.30555 5.66667 7.28333 5.80001L7.23333 6.16667C7.14444 6.1889 7.06666 6.21945 6.99999 6.25834C6.93333 6.29723 6.86666 6.34445 6.79999 6.40001L6.48333 6.26667C6.3611 6.21112 6.23888 6.20556 6.11666 6.25001C5.99444 6.29445 5.89999 6.37223 5.83333 6.48334L5.61666 6.83334C5.53888 6.95556 5.51388 7.07778 5.54166 7.20001C5.56944 7.32223 5.63888 7.42778 5.74999 7.51667L6.03333 7.73334C6.0111 7.82223 5.99999 7.90556 5.99999 7.98334C5.99999 8.06112 6.0111 8.14445 6.03333 8.23334L5.73333 8.45001C5.62221 8.5389 5.55555 8.64445 5.53333 8.76667C5.5111 8.8889 5.53333 9.01112 5.59999 9.13334L5.79999 9.48334C5.86666 9.60556 5.96388 9.6889 6.09166 9.73334C6.21944 9.77778 6.34444 9.77223 6.46666 9.71667L6.79999 9.56667C6.86666 9.63334 6.93333 9.6889 6.99999 9.73334C7.06666 9.77778 7.14444 9.81112 7.23333 9.83334L7.28333 10.2ZM7.99999 9.00001C7.7111 9.00001 7.47221 8.90556 7.28333 8.71667C7.09444 8.52778 6.99999 8.2889 6.99999 8.00001C6.99999 7.71112 7.09444 7.47223 7.28333 7.28334C7.47221 7.09445 7.7111 7.00001 7.99999 7.00001C8.28888 7.00001 8.52777 7.09445 8.71666 7.28334C8.90555 7.47223 8.99999 7.71112 8.99999 8.00001C8.99999 8.2889 8.90555 8.52778 8.71666 8.71667C8.52777 8.90556 8.28888 9.00001 7.99999 9.00001Z" fill="#66828C"/>
</svg>
