<svg width="16" height="16" viewBox="0 0 16 16" fill="none" xmlns="http://www.w3.org/2000/svg">
<path d="M3.08343 8.98333C2.81676 8.98333 2.58621 8.88611 2.39176 8.69166C2.19732 8.49722 2.1001 8.26666 2.1001 8C2.1001 7.72222 2.19732 7.48888 2.39176 7.3C2.58621 7.11111 2.81676 7.01666 3.08343 7.01666C3.3501 7.01666 3.58343 7.11111 3.78343 7.3C3.98343 7.48888 4.08343 7.71666 4.08343 7.98333C4.08343 8.26111 3.98343 8.49722 3.78343 8.69166C3.58343 8.88611 3.3501 8.98333 3.08343 8.98333ZM8.01676 8.98333C7.73899 8.98333 7.50287 8.88611 7.30843 8.69166C7.11399 8.49722 7.01676 8.26666 7.01676 8C7.01676 7.72222 7.11399 7.48888 7.30843 7.3C7.50287 7.11111 7.73343 7.01666 8.0001 7.01666C8.27788 7.01666 8.51121 7.11111 8.7001 7.3C8.88899 7.48888 8.98343 7.71666 8.98343 7.98333C8.98343 8.26111 8.88899 8.49722 8.7001 8.69166C8.51121 8.88611 8.28343 8.98333 8.01676 8.98333ZM12.9168 8.98333C12.639 8.98333 12.4029 8.88611 12.2084 8.69166C12.014 8.49722 11.9168 8.26666 11.9168 8C11.9168 7.72222 12.014 7.48888 12.2084 7.3C12.4029 7.11111 12.639 7.01666 12.9168 7.01666C13.1945 7.01666 13.4307 7.11111 13.6251 7.3C13.8195 7.48888 13.9168 7.71666 13.9168 7.98333C13.9168 8.26111 13.8195 8.49722 13.6251 8.69166C13.4307 8.88611 13.1945 8.98333 12.9168 8.98333Z" fill="#002E40"/>
</svg>
