<svg width="16" height="16" viewBox="0 0 16 16" fill="none" xmlns="http://www.w3.org/2000/svg">
<path d="M11.7383 8.94006C11.4128 8.61454 10.8854 8.61454 10.5599 8.94006L8.83334 10.6666V3.32174C8.83334 2.86145 8.46029 2.4884 8 2.4884C7.53972 2.4884 7.16667 2.86145 7.16667 3.32174V10.6666L5.44011 8.94006C5.11459 8.61454 4.58724 8.61454 4.26172 8.94006C3.9362 9.26558 3.9362 9.79293 4.26172 10.1185L7.40995 13.2667C7.44898 13.3058 7.49205 13.3408 7.53819 13.3716C7.55735 13.3844 7.57816 13.3931 7.5981 13.4041C7.62557 13.4194 7.6522 13.4359 7.68148 13.448C7.70825 13.4591 7.7362 13.4654 7.76379 13.4735C7.78821 13.4808 7.8116 13.4902 7.83691 13.4952C7.89075 13.5059 7.94533 13.5117 8 13.5117C8.05467 13.5117 8.10925 13.5059 8.16309 13.4952C8.18846 13.4902 8.21194 13.4808 8.23641 13.4735C8.26392 13.4654 8.29179 13.4591 8.3185 13.448C8.3479 13.4358 8.37464 13.4193 8.4022 13.4039C8.42204 13.3929 8.44275 13.3843 8.46181 13.3716C8.50796 13.3408 8.55103 13.3058 8.59005 13.2667L11.7383 10.1184C12.0638 9.79293 12.0638 9.26559 11.7383 8.94006Z" fill="#002E40"/>
</svg>
