<svg width="16" height="16" viewBox="0 0 16 16" fill="none" xmlns="http://www.w3.org/2000/svg">
<path d="M12.6784 7.16663H5.33341L7.05989 5.44023C7.38541 5.11487 7.38541 4.5872 7.05989 4.26184C6.73437 3.93632 6.20703 3.93632 5.88151 4.26184L2.73327 7.40991C2.69417 7.44889 2.6592 7.49194 2.62842 7.53803C2.61531 7.55764 2.60642 7.57892 2.59515 7.59933C2.5802 7.62639 2.56392 7.65253 2.55198 7.68132C2.54069 7.70856 2.53424 7.73698 2.52598 7.76506C2.51892 7.789 2.50964 7.81195 2.50472 7.83675C2.49402 7.89061 2.48828 7.94523 2.48828 7.99994C2.48828 7.99992 2.48828 7.99996 2.48828 7.99994C2.48828 8.00035 2.4884 8.00075 2.4884 8.00116C2.48848 8.0554 2.4941 8.10958 2.50472 8.16298C2.50979 8.18854 2.51925 8.21218 2.52659 8.23682C2.53471 8.26416 2.54097 8.29187 2.55194 8.31844C2.56417 8.34796 2.58079 8.37482 2.59619 8.40253C2.60712 8.42222 2.61566 8.44277 2.62831 8.46171C2.65914 8.50787 2.69413 8.55096 2.73327 8.59001L5.88151 11.7382C6.04427 11.901 6.25748 11.9824 6.4707 11.9824C6.68392 11.9824 6.89713 11.901 7.05989 11.7382C7.38541 11.4127 7.38541 10.8854 7.05989 10.5599L5.33333 8.83329H12.6784C13.1387 8.83329 13.5117 8.46025 13.5117 7.99996C13.5117 7.53967 13.1387 7.16663 12.6784 7.16663Z" fill="#002E40"/>
</svg>
