<svg width="16" height="16" viewBox="0 0 16 16" fill="none" xmlns="http://www.w3.org/2000/svg">
<path d="M13.4479 8.31835C13.4588 8.29203 13.465 8.26456 13.473 8.23746C13.4805 8.2126 13.49 8.18875 13.4951 8.16298C13.5057 8.10957 13.5114 8.05539 13.5114 8.00115C13.5114 8.00075 13.5116 8.00036 13.5116 7.99995C13.5116 7.99993 13.5116 7.99997 13.5116 7.99995C13.5116 7.94525 13.5058 7.8906 13.4951 7.83675C13.4902 7.81172 13.4808 7.78857 13.4737 7.76442C13.4655 7.73659 13.4591 7.70841 13.4479 7.68139C13.4359 7.65238 13.4195 7.62601 13.4044 7.59875C13.3932 7.57855 13.3844 7.55745 13.3714 7.53802C13.3406 7.49192 13.3057 7.44889 13.2666 7.40991L10.1183 4.26184C9.79281 3.93632 9.26546 3.93632 8.93994 4.26184C8.61442 4.5872 8.61442 5.11487 8.93994 5.44023L10.6664 7.16662H3.32161C2.86133 7.16662 2.48828 7.53967 2.48828 7.99995C2.48828 8.46024 2.86133 8.83329 3.32161 8.83329H10.6665L8.93994 10.5599C8.61442 10.8854 8.61442 11.4127 8.93994 11.7382C9.1027 11.901 9.31592 11.9824 9.52913 11.9824C9.74235 11.9824 9.95557 11.901 10.1183 11.7382L13.2666 8.59C13.3057 8.55096 13.3407 8.50787 13.3715 8.46171C13.3841 8.44295 13.3925 8.42256 13.4033 8.40307C13.4189 8.37518 13.4356 8.3481 13.4479 8.31835Z" fill="#002E40"/>
</svg>
