<svg width="16" height="16" viewBox="0 0 16 16" fill="none" xmlns="http://www.w3.org/2000/svg">
<path d="M5.23082 3.53162C5.22844 3.52908 5.22553 3.52739 5.22313 3.52491C5.21831 3.51992 5.21347 3.51512 5.20851 3.5103C5.20604 3.5079 5.20438 3.50501 5.20185 3.50265C5.19064 3.49211 5.17776 3.48481 5.16605 3.47518C5.15128 3.46304 5.1374 3.44951 5.12186 3.43883C5.11667 3.43527 5.11113 3.4324 5.10585 3.429C5.09002 3.41877 5.0734 3.41079 5.05696 3.40202C5.04058 3.3933 5.0249 3.38314 5.00797 3.37586C5.00244 3.37348 4.99651 3.37201 4.9909 3.36978C4.9733 3.3628 4.95536 3.35796 4.93735 3.35252C4.91955 3.34713 4.90218 3.34046 4.88405 3.33661C4.87833 3.33539 4.87243 3.33497 4.86667 3.33391C4.84863 3.33057 4.83054 3.32933 4.81231 3.3275C4.79239 3.32548 4.77272 3.32263 4.7527 3.32241C4.75012 3.32239 4.74774 3.32166 4.74515 3.32166C4.74204 3.32166 4.73917 3.32253 4.73608 3.32257C4.71891 3.32282 4.70204 3.3253 4.68495 3.32685C4.66396 3.32876 4.64312 3.33016 4.62235 3.33405C4.61653 3.33515 4.61063 3.3358 4.60487 3.33704C4.58911 3.34042 4.57401 3.34636 4.55847 3.35089C4.53828 3.35679 4.51818 3.36221 4.49851 3.37006C4.49285 3.37232 4.48695 3.37397 4.48138 3.37637C4.46594 3.38302 4.45166 3.39242 4.43666 3.40027C4.41892 3.40961 4.40104 3.4182 4.38399 3.42927C4.3787 3.43268 4.37316 3.43563 4.36798 3.4392C4.3529 3.44957 4.33947 3.46276 4.32511 3.4745C4.31311 3.48432 4.29992 3.49185 4.28845 3.50265C4.28592 3.50501 4.28426 3.5079 4.28179 3.5103C4.27681 3.51513 4.27197 3.51995 4.26714 3.52493C4.26474 3.52741 4.26185 3.5291 4.25947 3.53162L2.10632 5.82199C1.85404 6.09022 1.86706 6.51209 2.13529 6.76437C2.26403 6.88546 2.42809 6.94536 2.59183 6.94536C2.7694 6.94536 2.94648 6.87472 3.07767 6.7354L4.07848 5.6708V12.0118C4.07848 12.3799 4.37698 12.6784 4.74515 12.6784C5.11331 12.6784 5.41181 12.3799 5.41181 12.0118V5.6708L6.41263 6.7354C6.54381 6.87505 6.72089 6.94536 6.89847 6.94536C7.0622 6.94536 7.22627 6.88546 7.35501 6.76437C7.62324 6.51209 7.63626 6.09021 7.38398 5.82198L5.23082 3.53162Z" fill="#002E40"/>
<path d="M13.8937 5.82198L11.7408 3.53162C11.7384 3.5291 11.7355 3.52745 11.7331 3.52497C11.7283 3.51998 11.7234 3.51512 11.7184 3.5103C11.716 3.5079 11.7143 3.50501 11.7118 3.50265C11.7003 3.4919 11.6872 3.48444 11.6752 3.47465C11.661 3.46298 11.6476 3.44985 11.6326 3.43952C11.627 3.43565 11.6211 3.43248 11.6153 3.42877C11.5992 3.41836 11.5823 3.41032 11.5655 3.40147C11.55 3.39331 11.5353 3.38357 11.5194 3.37669C11.513 3.37392 11.5063 3.37203 11.4998 3.36945C11.4821 3.36249 11.4641 3.35781 11.446 3.35242C11.4293 3.34741 11.4131 3.34092 11.396 3.33726C11.3891 3.33575 11.3819 3.33502 11.3749 3.33374C11.3573 3.33055 11.3397 3.32959 11.322 3.32782C11.3029 3.32591 11.2841 3.32294 11.2649 3.32265C11.2616 3.32261 11.2585 3.32166 11.2551 3.32166C11.2513 3.32166 11.2477 3.32271 11.2439 3.32278C11.2279 3.32306 11.2122 3.32565 11.1963 3.32707C11.1755 3.3289 11.1549 3.33006 11.1343 3.33384C11.127 3.33517 11.1198 3.33618 11.1126 3.33773C11.0984 3.34082 11.085 3.34648 11.071 3.35049C11.0505 3.35639 11.03 3.36166 11.01 3.36957C11.0031 3.3723 10.9961 3.37449 10.9894 3.37744C10.9756 3.38345 10.9629 3.39211 10.9495 3.39907C10.931 3.40865 10.9124 3.4174 10.8947 3.42883C10.8887 3.43272 10.8825 3.43616 10.8766 3.44023C10.8634 3.44938 10.8516 3.46116 10.8389 3.47137C10.8377 3.47235 10.8365 3.47337 10.8353 3.47434C10.8232 3.48423 10.8099 3.49178 10.7984 3.50264C10.7959 3.50502 10.7942 3.50791 10.7917 3.51031C10.7867 3.51516 10.7818 3.52002 10.777 3.52502C10.7746 3.52746 10.7718 3.52913 10.7694 3.53162L8.61608 5.82198C8.3638 6.09021 8.37682 6.51208 8.64505 6.76436C8.77396 6.88546 8.93802 6.94535 9.10176 6.94535C9.27917 6.94535 9.45625 6.87472 9.58743 6.73539L10.5884 5.67072V12.0118C10.5884 12.3799 10.8869 12.6784 11.2551 12.6784C11.6232 12.6784 11.9217 12.3799 11.9217 12.0118V5.6709L12.9224 6.73539C13.0536 6.87472 13.2307 6.94535 13.4081 6.94535C13.5718 6.94535 13.7359 6.88546 13.8648 6.76436C14.133 6.51241 14.146 6.09021 13.8937 5.82198Z" fill="#002E40"/>
</svg>
