<svg width="16" height="16" viewBox="0 0 16 16" fill="none" xmlns="http://www.w3.org/2000/svg">
<path d="M11.7383 5.88157L8.59004 2.7335C8.55102 2.69438 8.50795 2.65938 8.46181 2.62858C8.44291 2.61597 8.42242 2.60742 8.40277 2.59652C8.37498 2.58105 8.34804 2.56439 8.31842 2.55212C8.29193 2.54118 8.26432 2.53497 8.23706 2.52688C8.21238 2.51951 8.18868 2.51003 8.16308 2.50494C8.05542 2.48354 7.94458 2.48354 7.83691 2.50494C7.81138 2.51001 7.78778 2.51947 7.76314 2.52681C7.73582 2.53493 7.70811 2.54114 7.68156 2.55212C7.65206 2.56433 7.6252 2.58095 7.59753 2.59635C7.5778 2.60732 7.55717 2.6159 7.53819 2.62858C7.49204 2.65938 7.44897 2.69438 7.40995 2.7335L4.26172 5.88157C3.9362 6.20693 3.9362 6.7346 4.26172 7.05996C4.42448 7.22272 4.63769 7.3041 4.85091 7.3041C5.06413 7.3041 5.27734 7.22272 5.4401 7.05996L7.16666 5.33347V12.6784C7.16666 13.1387 7.53971 13.5118 8 13.5118C8.46028 13.5118 8.83333 13.1387 8.83333 12.6784V5.33347L10.5599 7.05995C10.7227 7.22271 10.9359 7.30409 11.1491 7.30409C11.3623 7.30409 11.5755 7.22271 11.7383 7.05995C12.0638 6.7346 12.0638 6.20693 11.7383 5.88157Z" fill="#002E40"/>
</svg>
