<svg width="16" height="16" viewBox="0 0 16 16" fill="none" xmlns="http://www.w3.org/2000/svg">
<path d="M13.8643 9.23572C13.5961 8.98377 13.1742 8.99711 12.9219 9.26469L11.9213 10.3292V3.98832C11.9213 3.62016 11.6228 3.32166 11.2546 3.32166C10.8864 3.32166 10.5879 3.62016 10.5879 3.98832V10.3294L9.58695 9.26469C9.33467 8.99614 8.91312 8.98344 8.64456 9.23572C8.37633 9.488 8.36331 9.90987 8.61559 10.1781L10.7689 12.4685C10.7712 12.4709 10.7741 12.4725 10.7764 12.475C10.7813 12.48 10.7862 12.4849 10.7912 12.4898C10.7937 12.4922 10.7954 12.4951 10.7979 12.4974C10.8109 12.5096 10.8256 12.5185 10.8392 12.5294C10.8413 12.5311 10.8433 12.5328 10.8454 12.5345C10.8569 12.5435 10.8674 12.5543 10.8793 12.5624C10.8833 12.5651 10.8876 12.5672 10.8916 12.5698C10.9109 12.5824 10.9313 12.592 10.9516 12.6024C10.9593 12.6064 10.9665 12.6111 10.9744 12.6148C10.9815 12.6181 10.9879 12.623 10.9951 12.626C10.998 12.6273 11.0013 12.6277 11.0043 12.6289C11.0283 12.6386 11.0529 12.6448 11.0776 12.6516C11.0924 12.6557 11.1062 12.6619 11.1214 12.665C11.1234 12.6654 11.1253 12.6654 11.1273 12.6658C11.1694 12.6739 11.2119 12.6784 11.2546 12.6784C11.2973 12.6784 11.34 12.6739 11.3822 12.6657C11.3839 12.6653 11.3857 12.6654 11.3874 12.665C11.4027 12.6619 11.4167 12.6557 11.4316 12.6516C11.4562 12.6448 11.4809 12.6386 11.5048 12.6289C11.508 12.6276 11.5115 12.6271 11.5146 12.6257C11.516 12.6251 11.5172 12.6242 11.5186 12.6236C11.5323 12.6177 11.5444 12.6092 11.5576 12.6024C11.5778 12.592 11.5982 12.5824 11.6176 12.5698C11.6218 12.5671 11.6262 12.5649 11.6304 12.562C11.6412 12.5547 11.6505 12.5449 11.661 12.5368C11.664 12.5344 11.6669 12.5318 11.6699 12.5294C11.6836 12.5185 11.6983 12.5096 11.7113 12.4974C11.7138 12.4951 11.7155 12.4922 11.7179 12.4898C11.723 12.4849 11.7279 12.48 11.7328 12.4749C11.7351 12.4725 11.7379 12.4709 11.7403 12.4685L13.8932 10.1781C14.1455 9.90987 14.1325 9.48767 13.8643 9.23572Z" fill="#002E40"/>
<path d="M6.41263 9.26469L5.41165 10.3294V3.98832C5.41165 3.62016 5.11315 3.32166 4.74499 3.32166C4.37682 3.32166 4.07832 3.62016 4.07832 3.98832V10.3292L3.07767 9.26469C2.82539 8.99679 2.40384 8.98344 2.13529 9.23572C1.86706 9.48768 1.85404 9.90987 2.10632 10.1781L4.25931 12.4685C4.26163 12.4709 4.26446 12.4725 4.2668 12.4749C4.27168 12.48 4.27658 12.4849 4.28163 12.4898C4.28409 12.4922 4.28576 12.4951 4.28828 12.4974C4.30126 12.5096 4.31599 12.5185 4.32964 12.5294C4.33267 12.5318 4.33554 12.5344 4.33861 12.5368C4.34903 12.5449 4.35841 12.5547 4.36919 12.562C4.37332 12.5649 4.37778 12.5671 4.38197 12.5698C4.40132 12.5824 4.42172 12.592 4.44199 12.6024C4.45517 12.6092 4.4673 12.6177 4.48097 12.6236C4.48233 12.6242 4.48355 12.6252 4.48493 12.6257C4.48807 12.6271 4.49157 12.6276 4.49474 12.6289C4.51867 12.6386 4.54332 12.6448 4.56798 12.6516C4.58286 12.6558 4.59687 12.662 4.61215 12.665C4.61388 12.6654 4.61563 12.6654 4.61736 12.6657C4.65954 12.6739 4.70222 12.6784 4.74498 12.6784C4.78775 12.6784 4.83043 12.6739 4.87261 12.6657C4.87434 12.6654 4.87609 12.6654 4.87781 12.665C4.89309 12.662 4.90711 12.6558 4.92198 12.6516C4.94664 12.6448 4.9713 12.6386 4.99523 12.6289C4.9984 12.6276 5.0019 12.6271 5.00503 12.6257C5.00642 12.6252 5.00764 12.6242 5.009 12.6236C5.02267 12.6177 5.0348 12.6092 5.04798 12.6024C5.06824 12.592 5.08865 12.5824 5.108 12.5698C5.11219 12.5671 5.11664 12.5649 5.12077 12.562C5.13156 12.5547 5.14094 12.5449 5.15135 12.5368C5.15443 12.5344 5.15729 12.5318 5.16033 12.5294C5.17398 12.5185 5.18871 12.5096 5.20169 12.4974C5.20421 12.4951 5.20588 12.4922 5.20836 12.4898C5.21341 12.4849 5.21829 12.48 5.22317 12.4749C5.22551 12.4725 5.22834 12.4709 5.23066 12.4685L7.38398 10.1781C7.63626 9.90987 7.62323 9.488 7.35501 9.23572C7.08646 8.98377 6.66491 8.99711 6.41263 9.26469Z" fill="#002E40"/>
</svg>
