<svg width="16" height="16" viewBox="0 0 16 16" fill="none" xmlns="http://www.w3.org/2000/svg">
<path d="M3.1501 13.2333C2.86121 13.2333 2.61399 13.1306 2.40843 12.925C2.20288 12.7194 2.1001 12.4722 2.1001 12.1833C2.1001 11.8944 2.20288 11.6472 2.40843 11.4417C2.61399 11.2361 2.86121 11.1333 3.1501 11.1333H3.23343V7.03333C3.23343 5.96666 3.54176 5.00555 4.15843 4.15C4.7751 3.29444 5.59454 2.73888 6.61676 2.48333V2.15C6.61676 1.76111 6.7501 1.43333 7.01676 1.16666C7.28343 0.899996 7.61121 0.766663 8.0001 0.766663C8.38899 0.766663 8.71676 0.899996 8.98343 1.16666C9.2501 1.43333 9.38343 1.76111 9.38343 2.15V2.48333C10.4168 2.73888 11.239 3.29166 11.8501 4.14166C12.4612 4.99166 12.7668 5.95555 12.7668 7.03333V11.1333H12.8501C13.139 11.1333 13.3862 11.2361 13.5918 11.4417C13.7973 11.6472 13.9001 11.8944 13.9001 12.1833C13.9001 12.4722 13.7973 12.7194 13.5918 12.925C13.3862 13.1306 13.139 13.2333 12.8501 13.2333H3.1501ZM8.01676 15.4167C7.59454 15.4167 7.23343 15.2694 6.93343 14.975C6.63343 14.6806 6.48343 14.3222 6.48343 13.9H9.53343C9.53343 14.3222 9.38621 14.6806 9.09176 14.975C8.79732 15.2694 8.43899 15.4167 8.01676 15.4167ZM8.0001 8.31666C8.18899 8.31666 8.35288 8.24722 8.49176 8.10833C8.63065 7.96944 8.7001 7.80555 8.7001 7.61666V6.08333C8.7001 5.89444 8.63065 5.73055 8.49176 5.59166C8.35288 5.45277 8.18899 5.38333 8.0001 5.38333C7.81121 5.38333 7.64732 5.45277 7.50843 5.59166C7.36954 5.73055 7.3001 5.89444 7.3001 6.08333V7.61666C7.3001 7.80555 7.36954 7.96944 7.50843 8.10833C7.64732 8.24722 7.81121 8.31666 8.0001 8.31666ZM8.0001 10.4667C8.2001 10.4667 8.3751 10.3944 8.5251 10.25C8.6751 10.1056 8.7501 9.93333 8.7501 9.73333C8.7501 9.53333 8.6751 9.35833 8.5251 9.20833C8.3751 9.05833 8.2001 8.98333 8.0001 8.98333C7.8001 8.98333 7.6251 9.05833 7.4751 9.20833C7.3251 9.35833 7.2501 9.53333 7.2501 9.73333C7.2501 9.93333 7.3251 10.1056 7.4751 10.25C7.6251 10.3944 7.8001 10.4667 8.0001 10.4667Z" fill="#EAB600"/>
</svg>
