<svg width="16" height="16" viewBox="0 0 16 16" fill="none" xmlns="http://www.w3.org/2000/svg">
<path d="M3.53311 14.5667C2.94422 14.5667 2.44699 14.3639 2.04144 13.9584C1.63588 13.5528 1.43311 13.0556 1.43311 12.4667V3.53335C1.43311 2.94446 1.63588 2.44724 2.04144 2.04168C2.44699 1.63613 2.94422 1.43335 3.53311 1.43335H6.94977C7.23866 1.43335 7.48588 1.53613 7.69144 1.74168C7.89699 1.94724 7.99977 2.19446 7.99977 2.48335C7.99977 2.77224 7.89699 3.01946 7.69144 3.22502C7.48588 3.43057 7.23866 3.53335 6.94977 3.53335H3.53311V12.4667H12.4664V9.05002C12.4664 8.76113 12.5692 8.51391 12.7748 8.30835C12.9803 8.10279 13.2276 8.00002 13.5164 8.00002C13.8053 8.00002 14.0526 8.10279 14.2581 8.30835C14.4637 8.51391 14.5664 8.76113 14.5664 9.05002V12.4667C14.5664 13.0556 14.3637 13.5528 13.9581 13.9584C13.5526 14.3639 13.0553 14.5667 12.4664 14.5667H3.53311ZM12.4664 4.98335L7.69977 9.75002C7.49977 9.95002 7.26088 10.0472 6.98311 10.0417C6.70533 10.0361 6.46644 9.93335 6.26644 9.73335C6.06644 9.53335 5.96644 9.29168 5.96644 9.00835C5.96644 8.72502 6.06644 8.48335 6.26644 8.28335L11.0164 3.53335H10.3831C10.0942 3.53335 9.84699 3.43057 9.64144 3.22502C9.43588 3.01946 9.33311 2.77224 9.33311 2.48335C9.33311 2.19446 9.43588 1.94724 9.64144 1.74168C9.84699 1.53613 10.0942 1.43335 10.3831 1.43335H14.5664V5.61668C14.5664 5.90557 14.4637 6.15279 14.2581 6.35835C14.0526 6.56391 13.8053 6.66668 13.5164 6.66668C13.2276 6.66668 12.9803 6.56391 12.7748 6.35835C12.5692 6.15279 12.4664 5.90557 12.4664 5.61668V4.98335Z" fill="#116699"/>
</svg>
