<svg width="16" height="16" viewBox="0 0 16 16" fill="none" xmlns="http://www.w3.org/2000/svg">
<g clip-path="url(#clip0_7043_28820)">
<path d="M5.45753 12.7574C4.06542 12.261 2.91981 11.2474 2.26022 9.94113H4.2762C4.52455 10.8922 4.91247 11.7965 5.4262 12.6357C5.30022 12.1556 5.22639 11.6543 5.22639 11.1346C5.22639 10.2338 5.43391 9.38343 5.79442 8.61945H5.35629C5.29813 8.20862 5.25832 7.79328 5.25832 7.37094C5.25832 6.94878 5.29808 6.53356 5.35623 6.12285H8.01631C8.92223 5.55791 9.98861 5.22613 11.1349 5.22613C12.304 5.22613 13.3906 5.57008 14.3078 6.15585C14.3059 6.14499 14.3052 6.13372 14.3033 6.12286C14.2213 5.66515 14.0956 5.22359 13.9299 4.80119C12.9711 2.35652 10.6908 0.579921 7.9651 0.351991C7.88362 0.345171 7.80078 0.343561 7.71853 0.339531C7.60269 0.333891 7.48846 0.322021 7.3712 0.322021C7.25394 0.322021 7.13976 0.333891 7.02387 0.339531C6.94162 0.343571 6.85878 0.345171 6.7773 0.351991C4.05158 0.579921 1.77129 2.35652 0.812496 4.80119C0.646816 5.22359 0.521066 5.66516 0.439116 6.12286C0.366536 6.52858 0.322266 6.94428 0.322266 7.37095C0.322266 7.79774 0.366596 8.21361 0.439226 8.61946C0.521176 9.07717 0.646926 9.51868 0.812666 9.94113C1.69586 12.1925 3.70561 13.8611 6.14613 14.2911C5.84764 13.8204 5.61402 13.3058 5.45753 12.7574ZM12.4824 4.80118H10.4667C10.204 3.79521 9.79031 2.8389 9.23106 1.95975C10.6489 2.44861 11.8139 3.47714 12.4824 4.80118ZM7.3712 1.66191C8.16579 2.58931 8.75542 3.65273 9.10459 4.80118H5.63804C5.98709 3.65273 6.57667 2.58931 7.3712 1.66191ZM5.51147 1.95975C4.95229 2.83891 4.53879 3.79521 4.27614 4.80118H2.25998C2.92853 3.47707 4.0936 2.44855 5.51147 1.95975ZM1.64394 7.37095C1.64394 6.9419 1.69521 6.5252 1.78506 6.12286H4.0215C3.97112 6.53446 3.93664 6.94968 3.93664 7.37095C3.93664 7.79234 3.97118 8.20768 4.02162 8.61946H1.78518C1.69528 8.217 1.64394 7.80018 1.64394 7.37095Z" fill="#002E40"/>
<path d="M15.6782 11.1346C15.6782 13.6438 13.6441 15.6778 11.135 15.6778C8.62586 15.6778 6.5918 13.6438 6.5918 11.1346C6.5918 8.62549 8.62586 6.59143 11.135 6.59143C13.6441 6.59143 15.6782 8.62549 15.6782 11.1346ZM10.0383 13.0119L10.4474 12.6028C10.5479 12.5023 10.5479 12.3394 10.4474 12.2389L9.38701 11.1785C9.36279 11.1543 9.36279 11.115 9.38701 11.0908L10.4474 10.0303C10.5479 9.92986 10.5479 9.76696 10.4474 9.66648L10.0383 9.25733C9.93781 9.15685 9.77491 9.15685 9.67443 9.25733L8.02293 10.9088C7.89823 11.0335 7.89823 11.2357 8.02293 11.3604L9.67443 13.0119C9.77491 13.1124 9.93781 13.1124 10.0383 13.0119ZM12.2317 9.25734L11.8226 9.66649C11.7221 9.76697 11.7221 9.92987 11.8226 10.0304L12.883 11.0908C12.9072 11.115 12.9072 11.1543 12.883 11.1785L11.8226 12.2389C11.7221 12.3394 11.7221 12.5023 11.8226 12.6028L12.2317 13.0119C12.3322 13.1124 12.4951 13.1124 12.5956 13.0119L14.2471 11.3604C14.3718 11.2357 14.3718 11.0336 14.2471 10.9089L12.5956 9.25735C12.4951 9.15687 12.3322 9.15686 12.2317 9.25734Z" fill="#002E40"/>
</g>
<defs>
<clipPath id="clip0_7043_28820">
<rect width="16" height="16" fill="white"/>
</clipPath>
</defs>
</svg>
