<svg width="16" height="16" viewBox="0 0 16 16" fill="none" xmlns="http://www.w3.org/2000/svg">
<path d="M12.4002 12.3166V10.7833C12.4002 10.6944 12.3668 10.6166 12.3002 10.55C12.2335 10.4833 12.1557 10.45 12.0668 10.45C11.9779 10.45 11.9002 10.4833 11.8335 10.55C11.7668 10.6166 11.7335 10.6944 11.7335 10.7833V12.2666C11.7335 12.3656 11.7529 12.4654 11.7918 12.5659C11.8307 12.6664 11.8891 12.7555 11.9668 12.8333L12.9457 13.7955C13.0153 13.8763 13.0946 13.9166 13.1835 13.9166C13.2724 13.9166 13.3502 13.8805 13.4168 13.8083C13.4835 13.7361 13.5168 13.6583 13.5168 13.575C13.5168 13.4916 13.4835 13.4111 13.4168 13.3333L12.4002 12.3166ZM12.0585 15.5833C11.1974 15.5833 10.4613 15.2778 9.85016 14.6666C9.23905 14.0555 8.9335 13.3222 8.9335 12.4666C8.9335 11.6062 9.239 10.8662 9.85 10.2464C10.461 9.62654 11.1999 9.31664 12.0668 9.31664C12.9224 9.31664 13.6585 9.62654 14.2752 10.2464C14.8918 10.8662 15.2002 11.6062 15.2002 12.4666C15.2002 13.3222 14.8918 14.0555 14.2752 14.6666C13.6585 15.2778 12.9196 15.5833 12.0585 15.5833ZM5.31683 5.84997H10.6835C10.8252 5.84997 10.9439 5.80178 11.0397 5.70539C11.1356 5.60899 11.1835 5.48954 11.1835 5.34706C11.1835 5.20456 11.1356 5.08608 11.0397 4.99164C10.9439 4.89719 10.8252 4.84997 10.6835 4.84997H5.31683C5.17516 4.84997 5.05641 4.89817 4.96058 4.99455C4.86475 5.09095 4.81683 5.2104 4.81683 5.35289C4.81683 5.49539 4.86475 5.61386 4.96058 5.70831C5.05641 5.80275 5.17516 5.84997 5.31683 5.84997ZM8.4335 14.4666H3.15016C2.71933 14.4666 2.35051 14.3116 2.0437 14.0015C1.7369 13.6915 1.5835 13.3187 1.5835 12.8833V3.1833C1.5835 2.75247 1.7369 2.38365 2.0437 2.07685C2.35051 1.77004 2.71933 1.61664 3.15016 1.61664H12.8502C13.2856 1.61664 13.6583 1.77004 13.9684 2.07685C14.2785 2.38365 14.4335 2.75247 14.4335 3.1833V9.09997C14.0779 8.84442 13.7025 8.65553 13.3071 8.53331C12.9118 8.41108 12.4983 8.34997 12.0668 8.34997C11.9113 8.34997 11.7613 8.35738 11.6168 8.37219C11.4724 8.38701 11.3279 8.40738 11.1835 8.43331V8.26664C11.2057 8.06664 11.1668 7.89442 11.0668 7.74997C10.9668 7.60553 10.8391 7.53331 10.6835 7.53331H5.31683C5.17516 7.53331 5.05641 7.5815 4.96058 7.67789C4.86475 7.77429 4.81683 7.89373 4.81683 8.03622C4.81683 8.17872 4.86475 8.29719 4.96058 8.39164C5.05641 8.48608 5.17516 8.53331 5.31683 8.53331H10.5335C10.1224 8.71108 9.75572 8.94442 9.4335 9.23331C9.11127 9.52219 8.84461 9.84997 8.6335 10.2166H5.31683C5.17516 10.2166 5.05641 10.2648 4.96058 10.3612C4.86475 10.4576 4.81683 10.5771 4.81683 10.7196C4.81683 10.8621 4.86475 10.9805 4.96058 11.075C5.05641 11.1694 5.17516 11.2166 5.31683 11.2166H8.11683C8.05016 11.4277 8.00294 11.6389 7.97516 11.85C7.94738 12.0611 7.9335 12.2777 7.9335 12.5C7.9335 12.8464 7.97825 13.185 8.06776 13.516C8.15726 13.847 8.27917 14.1639 8.4335 14.4666Z" fill="#66828C"/>
</svg>
