<svg width="16" height="16" viewBox="0 0 16 16" fill="none" xmlns="http://www.w3.org/2000/svg">
<path d="M12.9333 10.4666L10.7333 8.26662C10.6 8.13328 10.6 7.93328 10.7333 7.79995L12.9333 5.59995C13.1333 5.39995 13.5333 5.53328 13.5333 5.86662V10.2666C13.5333 10.5333 13.2 10.6666 12.9333 10.4666Z" fill="#002E40"/>
<path d="M9.66675 1.66663H3.66675C2.53341 1.66663 1.66675 2.53329 1.66675 3.66663V12.3333C1.66675 13.4666 2.53341 14.3333 3.66675 14.3333H9.66675M3.00008 12.3333V3.66663C3.00008 3.33329 3.26675 2.99996 3.66675 2.99996H8.33342V13H3.66675C3.26675 13 3.00008 12.7333 3.00008 12.3333Z" fill="#002E40"/>
</svg>
