<svg width="16" height="16" viewBox="0 0 16 16" fill="none" xmlns="http://www.w3.org/2000/svg">
<path d="M12.9333 10.4666L10.7333 8.26662C10.6 8.13328 10.6 7.93328 10.7333 7.79995L12.9333 5.59995C13.1333 5.39995 13.5333 5.53328 13.5333 5.86662V10.2666C13.5333 10.5333 13.2 10.6666 12.9333 10.4666Z" fill="#66828C"/>
<path d="M9.66666 1.66663H3.66666C2.53332 1.66663 1.66666 2.53329 1.66666 3.66663V12.3333C1.66666 13.4666 2.53332 14.3333 3.66666 14.3333H9.66666M2.99999 12.3333V3.66663C2.99999 3.33329 3.26666 2.99996 3.66666 2.99996H8.33332V13H3.66666C3.26666 13 2.99999 12.7333 2.99999 12.3333Z" fill="#66828C"/>
</svg>
