<svg width="16" height="16" viewBox="0 0 16 16" fill="none" xmlns="http://www.w3.org/2000/svg">
<path d="M8.00006 7.76665C7.1334 7.76665 6.4334 7.49999 5.90006 6.93332C5.36673 6.36665 5.10006 5.69999 5.10006 4.83332C5.10006 3.96665 5.36673 3.26665 5.90006 2.73332C6.4334 2.19999 7.1334 1.93332 8.00006 1.93332C8.86673 1.93332 9.56673 2.19999 10.1001 2.73332C10.6334 3.26665 10.9334 3.96665 10.9334 4.83332C10.9334 5.69999 10.6667 6.39999 10.1001 6.93332C9.56673 7.49999 8.86673 7.76665 8.00006 7.76665ZM3.80006 13.9667C3.36673 13.9667 3.00007 13.8 2.70007 13.5C2.40007 13.2 2.26673 12.8333 2.2334 12.4V11.9667C2.2334 11.4667 2.36673 11.0333 2.60007 10.6667C2.86673 10.3 3.16673 9.99999 3.60006 9.83332C4.36673 9.49999 5.10006 9.23332 5.8334 9.06665C6.56673 8.89999 7.26673 8.79999 8.00006 8.79999C8.7334 8.79999 9.46673 8.89999 10.1667 9.06665C10.8667 9.23332 11.6001 9.49999 12.3667 9.83332C12.8001 9.99999 13.1334 10.3 13.3667 10.6667C13.6334 11.0333 13.7667 11.4667 13.7667 11.9667V12.4C13.7667 12.8333 13.6001 13.2 13.3001 13.5C13.0001 13.8 12.6334 13.9667 12.1667 13.9667H3.80006Z" fill="#66828C"/>
</svg>
