<svg width="16" height="16" viewBox="0 0 16 16" fill="none" xmlns="http://www.w3.org/2000/svg">
<path d="M3.5834 14.5167C3.0059 14.5167 2.51152 14.311 2.10027 13.8998C1.68902 13.4885 1.4834 12.9942 1.4834 12.4167V3.58334C1.4834 3.00584 1.68902 2.51147 2.10027 2.10022C2.51152 1.68897 3.0059 1.48334 3.5834 1.48334H12.4167C12.9942 1.48334 13.4886 1.68897 13.8998 2.10022C14.3111 2.51147 14.5167 3.00584 14.5167 3.58334V12.4167C14.5167 12.9942 14.3111 13.4885 13.8998 13.8998C13.4886 14.311 12.9942 14.5167 12.4167 14.5167H3.5834ZM3.3334 12.6667H12.6667V4.66667H3.3334V12.6667ZM8.00007 11.3333C7.08895 11.3333 6.27507 11.0861 5.5584 10.5917C4.84173 10.0972 4.32229 9.45556 4.00007 8.66667C4.32229 7.87778 4.84173 7.23612 5.5584 6.74167C6.27507 6.24723 7.08895 6 8.00007 6C8.91118 6 9.72507 6.24723 10.4417 6.74167C11.1584 7.23612 11.6778 7.87778 12.0001 8.66667C11.6778 9.45556 11.1584 10.0972 10.4417 10.5917C9.72507 11.0861 8.91118 11.3333 8.00007 11.3333ZM8.00007 9.66667C7.72229 9.66667 7.48618 9.56945 7.29173 9.375C7.09729 9.18056 7.00007 8.94445 7.00007 8.66667C7.00007 8.38889 7.09729 8.15278 7.29173 7.95834C7.48618 7.76389 7.72229 7.66667 8.00007 7.66667C8.27784 7.66667 8.51395 7.76389 8.7084 7.95834C8.90284 8.15278 9.00007 8.38889 9.00007 8.66667C9.00007 8.94445 8.90284 9.18056 8.7084 9.375C8.51395 9.56945 8.27784 9.66667 8.00007 9.66667ZM8.00007 10.3333C8.46673 10.3333 8.86118 10.1722 9.1834 9.85C9.50562 9.52778 9.66673 9.13334 9.66673 8.66667C9.66673 8.2 9.50562 7.80556 9.1834 7.48334C8.86118 7.16112 8.46673 7 8.00007 7C7.5334 7 7.13895 7.16112 6.81673 7.48334C6.49451 7.80556 6.3334 8.2 6.3334 8.66667C6.3334 9.13334 6.49451 9.52778 6.81673 9.85C7.13895 10.1722 7.5334 10.3333 8.00007 10.3333Z" fill="#66828C"/>
</svg>
