<svg width="16" height="16" viewBox="0 0 16 16" fill="none" xmlns="http://www.w3.org/2000/svg">
<path d="M9.46666 4.96667C9.46666 4.6 9.34444 4.3 9.1 4.06667C8.85555 3.83333 8.53889 3.71667 8.15 3.71667C7.89444 3.71667 7.65833 3.76111 7.44166 3.85C7.225 3.93889 7.03333 4.07778 6.86666 4.26667C6.54444 4.62222 6.15833 4.82222 5.70833 4.86667C5.25833 4.91111 4.88888 4.79444 4.6 4.51667C4.37777 4.29444 4.26666 4.00833 4.26666 3.65833C4.26666 3.30833 4.38333 2.98889 4.61666 2.7C5.03888 2.16667 5.55 1.76111 6.15 1.48333C6.75 1.20555 7.41666 1.06667 8.15 1.06667C9.36111 1.06667 10.3389 1.42222 11.0833 2.13333C11.8278 2.84444 12.2 3.77222 12.2 4.91667C12.2 5.48333 12.05 6.05278 11.75 6.625C11.45 7.19722 10.9833 7.81667 10.35 8.48333C10.1944 8.65 10.0528 8.82222 9.925 9C9.79722 9.17778 9.68333 9.36111 9.58333 9.55C9.40555 9.88333 9.19444 10.1389 8.95 10.3167C8.70555 10.4944 8.44444 10.5833 8.16666 10.5833C7.81111 10.5833 7.50555 10.4667 7.25 10.2333C6.99444 10 6.86666 9.71667 6.86666 9.38333C6.86666 8.86111 6.98888 8.36944 7.23333 7.90833C7.47777 7.44722 7.83333 7.05 8.3 6.71667C8.73333 6.40555 9.03611 6.11944 9.20833 5.85833C9.38055 5.59722 9.46666 5.3 9.46666 4.96667ZM8.15 15.3C7.63889 15.3 7.20555 15.1222 6.85 14.7667C6.49444 14.4111 6.31666 13.9778 6.31666 13.4667C6.31666 12.9556 6.49444 12.5194 6.85 12.1583C7.20555 11.7972 7.63889 11.6167 8.15 11.6167C8.66111 11.6167 9.09722 11.7972 9.45833 12.1583C9.81944 12.5194 10 12.9556 10 13.4667C10 13.9778 9.81944 14.4111 9.45833 14.7667C9.09722 15.1222 8.66111 15.3 8.15 15.3Z" fill="#002E40"/>
</svg>
