<svg width="16" height="16" viewBox="0 0 16 16" fill="none" xmlns="http://www.w3.org/2000/svg">
<path d="M10.7667 6.54999H6.25C5.57222 6.54999 4.99722 6.79165 4.525 7.27499C4.05278 7.75832 3.81667 8.34443 3.81667 9.03332C3.81667 9.72221 4.05278 10.3083 4.525 10.7917C4.99722 11.275 5.57222 11.5167 6.25 11.5167H10.75C10.9722 11.5167 11.1583 11.5917 11.3083 11.7417C11.4583 11.8917 11.5333 12.0778 11.5333 12.3C11.5333 12.5222 11.4583 12.7083 11.3083 12.8583C11.1583 13.0083 10.9722 13.0833 10.75 13.0833H6.26667C5.15556 13.0833 4.20833 12.6889 3.425 11.9C2.64167 11.1111 2.25 10.1555 2.25 9.03332C2.25 7.92221 2.64167 6.96943 3.425 6.17499C4.20833 5.38054 5.15556 4.98332 6.26667 4.98332H10.7667L9.66667 3.88332C9.51111 3.72777 9.43333 3.54721 9.43333 3.34165C9.43333 3.1361 9.51111 2.94999 9.66667 2.78332C9.82222 2.62777 10.0056 2.54999 10.2167 2.54999C10.4278 2.54999 10.6111 2.62777 10.7667 2.78332L13.2 5.19999C13.2778 5.27777 13.3389 5.36665 13.3833 5.46665C13.4278 5.56665 13.45 5.66665 13.45 5.76665C13.45 5.86665 13.4278 5.96665 13.3833 6.06665C13.3389 6.16665 13.2778 6.25554 13.2 6.33332L10.7667 8.73332C10.6111 8.89999 10.4278 8.98332 10.2167 8.98332C10.0056 8.98332 9.82222 8.89999 9.66667 8.73332C9.51111 8.57777 9.43333 8.39721 9.43333 8.19165C9.43333 7.9861 9.51111 7.79999 9.66667 7.63332L10.7667 6.54999Z" fill="#66828C"/>
</svg>
