<svg width="16" height="16" viewBox="0 0 16 16" fill="none" xmlns="http://www.w3.org/2000/svg">
<path d="M7.95019 13.75C6.36131 13.75 5.00575 13.1889 3.88353 12.0667C2.76131 10.9444 2.2002 9.58889 2.2002 8C2.2002 6.41111 2.76131 5.05278 3.88353 3.925C5.00575 2.79723 6.36131 2.23334 7.95019 2.23334C8.96131 2.23334 9.85297 2.43612 10.6252 2.84167C11.3974 3.24723 12.0613 3.81667 12.6169 4.55V2.83334C12.6169 2.66223 12.6713 2.51945 12.7802 2.405C12.8891 2.29056 13.0346 2.23334 13.2169 2.23334C13.388 2.23334 13.5308 2.29056 13.6452 2.405C13.7596 2.51945 13.8169 2.66223 13.8169 2.83334V6.3C13.8169 6.52223 13.7391 6.70834 13.5835 6.85834C13.428 7.00834 13.2391 7.08334 13.0169 7.08334H9.53353C9.36714 7.08334 9.22832 7.02611 9.11708 6.91167C9.00582 6.79723 8.95019 6.65445 8.95019 6.48334C8.95019 6.31695 9.00742 6.17813 9.12186 6.06689C9.23631 5.95563 9.37908 5.9 9.55019 5.9H11.6835C11.2502 5.27778 10.7275 4.775 10.1154 4.39167C9.50339 4.00834 8.78164 3.81667 7.95019 3.81667C6.78353 3.81667 5.79464 4.22223 4.98353 5.03334C4.17242 5.84445 3.76686 6.83334 3.76686 8C3.76686 9.16667 4.17242 10.1556 4.98353 10.9667C5.79464 11.7778 6.78353 12.1833 7.95019 12.1833C8.69464 12.1833 9.39464 11.9972 10.0502 11.625C10.7058 11.2528 11.2169 10.7444 11.5835 10.1C11.7016 9.92045 11.8616 9.79223 12.0637 9.71534C12.2658 9.63845 12.4654 9.64445 12.6626 9.73334C12.8654 9.81111 13.0058 9.94167 13.0835 10.125C13.1613 10.3083 13.1558 10.4889 13.0669 10.6667C12.578 11.6111 11.8752 12.3611 10.9585 12.9167C10.0419 13.4722 9.03908 13.75 7.95019 13.75Z" fill="#66828C"/>
</svg>
