<svg width="16" height="16" viewBox="0 0 16 16" fill="none" xmlns="http://www.w3.org/2000/svg">
<path d="M12.6835 13.8833L8.76678 9.98335C8.44345 10.24 8.06345 10.44 7.62678 10.5833C7.19012 10.7267 6.71345 10.8 6.20345 10.8C4.92678 10.8 3.84345 10.3567 2.95345 9.46668C2.06345 8.57668 1.62012 7.50668 1.62012 6.25001C1.62012 4.99335 2.06345 3.92335 2.95345 3.03335C3.84345 2.14335 4.92012 1.70001 6.18678 1.70001C7.44345 1.70001 8.51345 2.14335 9.39345 3.03335C10.2735 3.92335 10.7168 4.99335 10.7168 6.25001C10.7168 6.75001 10.6468 7.21335 10.5101 7.64335C10.3701 8.07001 10.1635 8.47335 9.88345 8.85001L13.8335 12.7667C13.9901 12.9233 14.0668 13.11 14.0668 13.3233C14.0668 13.5367 13.9835 13.7267 13.8168 13.88C13.6601 14.0467 13.4735 14.13 13.2501 14.13C13.0268 14.13 12.8401 14.05 12.6835 13.8833ZM6.18345 9.23335C7.01678 9.23335 7.72012 8.94335 8.29345 8.36001C8.86678 7.77668 9.15345 7.07335 9.15345 6.25001C9.15345 5.41668 8.86678 4.71001 8.29345 4.13335C7.72012 3.55668 7.01678 3.26668 6.18345 3.26668C5.35012 3.26668 4.64345 3.55668 4.05678 4.13335C3.47345 4.71001 3.18345 5.41668 3.18345 6.25001C3.18345 7.07335 3.47678 7.77668 4.05678 8.36001C4.64345 8.94335 5.35012 9.23335 6.18345 9.23335Z" fill="#66828C"/>
</svg>
