<svg width="16" height="16" viewBox="0 0 16 16" fill="none" xmlns="http://www.w3.org/2000/svg">
<path d="M9.20016 15.0834H6.80016C6.60016 15.0834 6.42239 15.0222 6.26683 14.9C6.11128 14.7778 6.02239 14.6167 6.00016 14.4167L5.75016 12.85C5.60572 12.8056 5.44183 12.7306 5.2585 12.625C5.07516 12.5195 4.92239 12.4167 4.80016 12.3167L3.36683 13C3.17794 13.0889 2.98628 13.1 2.79183 13.0334C2.59739 12.9667 2.45016 12.8389 2.35016 12.65L1.1335 10.4834C1.02239 10.3056 0.991831 10.1195 1.04183 9.92502C1.09183 9.73058 1.19461 9.57225 1.35016 9.45002L2.6835 8.48336C2.67239 8.41669 2.66405 8.33613 2.6585 8.24169C2.65294 8.14725 2.65016 8.06669 2.65016 8.00002C2.65016 7.93336 2.65294 7.8528 2.6585 7.75836C2.66405 7.66391 2.67239 7.58336 2.6835 7.51669L1.35016 6.53336C1.19461 6.41113 1.09183 6.2528 1.04183 6.05836C0.991831 5.86391 1.02239 5.68336 1.1335 5.51669L2.35016 3.35002C2.46128 3.18336 2.61405 3.06391 2.8085 2.99169C3.00294 2.91947 3.18905 2.9278 3.36683 3.01669L4.8335 3.68336C4.94461 3.59447 5.08905 3.50002 5.26683 3.40002C5.44461 3.30002 5.60572 3.2278 5.75016 3.18336L6.00016 1.56669C6.02239 1.36669 6.11128 1.20558 6.26683 1.08336C6.42239 0.961136 6.60016 0.900024 6.80016 0.900024H9.20016C9.40016 0.900024 9.57794 0.961136 9.7335 1.08336C9.88905 1.20558 9.97794 1.36669 10.0002 1.56669L10.2502 3.16669C10.3946 3.22225 10.5585 3.29725 10.7418 3.39169C10.9252 3.48614 11.0779 3.58336 11.2002 3.68336L12.6335 3.01669C12.8113 2.9278 13.0002 2.91669 13.2002 2.98336C13.4002 3.05002 13.5502 3.17225 13.6502 3.35002L14.8835 5.50002C14.9946 5.6778 15.0252 5.86669 14.9752 6.06669C14.9252 6.26669 14.8168 6.42225 14.6502 6.53336L13.3002 7.48336C13.3113 7.56113 13.3224 7.64725 13.3335 7.74169C13.3446 7.83613 13.3502 7.92225 13.3502 8.00002C13.3502 8.0778 13.3446 8.16113 13.3335 8.25002C13.3224 8.33891 13.3113 8.42225 13.3002 8.50002L14.6502 9.45002C14.8057 9.57225 14.9085 9.73058 14.9585 9.92502C15.0085 10.1195 14.9835 10.3056 14.8835 10.4834L13.6335 12.65C13.5335 12.8389 13.3891 12.9667 13.2002 13.0334C13.0113 13.1 12.8224 13.0889 12.6335 13L11.1835 12.3167C11.0613 12.4167 10.9141 12.5195 10.7418 12.625C10.5696 12.7306 10.4057 12.8056 10.2502 12.85L10.0002 14.4167C9.97794 14.6167 9.88905 14.7778 9.7335 14.9C9.57794 15.0222 9.40016 15.0834 9.20016 15.0834ZM7.96683 10.1667C8.56683 10.1667 9.07794 9.95558 9.50016 9.53336C9.92239 9.11113 10.1335 8.60002 10.1335 8.00002C10.1335 7.40002 9.92239 6.88891 9.50016 6.46669C9.07794 6.04447 8.56683 5.83336 7.96683 5.83336C7.36683 5.83336 6.85572 6.04447 6.4335 6.46669C6.01128 6.88891 5.80016 7.40002 5.80016 8.00002C5.80016 8.60002 6.01128 9.11113 6.4335 9.53336C6.85572 9.95558 7.36683 10.1667 7.96683 10.1667Z" fill="#002E40"/>
</svg>
