<svg width="16" height="16" viewBox="0 0 16 16" fill="none" xmlns="http://www.w3.org/2000/svg">
<path d="M2.46644 13.1334C2.17366 13.1334 1.92824 13.0306 1.73019 12.825C1.53213 12.6195 1.43311 12.3709 1.43311 12.0793C1.43311 11.7877 1.53213 11.5432 1.73019 11.3459C1.92824 11.1487 2.17366 11.05 2.46644 11.05H5.24977C5.54255 11.05 5.78797 11.1528 5.98602 11.3584C6.18408 11.5639 6.28311 11.8125 6.28311 12.1041C6.28311 12.3957 6.18408 12.6402 5.98602 12.8375C5.78797 13.0347 5.54255 13.1334 5.24977 13.1334H2.46644ZM2.46644 9.05003C2.17366 9.05003 1.92824 8.94725 1.73019 8.7417C1.53213 8.53614 1.43311 8.28755 1.43311 7.99593C1.43311 7.70432 1.53213 7.45987 1.73019 7.2626C1.92824 7.06533 2.17366 6.9667 2.46644 6.9667H9.38311C9.67588 6.9667 9.9213 7.06947 10.1194 7.27503C10.3174 7.48058 10.4164 7.72917 10.4164 8.0208C10.4164 8.31241 10.3174 8.55685 10.1194 8.75413C9.9213 8.9514 9.67588 9.05003 9.38311 9.05003H2.46644ZM2.46644 4.9667C2.17366 4.9667 1.92824 4.86392 1.73019 4.65836C1.53213 4.45281 1.43311 4.20422 1.43311 3.9126C1.43311 3.62098 1.53588 3.37654 1.74144 3.17926C1.94699 2.982 2.19422 2.88336 2.48311 2.88336H13.5331C13.8259 2.88336 14.0713 2.98614 14.2694 3.1917C14.4674 3.39725 14.5664 3.64584 14.5664 3.93746C14.5664 4.22907 14.4637 4.47352 14.2581 4.67079C14.0526 4.86806 13.8053 4.9667 13.5164 4.9667H2.46644Z" fill="#66828C"/>
</svg>
