<svg width="16" height="16" viewBox="0 0 16 16" fill="none" xmlns="http://www.w3.org/2000/svg">
<g clip-path="url(#clip0_3236_15812)">
<path d="M7.99977 15.0667C4.09977 15.0667 0.933105 11.9 0.933105 8.00002C0.933105 4.10002 4.09977 0.93335 7.99977 0.93335C11.8998 0.93335 15.0664 4.10002 15.0664 8.00002C15.0664 11.9 11.8998 15.0667 7.99977 15.0667ZM7.99977 3.26668C5.39977 3.26668 3.26644 5.40002 3.26644 8.00002C3.26644 10.6 5.39977 12.7334 7.99977 12.7334C10.5998 12.7334 12.7331 10.6 12.7331 8.00002C12.7331 5.40002 10.5998 3.26668 7.99977 3.26668Z" fill="#99ABB3"/>
<path d="M13.9002 9.16668C13.2668 9.16668 12.7335 8.63335 12.7335 8.00002C12.7335 5.40002 10.6002 3.26668 8.00016 3.26668C7.36683 3.26668 6.8335 2.73335 6.8335 2.10002C6.8335 1.46668 7.36683 0.93335 8.00016 0.93335C11.9002 0.93335 15.0668 4.10002 15.0668 8.00002C15.0668 8.63335 14.5335 9.16668 13.9002 9.16668Z" fill="#002E40"/>
</g>
<defs>
<clipPath id="clip0_3236_15812">
<rect width="16" height="16" fill="white"/>
</clipPath>
</defs>
</svg>
