<svg width="16" height="16" viewBox="0 0 16 16" fill="none" xmlns="http://www.w3.org/2000/svg">
<path d="M8.50006 13.8C7.70007 13.8 6.9334 13.6333 6.26673 13.2667C5.60007 12.9 5.0334 12.4 4.6334 11.7C4.5334 11.5 4.50007 11.3 4.60007 11.0667C4.70007 10.8333 4.8334 10.7 5.06673 10.6C5.2334 10.5333 5.4334 10.5333 5.6334 10.6C5.8334 10.6667 6.00007 10.8 6.1334 11C6.40007 11.4 6.76673 11.7 7.20007 11.9C7.6334 12.1 8.06673 12.2 8.5334 12.2C9.10007 12.2 9.50006 12.0667 9.76673 11.8C10.0334 11.5333 10.1667 11.1667 10.1667 10.7C10.1667 10.4333 10.1001 10.1333 9.96673 9.83333C9.8334 9.53333 9.60007 9.23333 9.30007 8.96667H11.1667C11.4001 9.23333 11.5667 9.53333 11.6667 9.83333C11.7667 10.1333 11.8334 10.4333 11.8334 10.7C11.8334 11.6333 11.5334 12.4 10.9667 12.9667C10.3001 13.5 9.50006 13.8 8.50006 13.8ZM1.8334 7.93333C1.66673 7.93333 1.50007 7.86667 1.40007 7.76666C1.30007 7.66667 1.2334 7.5 1.2334 7.33333C1.2334 7.16667 1.30007 7 1.40007 6.9C1.50007 6.8 1.66673 6.73333 1.8334 6.73333H14.1667C14.3334 6.73333 14.5001 6.8 14.6001 6.9C14.7001 7 14.7667 7.16667 14.7667 7.33333C14.7667 7.5 14.7001 7.66667 14.6001 7.76666C14.5001 7.86667 14.3334 7.93333 14.1667 7.93333H1.8334ZM4.70007 5.73333C4.66673 5.63333 4.66673 5.56666 4.66673 5.46667C4.66673 5.36667 4.6334 5.3 4.6334 5.2C4.6334 4.23333 4.9334 3.46666 5.56673 2.93333C6.20007 2.4 7.00006 2.13333 7.9334 2.13333C8.56673 2.13333 9.1334 2.23333 9.6334 2.46666C10.1334 2.7 10.5334 3 10.8334 3.4C11.0334 3.63333 11.0667 3.86666 11.0001 4.1C10.9334 4.33333 10.7334 4.53333 10.4667 4.63333C10.3334 4.7 10.1667 4.7 9.96673 4.66666C9.80007 4.63333 9.60007 4.5 9.40007 4.3C9.20007 4.1 9.00007 3.96666 8.7334 3.86666C8.46673 3.76666 8.20007 3.73333 7.86673 3.73333C7.36673 3.73333 6.96673 3.86666 6.66673 4.13333C6.36673 4.4 6.2334 4.76666 6.2334 5.23333C6.2334 5.33333 6.2334 5.4 6.2334 5.5C6.2334 5.6 6.26673 5.66666 6.26673 5.76666L4.70007 5.73333Z" fill="#002E40"/>
</svg>
