<svg width="16" height="16" viewBox="0 0 16 16" fill="none" xmlns="http://www.w3.org/2000/svg">
<path d="M5.14992 5.74998C5.32103 5.74998 5.46381 5.69276 5.57825 5.57832C5.6927 5.46387 5.74992 5.3211 5.74992 5.14998C5.74992 4.97887 5.6927 4.83609 5.57825 4.72165C5.46381 4.60721 5.32103 4.54998 5.14992 4.54998C4.97881 4.54998 4.83603 4.60721 4.72159 4.72165C4.60714 4.83609 4.54992 4.97887 4.54992 5.14998C4.54992 5.3211 4.60714 5.46387 4.72159 5.57832C4.83603 5.69276 4.97881 5.74998 5.14992 5.74998ZM5.14992 8.59998C5.32103 8.59998 5.46381 8.54276 5.57825 8.42832C5.6927 8.31387 5.74992 8.1711 5.74992 7.99998C5.74992 7.82887 5.6927 7.68609 5.57825 7.57165C5.46381 7.45721 5.32103 7.39998 5.14992 7.39998C4.97881 7.39998 4.83603 7.45721 4.72159 7.57165C4.60714 7.68609 4.54992 7.82887 4.54992 7.99998C4.54992 8.1711 4.60714 8.31387 4.72159 8.42832C4.83603 8.54276 4.97881 8.59998 5.14992 8.59998ZM5.14992 11.45C5.32103 11.45 5.46381 11.3928 5.57825 11.2783C5.6927 11.1639 5.74992 11.0211 5.74992 10.85C5.74992 10.6789 5.6927 10.5361 5.57825 10.4217C5.46381 10.3072 5.32103 10.25 5.14992 10.25C4.97881 10.25 4.83603 10.3072 4.72159 10.4217C4.60714 10.5361 4.54992 10.6789 4.54992 10.85C4.54992 11.0211 4.60714 11.1639 4.72159 11.2783C4.83603 11.3928 4.97881 11.45 5.14992 11.45ZM3.14992 14.4167C2.71659 14.4167 2.34714 14.2639 2.04159 13.9583C1.73603 13.6528 1.58325 13.2833 1.58325 12.85V3.14998C1.58325 2.71665 1.73603 2.34443 2.04159 2.03332C2.34714 1.72221 2.71659 1.56665 3.14992 1.56665H10.0499C10.2637 1.56665 10.4672 1.61109 10.6603 1.69998C10.8534 1.78887 11.0277 1.90554 11.1833 2.04998L13.9499 4.81665C14.0944 4.97221 14.211 5.14653 14.2999 5.33962C14.3888 5.53271 14.4333 5.73616 14.4333 5.94998V12.85C14.4333 13.2833 14.2777 13.6528 13.9666 13.9583C13.6555 14.2639 13.2833 14.4167 12.8499 14.4167H3.14992ZM9.79992 3.14998V5.41665C9.79992 5.63887 9.87492 5.82498 10.0249 5.97498C10.1749 6.12498 10.361 6.19998 10.5833 6.19998H12.8499L9.79992 3.14998Z" fill="#66828C"/>
</svg>
