<svg width="16" height="16" viewBox="0 0 16 16" fill="none" xmlns="http://www.w3.org/2000/svg">
<g clip-path="url(#clip0_4259_21667)">
<path d="M8.00023 15.4333C6.96689 15.4333 5.99745 15.2417 5.09189 14.8583C4.18634 14.475 3.39745 13.9472 2.72523 13.275C2.05301 12.6028 1.52523 11.8139 1.14189 10.9083C0.758561 10.0028 0.566895 9.03332 0.566895 7.99998C0.566895 6.96665 0.758561 5.99721 1.14189 5.09165C1.52523 4.1861 2.05301 3.39721 2.72523 2.72498C3.39745 2.05276 4.18634 1.52498 5.09189 1.14165C5.99745 0.758317 6.96689 0.56665 8.00023 0.56665C8.42245 0.56665 8.84189 0.599984 9.25856 0.66665C9.67523 0.733317 10.0836 0.833317 10.4836 0.96665C10.7613 1.06665 10.9447 1.26665 11.0336 1.56665C11.1225 1.86665 11.0836 2.14443 10.9169 2.39998C10.7391 2.66665 10.4947 2.84721 10.1836 2.94165C9.87245 3.03609 9.55578 3.04443 9.23356 2.96665C9.03356 2.92221 8.83078 2.88887 8.62523 2.86665C8.41967 2.84443 8.21134 2.83332 8.00023 2.83332C6.56689 2.83332 5.34745 3.33332 4.34189 4.33332C3.33634 5.33332 2.83356 6.55554 2.83356 7.99998C2.83356 9.44443 3.33634 10.6667 4.34189 11.6667C5.34745 12.6667 6.56689 13.1667 8.00023 13.1667C9.42245 13.1667 10.6391 12.6694 11.6502 11.675C12.6613 10.6805 13.1669 9.47776 13.1669 8.06665C13.1669 8.08887 13.1697 8.11387 13.1752 8.14165C13.1808 8.16943 13.1836 8.19443 13.1836 8.21665C13.1836 7.88332 13.2725 7.58332 13.4502 7.31665C13.628 7.04998 13.8725 6.87776 14.1836 6.79998C14.4947 6.72221 14.778 6.76943 15.0336 6.94165C15.2891 7.11387 15.4225 7.35554 15.4336 7.66665V7.99998C15.4336 9.03332 15.2419 10.0028 14.8586 10.9083C14.4752 11.8139 13.9475 12.6028 13.2752 13.275C12.603 13.9472 11.8141 14.475 10.9086 14.8583C10.003 15.2417 9.03356 15.4333 8.00023 15.4333ZM7.01689 8.51665L13.1669 2.34998C13.378 2.14998 13.6308 2.04998 13.9252 2.04998C14.2197 2.04998 14.4725 2.14998 14.6836 2.34998C14.8947 2.56109 15.0002 2.81387 15.0002 3.10832C15.0002 3.40276 14.8947 3.65554 14.6836 3.86665L7.81689 10.7167C7.59467 10.95 7.32801 11.0667 7.01689 11.0667C6.70578 11.0667 6.43912 10.95 6.21689 10.7167L4.55023 9.04998C4.33912 8.84998 4.23356 8.60276 4.23356 8.30832C4.23356 8.01387 4.33912 7.76665 4.55023 7.56665C4.76134 7.35554 5.01412 7.24998 5.30856 7.24998C5.60301 7.24998 5.85578 7.35554 6.06689 7.56665L7.01689 8.51665Z" fill="#002E40"/>
</g>
<defs>
<clipPath id="clip0_4259_21667">
<rect width="16" height="16" fill="white"/>
</clipPath>
</defs>
</svg>
