<svg width="16" height="16" viewBox="0 0 16 16" fill="none" xmlns="http://www.w3.org/2000/svg">
<path d="M13.65 5.66667C14.1944 5.66667 14.6806 5.88056 15.1083 6.30834C15.5361 6.73612 15.75 7.22223 15.75 7.76667V8.08334C15.75 8.18812 15.7389 8.30045 15.7167 8.42034C15.6944 8.54012 15.6611 8.64445 15.6167 8.73334L13.5167 13.7167C13.3611 14.0722 13.0972 14.3695 12.725 14.6083C12.3528 14.8472 11.9722 14.9667 11.5833 14.9667H4.15V5.66667L7.38333 2.45001C7.67222 2.16112 8 1.97501 8.36667 1.89167C8.73333 1.80834 9.08333 1.84445 9.41667 2.00001C9.73889 2.14445 9.97222 2.3889 10.1167 2.73334C10.2611 3.07778 10.2778 3.4389 10.1667 3.81667L9.65 5.66667H13.65ZM6 6.80001V12.8667H11.5833L13.6167 8.08334V7.76667H7.18333L7.88333 4.91667L6 6.80001ZM2.66667 14.9667C2.07778 14.9667 1.58055 14.7639 1.175 14.3583C0.769443 13.9528 0.566666 13.4556 0.566666 12.8667V7.76667C0.566666 7.17778 0.769443 6.68056 1.175 6.27501C1.58055 5.86945 2.07778 5.66667 2.66667 5.66667H4.15V7.76667H2.66667V12.8667H4.15V14.9667H2.66667Z" fill="#66828C"/>
</svg>
