<svg width="16" height="16" viewBox="0 0 16 16" fill="none" xmlns="http://www.w3.org/2000/svg">
<path d="M13.65 5.66667C14.1944 5.66667 14.6806 5.88056 15.1083 6.30834C15.5361 6.73612 15.75 7.22223 15.75 7.76667V8.08334C15.75 8.18334 15.7389 8.29445 15.7167 8.41667C15.6944 8.53889 15.6611 8.64445 15.6167 8.73334L13.5167 13.7167C13.3722 14.0722 13.1139 14.3695 12.7417 14.6083C12.3694 14.8472 11.9833 14.9667 11.5833 14.9667H6.91667C6.32778 14.9667 5.83055 14.7639 5.425 14.3583C5.01944 13.9528 4.81667 13.4556 4.81667 12.8667V6.53334C4.81667 6.24445 4.86944 5.97501 4.975 5.72501C5.08055 5.47501 5.23333 5.25001 5.43333 5.05001L7.98333 2.51667C8.27222 2.22778 8.6 2.04167 8.96667 1.95834C9.33333 1.87501 9.68333 1.91112 10.0167 2.06667C10.3389 2.21112 10.575 2.45278 10.725 2.79167C10.875 3.13056 10.9 3.49445 10.8 3.88334L10.35 5.66667H13.65ZM2.01667 14.9667C1.61667 14.9667 1.275 14.825 0.991666 14.5417C0.708332 14.2583 0.566666 13.9167 0.566666 13.5167V7.11667C0.566666 6.71667 0.702777 6.37501 0.974999 6.09167C1.24722 5.80834 1.57778 5.66667 1.96667 5.66667H2.03333C2.43333 5.66667 2.775 5.80834 3.05833 6.09167C3.34167 6.37501 3.48333 6.71667 3.48333 7.11667V13.5167C3.48333 13.9167 3.34167 14.2583 3.05833 14.5417C2.775 14.825 2.43333 14.9667 2.03333 14.9667H2.01667Z" fill="#015CC8"/>
</svg>
