<svg width="16" height="16" viewBox="0 0 16 16" fill="none" xmlns="http://www.w3.org/2000/svg">
<g clip-path="url(#clip0_7009_25217)">
<path d="M13.9536 2.34607H11.8307V1.45166C11.8307 1.03748 11.4949 0.70166 11.0807 0.70166H10.6655C10.2512 0.70166 9.91547 1.03748 9.91547 1.45166V2.34607H6.08497V1.45166C6.08497 1.03748 5.74922 0.70166 5.33497 0.70166H4.91974C4.50549 0.70166 4.16974 1.03748 4.16974 1.45166V2.34607H2.04688C1.63263 2.34607 1.29688 2.68189 1.29688 3.09607V3.51129C1.29688 3.92554 1.63263 4.26129 2.04688 4.26129H13.9536C14.3678 4.26129 14.7036 3.92554 14.7036 3.51129V3.09607C14.7036 2.68189 14.3678 2.34607 13.9536 2.34607Z" fill="#002E40"/>
<path d="M12.9536 5.24329H3.04688C2.08039 5.24329 1.29688 6.0268 1.29688 6.99329V13.5483C1.29688 14.5148 2.08039 15.2983 3.04688 15.2983H12.9536C13.92 15.2983 14.7036 14.5148 14.7036 13.5483V6.99329C14.7036 6.0268 13.92 5.24329 12.9536 5.24329ZM11.584 9.09308L7.90625 12.7718C7.76563 12.9124 7.57521 12.9915 7.37599 12.9915C7.17677 12.9915 6.98634 12.9124 6.84572 12.7718L4.41602 10.3421C4.12305 10.0491 4.12305 9.57452 4.41602 9.28155C4.70899 8.98858 5.1836 8.98858 5.47657 9.28155L7.37599 11.181L10.5234 8.03252C10.8164 7.73955 11.291 7.73955 11.584 8.03252C11.877 8.32549 11.877 8.80011 11.584 9.09308Z" fill="#002E40"/>
</g>
<defs>
<clipPath id="clip0_7009_25217">
<rect width="13.4067" height="14.5967" fill="white" transform="translate(1.29688 0.70166)"/>
</clipPath>
</defs>
</svg>
