<svg width="16" height="16" viewBox="0 0 16 16" fill="none" xmlns="http://www.w3.org/2000/svg">
<path d="M3.8332 14.4667C3.59987 14.4667 3.4332 14.4 3.26654 14.2333C3.1332 14.1 3.0332 13.9 3.0332 13.6667C3.0332 13.4333 3.09987 13.2667 3.26654 13.1C3.4332 12.9333 3.59987 12.8667 3.8332 12.8667H12.1665C12.3999 12.8667 12.5665 12.9333 12.7332 13.1C12.8999 13.2667 12.9665 13.4333 12.9665 13.6667C12.9665 13.9 12.8999 14.0667 12.7332 14.2333C12.5999 14.4 12.3999 14.4667 12.1665 14.4667H3.8332ZM7.99987 11.4333C6.79987 11.4333 5.79987 11.0333 4.96654 10.2C4.1332 9.36667 3.7332 8.36667 3.7332 7.2V2.46667C3.7332 2.2 3.8332 1.96667 4.0332 1.76667C4.2332 1.56667 4.4332 1.5 4.69987 1.5C4.96654 1.5 5.16654 1.6 5.36654 1.76667C5.56654 1.96667 5.66654 2.16667 5.66654 2.46667V7.2C5.66654 7.86667 5.89987 8.4 6.3332 8.83333C6.79987 9.26667 7.36654 9.5 8.0332 9.5C8.69987 9.5 9.26654 9.26667 9.7332 8.83333C10.1999 8.4 10.3999 7.83333 10.3999 7.2V2.46667C10.3999 2.2 10.4999 1.96667 10.6999 1.76667C10.8999 1.56667 11.0999 1.5 11.3665 1.5C11.6332 1.5 11.8332 1.6 12.0332 1.76667C12.2332 1.93333 12.2999 2.16667 12.2999 2.46667V7.16667C12.2999 8.36667 11.8999 9.36667 11.0665 10.1667C10.2332 10.9667 9.19987 11.4333 7.99987 11.4333Z" fill="#002E40"/>
</svg>
