<svg width="16" height="16" viewBox="0 0 16 16" fill="none" xmlns="http://www.w3.org/2000/svg">
<path d="M8.00002 6.46665C7.90002 6.46665 7.80279 6.4472 7.70835 6.40831C7.61391 6.36942 7.52779 6.31109 7.45002 6.23331L5.16668 3.94998C5.01113 3.79442 4.93335 3.60554 4.93335 3.38331C4.93335 3.16109 5.01113 2.9722 5.16668 2.81665C5.32224 2.66109 5.50557 2.58331 5.71668 2.58331C5.92779 2.58331 6.11113 2.66109 6.26668 2.81665L8.00002 4.54998L9.73335 2.81665C9.88891 2.66109 10.075 2.58331 10.2917 2.58331C10.5083 2.58331 10.6945 2.66109 10.85 2.81665C11.0056 2.9722 11.0833 3.15831 11.0833 3.37498C11.0833 3.59165 11.0056 3.77776 10.85 3.93331L8.55002 6.23331C8.47224 6.31109 8.38613 6.36942 8.29168 6.40831C8.19724 6.4472 8.10002 6.46665 8.00002 6.46665ZM5.16668 13.1666C5.01113 13.0111 4.93335 12.825 4.93335 12.6083C4.93335 12.3916 5.01113 12.2055 5.16668 12.05L7.45002 9.76665C7.52779 9.68887 7.61391 9.63053 7.70835 9.59165C7.80279 9.55276 7.90002 9.53331 8.00002 9.53331C8.10002 9.53331 8.19724 9.55276 8.29168 9.59165C8.38613 9.63053 8.47224 9.68887 8.55002 9.76665L10.8333 12.05C10.9889 12.2055 11.0695 12.3916 11.075 12.6083C11.0806 12.825 11.0056 13.0111 10.85 13.1666C10.6945 13.3222 10.5056 13.4 10.2833 13.4C10.0611 13.4 9.87224 13.3222 9.71668 13.1666L8.00002 11.45L6.28335 13.1666C6.12779 13.3222 5.94168 13.4 5.72502 13.4C5.50835 13.4 5.32224 13.3222 5.16668 13.1666Z" fill="#002E40"/>
</svg>
