<svg width="16" height="16" viewBox="0 0 16 16" fill="none" xmlns="http://www.w3.org/2000/svg">
<path d="M7.99999 10.6667C8.83332 10.6667 9.54165 10.375 10.125 9.79166C10.7083 9.20833 11 8.49999 11 7.66666C11 6.83333 10.7083 6.12499 10.125 5.54166C9.54165 4.95833 8.83332 4.66666 7.99999 4.66666C7.16665 4.66666 6.45832 4.95833 5.87499 5.54166C5.29165 6.12499 4.99999 6.83333 4.99999 7.66666C4.99999 8.49999 5.29165 9.20833 5.87499 9.79166C6.45832 10.375 7.16665 10.6667 7.99999 10.6667ZM8.00299 9.11666C7.60099 9.11666 7.25832 8.97599 6.97499 8.69466C6.69165 8.41322 6.54999 8.07155 6.54999 7.66966C6.54999 7.26766 6.69065 6.92499 6.97199 6.64166C7.25343 6.35833 7.5951 6.21666 7.99699 6.21666C8.39899 6.21666 8.74165 6.35733 9.02499 6.63866C9.30832 6.92011 9.44999 7.26177 9.44999 7.66366C9.44999 8.06566 9.30932 8.40833 9.02799 8.69166C8.74654 8.97499 8.40487 9.11666 8.00299 9.11666ZM7.99999 13.1833C6.44443 13.1833 5.01943 12.7722 3.72499 11.95C2.43054 11.1278 1.41665 10.0278 0.683319 8.64999C0.59443 8.49444 0.530541 8.33333 0.491652 8.16666C0.452764 7.99999 0.433319 7.83333 0.433319 7.66666C0.433319 7.49999 0.452764 7.33333 0.491652 7.16666C0.530541 6.99999 0.59443 6.83888 0.683319 6.68333C1.41665 5.30555 2.43054 4.20555 3.72499 3.38333C5.01943 2.56111 6.44443 2.14999 7.99999 2.14999C9.55554 2.14999 10.9805 2.56111 12.275 3.38333C13.5694 4.20555 14.5833 5.30555 15.3167 6.68333C15.4055 6.83888 15.4694 6.99999 15.5083 7.16666C15.5472 7.33333 15.5667 7.49999 15.5667 7.66666C15.5667 7.83333 15.5472 7.99999 15.5083 8.16666C15.4694 8.33333 15.4055 8.49444 15.3167 8.64999C14.5833 10.0278 13.5694 11.1278 12.275 11.95C10.9805 12.7722 9.55554 13.1833 7.99999 13.1833Z" fill="#66828C"/>
</svg>
