<svg width="16" height="16" viewBox="0 0 16 16" fill="none" xmlns="http://www.w3.org/2000/svg">
<path d="M12.45 14.7167L10.5 12.7833C10.1 12.9278 9.68888 13.0305 9.26665 13.0917C8.84443 13.1528 8.42221 13.1833 7.99999 13.1833C6.44443 13.1833 5.01665 12.7722 3.71665 11.95C2.41665 11.1278 1.39999 10.0278 0.666652 8.64999C0.577764 8.49444 0.516652 8.3361 0.483319 8.17499C0.449986 8.01388 0.433319 7.84444 0.433319 7.66666C0.433319 7.48888 0.449986 7.31944 0.483319 7.15833C0.516652 6.99722 0.577764 6.83888 0.666652 6.68333C0.877764 6.29444 1.1111 5.91666 1.36665 5.54999C1.62221 5.18333 1.9111 4.83888 2.23332 4.51666L1.01665 3.29999C0.861097 3.14444 0.783319 2.9611 0.783319 2.74999C0.783319 2.53888 0.861097 2.35555 1.01665 2.19999C1.17221 2.04444 1.35832 1.96666 1.57499 1.96666C1.79165 1.96666 1.97776 2.04444 2.13332 2.19999L13.55 13.6167C13.7055 13.7722 13.7833 13.9555 13.7833 14.1667C13.7833 14.3778 13.7055 14.5611 13.55 14.7167C13.3944 14.8722 13.2111 14.95 13 14.95C12.7889 14.95 12.6055 14.8722 12.45 14.7167ZM7.99999 10.6667C8.06665 10.6667 8.13054 10.6639 8.19165 10.6583C8.25276 10.6528 8.31665 10.6389 8.38332 10.6167L5.01665 7.28333C5.00554 7.34999 4.99999 7.41388 4.99999 7.47499V7.66666C4.99999 8.49999 5.29165 9.20833 5.87499 9.79166C6.45832 10.375 7.16665 10.6667 7.99999 10.6667ZM7.99999 2.14999C9.55554 2.14999 10.9861 2.56388 12.2917 3.39166C13.5972 4.21944 14.6167 5.32777 15.35 6.71666C15.4278 6.87222 15.4861 7.02777 15.525 7.18333C15.5639 7.33888 15.5833 7.49999 15.5833 7.66666C15.5833 7.83333 15.5667 7.99722 15.5333 8.15833C15.5 8.31944 15.4444 8.47777 15.3667 8.63333C15.2111 8.93333 15.0417 9.22499 14.8583 9.50833C14.675 9.79166 14.4722 10.0611 14.25 10.3167C14.0278 10.5722 13.7528 10.6972 13.425 10.6917C13.0972 10.6861 12.8111 10.5611 12.5667 10.3167L11.2167 8.96666C11.0944 8.84444 11.0167 8.70277 10.9833 8.54166C10.95 8.38055 10.95 8.21666 10.9833 8.04999C10.9944 7.98333 11 7.91944 11 7.85833V7.66666C11 6.83333 10.7083 6.12499 10.125 5.54166C9.54165 4.95833 8.83332 4.66666 7.99999 4.66666C7.93332 4.66666 7.86943 4.66944 7.80832 4.67499C7.74721 4.68055 7.68332 4.68888 7.61665 4.69999C7.44999 4.72222 7.2861 4.71666 7.12499 4.68333C6.96387 4.64999 6.82221 4.57222 6.69999 4.44999L6.38332 4.13333C6.0611 3.8111 5.95832 3.43333 6.07499 2.99999C6.19165 2.56666 6.46665 2.30555 6.89999 2.21666C7.08887 2.19444 7.27221 2.17777 7.44999 2.16666C7.62776 2.15555 7.8111 2.14999 7.99999 2.14999ZM9.01665 6.53333C9.03888 6.55555 9.05832 6.58055 9.07499 6.60833C9.09165 6.6361 9.10554 6.66666 9.11665 6.69999C9.12776 6.72222 9.11665 6.74166 9.08332 6.75833C9.04999 6.77499 9.02221 6.77222 8.99999 6.74999L8.79999 6.54999C8.77776 6.52777 8.77499 6.49999 8.79165 6.46666C8.80832 6.43333 8.83332 6.42222 8.86665 6.43333C8.89999 6.44444 8.92776 6.45833 8.94999 6.47499C8.97221 6.49166 8.99443 6.5111 9.01665 6.53333Z" fill="#66828C"/>
</svg>
