<svg width="16" height="16" viewBox="0 0 16 16" fill="none" xmlns="http://www.w3.org/2000/svg">
<g clip-path="url(#clip0_7009_25214)">
<path d="M13.9531 2.34607H11.8303V1.45166C11.8303 1.03741 11.4944 0.70166 11.0803 0.70166H10.665C10.2508 0.70166 9.91499 1.03741 9.91499 1.45166V2.34607H6.08455V1.45166C6.08455 1.03741 5.74873 0.70166 5.33455 0.70166H4.91927C4.50509 0.70166 4.16927 1.03741 4.16927 1.45166V2.34607H2.04639C1.63221 2.34607 1.29639 2.68182 1.29639 3.09607V3.51129C1.29639 3.92554 1.63221 4.26129 2.04639 4.26129H13.9531C14.3673 4.26129 14.7031 3.92554 14.7031 3.51129V3.09607C14.7031 2.68182 14.3673 2.34607 13.9531 2.34607Z" fill="#002E40"/>
<path d="M12.9531 5.24329H3.04639C2.0799 5.24329 1.29639 6.0268 1.29639 6.99329V13.5483C1.29639 14.5148 2.0799 15.2983 3.04639 15.2983H12.9531C13.9196 15.2983 14.7031 14.5148 14.7031 13.5483V6.99329C14.7031 6.0268 13.9196 5.24329 12.9531 5.24329ZM7.99976 13.972C5.95563 13.972 4.29853 12.3149 4.29853 10.2708C4.29853 8.22669 5.95563 6.56959 7.99976 6.56959C10.0439 6.56959 11.701 8.22669 11.701 10.2708C11.701 12.3149 10.0439 13.972 7.99976 13.972Z" fill="#002E40"/>
<path d="M9.91503 12.0859C9.83495 12.0859 9.7539 12.0664 9.67773 12.0264L7.66015 10.9404C7.49804 10.8535 7.39697 10.6836 7.39697 10.5V7.93311C7.39697 7.65674 7.6206 7.43311 7.89697 7.43311C8.17334 7.43311 8.39697 7.65674 8.39697 7.93311V10.2012L10.1523 11.1455C10.3955 11.2764 10.4863 11.5801 10.3555 11.8232C10.2646 11.9902 10.0928 12.0859 9.91503 12.0859Z" fill="#002E40"/>
</g>
<defs>
<clipPath id="clip0_7009_25214">
<rect width="13.4067" height="14.5967" fill="white" transform="translate(1.29639 0.70166)"/>
</clipPath>
</defs>
</svg>
