<svg width="16" height="16" viewBox="0 0 16 16" fill="none" xmlns="http://www.w3.org/2000/svg">
<path d="M5.6667 6.73334H4.88337C4.7417 6.73334 4.62295 6.68515 4.52712 6.58876C4.43128 6.49236 4.38337 6.37292 4.38337 6.23043C4.38337 6.08793 4.43128 5.96946 4.52712 5.87501C4.62295 5.78057 4.7417 5.73334 4.88337 5.73334H5.6667V4.95001C5.6667 4.81946 5.71489 4.70348 5.81128 4.6021C5.90768 4.50071 6.02713 4.45001 6.16961 4.45001C6.31211 4.45001 6.43059 4.50071 6.52503 4.6021C6.61948 4.70348 6.6667 4.81946 6.6667 4.95001V5.73334H7.45003C7.58059 5.73334 7.69656 5.78154 7.79795 5.87793C7.89934 5.97433 7.95003 6.09377 7.95003 6.23626C7.95003 6.37876 7.89934 6.49723 7.79795 6.59168C7.69656 6.68612 7.58059 6.73334 7.45003 6.73334H6.6667V7.51171C6.6667 7.65669 6.6185 7.77709 6.52212 7.87293C6.42572 7.96876 6.30627 8.01668 6.16378 8.01668C6.02128 8.01668 5.90281 7.96876 5.80837 7.87293C5.71392 7.77709 5.6667 7.65669 5.6667 7.51171V6.73334ZM6.20003 10.8C4.92045 10.8 3.83667 10.3556 2.94868 9.46668C2.06069 8.57779 1.6167 7.50557 1.6167 6.25001C1.6167 4.99446 2.06114 3.92223 2.95003 3.03335C3.83892 2.14446 4.91392 1.70001 6.17503 1.70001C7.43614 1.70001 8.50836 2.14446 9.3917 3.03335C10.275 3.92223 10.7167 4.99529 10.7167 6.25251C10.7167 6.75085 10.6473 7.2139 10.5084 7.64168C10.3695 8.06946 10.1611 8.47223 9.88336 8.85001L13.8167 12.75C13.9723 12.9117 14.05 13.1022 14.05 13.3213C14.05 13.5404 13.975 13.7278 13.825 13.8833C13.658 14.05 13.4636 14.1333 13.2419 14.1333C13.0202 14.1333 12.834 14.05 12.6834 13.8833L8.7667 9.98334C8.44448 10.238 8.06415 10.4378 7.62571 10.5827C7.18728 10.7276 6.71205 10.8 6.20003 10.8ZM6.18925 9.23334C7.02144 9.23334 7.72295 8.94307 8.29378 8.36251C8.86461 7.78196 9.15003 7.07779 9.15003 6.25001C9.15003 5.42223 8.8638 4.71807 8.29133 4.13751C7.71886 3.55696 7.01817 3.26668 6.18925 3.26668C5.35107 3.26668 4.64054 3.55696 4.05767 4.13751C3.4748 4.71807 3.18337 5.42223 3.18337 6.25001C3.18337 7.07779 3.47398 7.78196 4.05522 8.36251C4.63646 8.94307 5.3478 9.23334 6.18925 9.23334Z" fill="#66828C"/>
</svg>
